<?xml version="1.0" encoding="UTF-8" standalone="no"?>
<!DOCTYPE svg PUBLIC "-//W3C//DTD SVG 1.1//EN" "http://www.w3.org/Graphics/SVG/1.1/DTD/svg11.dtd">
<svg width="100%" height="100%" viewBox="0 0 412 412" version="1.1" xmlns="http://www.w3.org/2000/svg" xmlns:xlink="http://www.w3.org/1999/xlink" xml:space="preserve" xmlns:serif="http://www.serif.com/" style="fill-rule:evenodd;clip-rule:evenodd;stroke-linejoin:round;stroke-miterlimit:2;">
    <g transform="matrix(4.16667,0,0,4.16667,-786.813,-1312.97)">
        <path d="M188.835,364.483C188.835,337.217 210.939,315.112 238.206,315.112C265.472,315.112 287.577,337.217 287.577,364.483C287.577,391.751 265.472,413.855 238.206,413.855C210.939,413.855 188.835,391.751 188.835,364.483Z" style="fill:rgb(206,208,210);fill-rule:nonzero;"/>
    </g>
    <g transform="matrix(4.16667,0,0,4.16667,-786.813,-1312.97)">
        <path d="M211.344,389.344C210.161,389.344 209.913,389.904 209.85,390.591C209.788,391.274 209.352,391.711 209.103,392.022C208.853,392.333 209.103,393.579 209.85,393.891C210.598,394.202 211.967,394.326 211.344,395.136C210.722,395.945 210.039,396.028 210.256,396.891C210.473,397.751 211.407,398.437 212.03,398.747C212.652,399.059 213.029,399.744 214.024,399.806C215.019,399.868 216.078,398.499 216.513,398.437C216.949,398.374 214.396,397.501 216.513,397.253C218.631,397.005 218.444,396.216 219.44,396.891C220.437,397.564 218.693,397.439 221.62,397.688C224.547,397.939 224.671,398.271 225.73,396.891C226.789,395.51 226.976,394.451 226.789,393.144C226.602,391.835 223.737,389.282 223.177,388.41C222.616,387.538 211.282,385.421 211.033,385.732C210.784,386.043 211.344,389.344 211.344,389.344Z" style="fill:rgb(160,163,164);fill-rule:nonzero;"/>
    </g>
    <g transform="matrix(4.16667,0,0,4.16667,-786.813,-1312.97)">
        <path d="M226.166,363.278C225.854,364.185 225.854,365.306 225.792,366.24C225.73,367.175 225.356,369.915 225.792,370.475C226.228,371.035 228.533,372.28 228.533,372.28C228.533,372.28 231.895,371.533 232.642,370.974C233.39,370.412 234.76,368.42 236.005,368.731C237.251,369.042 238.745,369.728 239.431,369.229C240.115,368.731 240.489,367.419 240.365,366.642C240.24,365.867 239.929,365.192 240.115,364.907C240.187,364.797 240.461,364.877 240.796,364.956C241.333,365.084 242.027,365.211 242.295,364.56C242.731,363.5 243.665,362.255 242.295,361.632C240.925,361.009 241.299,361.756 239.618,360.386C237.936,359.016 237.5,358.207 237.438,357.833C237.375,357.46 238.185,356.484 238.621,355.353C239.057,354.222 239.387,352.727 238.973,351.667C238.559,350.609 239.306,348.306 237.998,347.246C236.69,346.189 233.826,343.074 232.393,343.51C230.961,343.945 222.99,344.631 222.99,351.73C222.99,358.829 226.166,363.278 226.166,363.278Z" style="fill:rgb(160,163,164);fill-rule:nonzero;"/>
    </g>
    <g transform="matrix(4.16667,0,0,4.16667,-786.813,-1312.97)">
        <path d="M250.037,345.814C249.768,344.88 249.395,344.319 248.585,344.008C247.776,343.697 247.713,342.903 247.713,342.903C247.713,342.903 247.526,342.514 246.778,342.078C246.032,341.641 245.783,340.957 246.156,340.521C246.53,340.085 247.215,339.462 248.273,339.462C249.332,339.462 250.243,339.399 250.037,338.777C249.953,338.526 249.561,338.589 249.142,338.651C248.52,338.743 247.84,338.835 248.025,337.905C248.335,336.349 249.18,335.601 250.066,334.729C250.952,333.857 251.263,333.28 251.449,333.07C251.636,332.861 249.678,333.359 249.35,333.608C249.021,333.857 248.398,335.289 247.277,335.103C246.743,335.013 246.01,335.803 245.266,336.592C244.449,337.457 243.617,338.323 243.013,338.029C242.574,337.816 242.238,337.892 241.913,337.968C241.383,338.091 240.878,338.214 239.991,337.096C238.559,335.289 237.555,332.861 236.282,332.923C235.009,332.985 233.639,332.15 234.324,331.883C235.009,331.615 237.313,331.367 234.573,330.588C231.833,329.81 229.528,329.498 228.471,330.588C227.412,331.678 225.605,332.425 224.858,331.49C224.111,330.557 225.107,330.932 222.99,331.118C220.872,331.305 220.624,330.268 220.81,329.883C220.998,329.498 222.243,329.436 222.554,328.439C222.866,327.443 222.803,326.944 223.924,326.322C224.749,325.863 225.744,325.878 226.484,325.893C226.749,325.898 226.982,325.903 227.163,325.887C227.848,325.824 227.964,325.513 228.996,324.828C230.027,324.142 231.397,324.692 231.459,325.383C231.522,326.073 230.276,326.82 231.584,326.82C232.892,326.82 234.013,326.634 234.013,326.634C234.013,326.634 237.936,328.355 238.122,328.708C238.31,329.062 239.96,330.048 240.536,329.648C241.112,329.249 241.485,328.729 242.171,328.708C242.451,328.7 242.658,328.873 242.865,329.045C243.164,329.294 243.461,329.544 243.977,329.249C244.848,328.751 245.596,328.791 247.526,328.708C248.465,328.668 249.051,328.926 249.533,329.183C250.043,329.454 250.438,329.726 251.014,329.648C252.135,329.498 253.941,329.935 253.567,330.993C253.193,332.052 252.01,332.239 252.757,333.483C253.505,334.729 253.816,334.978 252.82,335.851C251.823,336.722 251.2,337.531 251.698,337.78C252.197,338.029 251.449,339.961 251.449,339.961C251.449,339.961 251.512,339.524 253.193,339.587C254.875,339.649 253.754,342.265 254.626,341.704C255.498,341.144 254.937,340.333 255.996,340.333C257.055,340.333 256.696,341.144 257.217,341.144C257.739,341.144 258.174,341.766 258.362,342.575C258.549,343.386 258.113,344.507 258.734,344.507C259.358,344.507 261.911,345.005 261.289,345.814C260.665,346.623 260.417,347.932 259.794,347.246C259.17,346.561 258.299,344.942 257.739,345.44C257.178,345.938 256.881,346.748 256.532,346.81C256.182,346.873 254.376,347.246 254.065,346.623C253.754,346.002 252.197,345.066 252.197,345.066L250.037,345.814Z" style="fill:rgb(160,163,164);fill-rule:nonzero;"/>
    </g>
    <g transform="matrix(4.16667,0,0,4.16667,-786.813,-1312.97)">
        <path d="M264.154,330.588C264.033,330.598 263.902,330.586 263.771,330.575C263.361,330.539 262.955,330.503 262.908,331.118C262.845,331.927 262.659,332.985 262.161,332.612C261.663,332.239 261.812,331.415 261.083,331.608C260.355,331.802 260.379,333.234 261.083,333.547C261.786,333.857 262.227,335.041 262.35,335.601C262.472,336.162 263.282,338.154 263.469,338.591C263.655,339.026 264.278,339.462 264.154,339.774C264.029,340.085 264.651,339.898 265.399,338.652C266.146,337.407 266.707,336.722 267.081,337.531C267.454,338.342 267.322,340.147 268.322,339.399C269.322,338.652 270.318,338.342 270.879,339.275C271.44,340.209 270.443,340.957 271.378,341.828C272.312,342.7 273.308,343.759 273.059,344.132C272.81,344.507 274.117,344.88 274.429,344.818C274.741,344.756 274.18,341.828 274.741,341.579C275.301,341.33 275.363,342.202 275.923,342.39C276.484,342.575 278.228,341.891 278.352,340.458C278.477,339.026 277.542,337.158 276.422,336.971C275.995,336.9 275.938,336.973 275.863,337.047C275.741,337.166 275.571,337.285 273.682,336.784C270.63,335.976 268.957,334.105 269.046,333.608C269.136,333.109 269.883,332.923 267.392,332.239C264.901,331.553 265.231,330.504 264.154,330.588Z" style="fill:rgb(160,163,164);fill-rule:nonzero;"/>
    </g>
    <g transform="matrix(4.16667,0,0,4.16667,-786.813,-1312.97)">
        <path d="M283.451,351.746C282.828,352.244 282.33,352.804 283.015,353.302C283.7,353.8 284.136,354.734 283.762,354.921C283.389,355.107 283.351,355.939 282.685,355.618C282.018,355.295 281.395,355.855 281.831,356.665C282.267,357.475 282.198,357.536 282.793,358.098C283.09,358.378 283.416,358.105 283.738,357.833C284.072,357.551 284.402,357.268 284.696,357.599C285.194,358.16 285.505,357.839 285.817,358.217C286.128,358.596 286.564,358.907 286.439,357.039C286.315,355.17 285.942,354.485 285.88,353.737C285.817,352.991 285.568,353.737 284.945,352.929C284.323,352.118 283.451,351.746 283.451,351.746Z" style="fill:rgb(160,163,164);fill-rule:nonzero;"/>
    </g>
    <g transform="matrix(4.16667,0,0,4.16667,-786.813,-1312.97)">
        <path d="M286.142,362.2C285.207,362.449 284.896,362.947 285.082,364.255C285.269,365.563 285.477,367.556 285.031,367.866C284.584,368.178 284.833,368.178 284.646,369.361C284.46,370.545 284.211,371.104 284.646,372.164C285.082,373.223 285.394,376.461 284.958,376.647C284.522,376.834 287.263,374.323 287.075,368.323C286.889,362.325 286.142,362.2 286.142,362.2Z" style="fill:rgb(160,163,164);fill-rule:nonzero;"/>
    </g>
    <g transform="matrix(4.16667,0,0,4.16667,-786.813,-1312.97)">
        <path d="M245.97,366.303C245.347,366.489 245.244,367.797 244.673,367.984C244.101,368.172 244.537,368.679 244.039,369.359C243.54,370.039 243.17,369.541 243.013,370.475C242.856,371.409 243.417,372.219 243.79,373.028C244.164,373.838 244.91,374.71 245.533,375.208C246.156,375.707 246.778,376.453 247.028,375.894C247.277,375.332 248.771,376.161 249.706,376.588C250.64,377.014 251.014,377.853 251.698,377.932C252.384,378.011 252.944,379.484 252.57,379.464C252.197,379.443 251.574,378.073 251.014,378.882C250.453,379.691 249.644,381.125 250.08,381.809C250.515,382.494 250.64,383.864 252.01,383.304C253.38,382.743 254.189,384.113 254.376,384.363C254.476,384.496 254.99,384.219 255.498,383.943C255.939,383.702 256.376,383.461 256.532,383.49C256.868,383.553 256.368,384.307 257.366,384.397C257.635,384.422 257.901,384.412 258.135,384.402C258.763,384.376 259.161,384.35 258.798,384.985C258.299,385.857 258.174,385.981 256.868,386.169C255.56,386.354 254.812,388.908 255.435,389.531C256.058,390.153 256.93,390.32 257.926,390.674C258.355,390.825 258.808,390.819 259.195,390.813C259.704,390.804 260.096,390.796 260.168,391.149C260.292,391.773 261.601,391.067 261.849,390.674C262.099,390.278 262.97,388.784 262.845,388.1C262.721,387.413 262.721,387.04 263.22,386.791C263.718,386.541 263.78,385.919 263.593,384.674C263.497,384.035 263.712,384.067 263.651,384.099C263.593,384.13 263.285,384.161 262.223,383.614C260.044,382.494 260.044,381.685 258.923,381.934C257.801,382.183 256.944,382.805 256.532,381.685C256.12,380.564 255.958,380.439 256.256,380.003C256.556,379.567 257.489,379.41 257.553,377.932C257.614,376.453 258.113,376.079 258.424,375.208C258.734,374.337 258.487,372.032 257.178,371.035C255.871,370.039 245.97,366.303 245.97,366.303Z" style="fill:rgb(160,163,164);fill-rule:nonzero;"/>
    </g>
    <g transform="matrix(4.16667,0,0,4.16667,-786.813,-1312.97)">
        <path d="M195.589,342.575C195.538,342.755 200.135,341.517 201.069,340.771C202.003,340.022 204.183,338.84 204.993,337.843C205.802,336.846 207.448,335.62 207.471,335.559C207.495,335.495 208.916,334.792 209.29,333.981C209.663,333.172 209.477,331.528 210.161,331.883C210.846,332.239 210.971,333.795 211.656,332.923C212.341,332.052 213.652,331.18 214.024,331.18C214.396,331.18 217.385,329.56 218.444,329.436C219.503,329.311 220.685,329.311 220.249,328.315C219.814,327.319 219.503,325.699 218.506,325.949C217.51,326.198 216.389,327.257 216.078,326.57C215.766,325.887 214.523,327.132 214.024,327.194C213.838,327.217 213.799,327.103 213.762,326.988C213.7,326.794 213.644,326.6 212.901,327.069C211.718,327.817 212.839,329.062 211.656,328.751C210.473,328.439 210.971,327.692 210.037,328.502C209.103,329.311 209.04,330.932 208.355,330.744C207.67,330.557 207.421,329.186 207.67,328.814C207.92,328.439 209.414,327.194 209.663,326.57C209.913,325.949 210.722,324.89 210.722,324.89C210.722,324.89 197.395,336.224 195.589,342.575Z" style="fill:rgb(160,163,164);fill-rule:nonzero;"/>
    </g>
    <g transform="matrix(4.16667,0,0,4.16667,-786.813,-1312.97)">
        <path d="M208.48,332.923C207.732,333.297 206.57,334.211 205.823,334.543C205.076,334.875 204.411,335.705 203.747,336.702C203.083,337.698 200.841,340.022 200.011,340.105C199.703,340.136 199.418,340.053 199.156,339.97C198.711,339.829 198.332,339.687 198.018,340.105C197.52,340.771 196.44,340.687 196.44,340.687C196.44,340.687 190.804,347.504 189.891,355.558C189.303,360.738 189.742,359.903 190.152,359.068C190.38,358.605 190.598,358.142 190.628,358.705C190.711,360.283 190.711,364.352 190.711,364.352C190.711,364.352 190.462,368.172 191.126,369.417C191.79,370.662 193.534,374.481 193.534,375.477C193.534,376.475 195.609,379.878 195.693,378.8C195.776,377.721 196.274,376.558 196.606,377.221C196.938,377.886 198.599,380.211 199.18,379.878C199.761,379.546 200.26,381.206 200.758,381.206C201.256,381.206 200.675,379.298 201.505,379.712C202.335,380.127 201.173,381.041 203.083,382.286C204.993,383.532 204.079,384.195 203.83,384.86C203.581,385.525 204.577,386.604 203.83,386.77C203.531,386.836 203.179,386.478 202.811,386.119C202.259,385.581 201.671,385.043 201.173,385.939C200.343,387.435 200.343,389.593 202.003,390.673C203.665,391.752 205.74,394.991 206.321,395.571C206.902,396.153 208.065,397.73 208.48,396.319C208.895,394.907 208.065,391.337 208.48,391.253C208.895,391.171 206.736,388.015 206.819,387.684C206.902,387.352 207.641,387.103 208.6,387.103C209.56,387.103 210.473,386.272 209.643,385.275C208.812,384.278 207.899,382.536 207.899,382.536C207.899,382.536 210.805,383.781 211.303,384.528C211.575,384.936 212.192,384.899 212.711,384.862C213.143,384.831 213.507,384.8 213.544,385.026C213.628,385.525 213.628,386.77 213.544,387.186C213.462,387.601 211.967,388.597 211.967,389.012C211.967,389.428 213.628,392.085 214.458,392.832C214.82,393.158 215.056,392.614 215.263,392.07C215.529,391.368 215.745,390.666 216.119,391.835C216.783,393.912 216.451,395.903 217.779,396.319C218.383,396.507 219.09,396.267 219.767,396.027C220.58,395.739 221.35,395.451 221.848,395.904C222.761,396.733 225.003,397.647 225.502,395.571C226,393.496 226.664,392.832 225.502,391.171C224.339,389.51 223.509,388.764 224.671,388.015C225.834,387.268 227.245,385.026 226.498,384.611C225.751,384.196 223.177,384.113 223.011,382.203C222.845,380.293 219.025,378.136 219.357,377.387C219.689,376.64 222.263,376.807 223.509,374.979C224.754,373.153 225.421,371.908 226.707,373.734C227.993,375.561 229.155,376.225 230.401,375.81C231.646,375.395 232.477,375.395 233.473,374.813C234.469,374.232 237.043,372.073 230.982,371.908C224.92,371.742 225.419,368.668 226.582,366.593C227.744,364.518 229.653,364.518 229.653,364.518C229.653,364.518 226,362.359 225.917,361.943C225.834,361.528 223.426,360.532 227.827,358.954C232.227,357.377 229.986,355.467 228.74,355.135C227.495,354.802 224.09,353.391 224.92,351.564C225.751,349.737 227.495,347.828 228.408,347.828C229.321,347.828 231.895,346.333 233.473,345.503C235.051,344.672 233.452,346.665 234.874,347.744C236.296,348.824 237.043,349.155 237.542,347.246C238.04,345.337 237.542,344.092 238.206,343.095C238.87,342.099 239.535,341.102 238.206,340.687C237.678,340.522 237.228,340.763 236.827,341.005C236.217,341.371 235.717,341.738 235.217,340.687C234.386,338.943 234.055,338.611 232.726,337.199C231.397,335.788 232.393,335.953 229.653,335.373C226.913,334.792 226.997,334.211 225.751,333.629C224.505,333.048 220.437,334.211 220.022,334.377C219.606,334.543 219.855,338.029 218.942,336.535C218.029,335.041 220.935,333.462 216.451,333.795C211.967,334.127 212.797,334.958 212.466,336.867C212.133,338.777 211.386,339.856 209.726,341.02C208.065,342.181 205.574,340.853 206.072,339.358C206.57,337.864 208.48,332.923 208.48,332.923Z" style="fill:rgb(147,153,154);fill-rule:nonzero;"/>
    </g>
    <g transform="matrix(4.16667,0,0,4.16667,-786.813,-1312.97)">
        <path d="M244.6,344.092C243.996,342.808 244.351,343.095 242.109,344.092C239.867,345.087 240.365,345.337 239.535,347.246C238.704,349.156 239.037,349.654 238.123,349.737C237.209,349.819 236.462,350.485 236.296,351.149C236.13,351.813 237.459,352.727 237.542,353.724C237.625,354.72 237.459,356.132 238.372,356.878C239.286,357.626 239.687,357.46 240.44,358.124C241.195,358.787 241.942,360.117 243.437,360.698C244.932,361.278 245.264,361.362 246.178,361.113C247.09,360.863 248.004,360.698 249.083,360.614C250.163,360.532 251.326,359.868 251.99,358.871C252.654,357.874 253.899,357.46 254.563,356.962C255.228,356.463 253.899,354.221 254.563,353.059C255.228,351.896 257.967,352.478 255.56,351.232C253.152,349.986 251.159,348.077 252.488,346.333C253.236,345.351 253.958,345.423 254.431,345.495C254.798,345.551 255.015,345.606 254.979,345.171C254.895,344.175 252.903,343.178 251.74,342.929C250.578,342.68 250.495,344.341 249,344.507C247.506,344.672 245.264,345.503 244.6,344.092Z" style="fill:rgb(147,153,154);fill-rule:nonzero;"/>
    </g>
    <g transform="matrix(4.16667,0,0,4.16667,-786.813,-1312.97)">
        <path d="M249.831,361.245C249.149,361.519 250.08,362.69 248.834,363.521C247.588,364.352 246.178,366.012 245.513,365.763C244.849,365.515 244.185,366.676 245.18,367.091C246.178,367.507 246.139,368.502 246.407,369.417C246.675,370.329 247.256,372.988 248.087,373.318C248.917,373.65 248.253,375.311 249.416,375.395C250.578,375.477 251.99,376.059 252.072,376.807C252.155,377.554 252.737,377.387 253.235,377.305C253.414,377.275 253.72,377.445 254.07,377.616C254.697,377.922 255.465,378.228 255.892,377.38C256.557,376.059 257.801,375.645 258.134,374.148C258.466,372.654 257.22,370.911 259.794,372.156C262.369,373.402 262.95,374.066 263.863,373.153C264.212,372.804 264.379,372.807 264.499,372.809C264.692,372.812 264.761,372.815 265.274,371.326C266.105,368.918 264.195,367.424 265.274,366.261C266.354,365.099 265.358,364.352 267.102,364.269C268.845,364.185 267.185,363.437 265.441,362.69C263.697,361.943 263.282,361.029 263.282,360.199C263.282,359.369 263.365,358.705 263.78,358.207C264.195,357.708 263.282,357.542 262.118,357.335C260.957,357.127 261.372,356.962 260.54,355.799C259.712,354.636 258.051,356.049 258.549,356.629C259.048,357.21 261.206,359.784 259.379,359.535C257.553,359.287 256.224,357.708 255.892,357.708C255.56,357.708 252.701,358.123 252.701,358.123C252.701,358.123 251.575,360.548 249.831,361.245Z" style="fill:rgb(147,153,154);fill-rule:nonzero;"/>
    </g>
    <g transform="matrix(4.16667,0,0,4.16667,-786.813,-1312.97)">
        <path d="M273.412,351.149C272.696,351.379 272.665,352.228 272.084,352.893C271.502,353.558 270.423,354.636 270.008,354.969C269.592,355.301 269.758,356.796 270.34,357.335C270.921,357.874 271.17,359.037 270.838,359.12C270.506,359.203 270.46,360.615 269.777,359.535C269.095,358.456 268.549,359.701 269.777,360.947C271.004,362.192 271.918,361.943 272.748,362.441C273.578,362.939 273.994,363.854 275.405,362.774C276.816,361.693 277.231,360.947 278.061,360.365C278.892,359.784 277.813,357.46 278.644,357.335C279.474,357.21 280.138,356.712 279.639,355.799C279.142,354.886 279.39,353.308 277.563,353.06C275.737,352.809 273.85,351.008 273.412,351.149Z" style="fill:rgb(147,153,154);fill-rule:nonzero;"/>
    </g>
    <g transform="matrix(4.16667,0,0,4.16667,-786.813,-1312.97)">
        <path d="M272.084,368.254C269.758,368.254 269.746,370.081 269.046,371.16C268.347,372.239 267.766,373.484 267.268,373.567C266.769,373.65 265.773,374.564 266.354,375.727C266.936,376.89 268.181,376.815 268.181,377.932C268.181,379.048 266.831,378.716 266.177,378.467C265.524,378.218 264.694,378.716 264.694,379.381C264.694,380.045 265.773,380.958 265.108,381.29C264.445,381.622 264.527,383.283 265.358,382.702C266.188,382.12 267.335,381.041 267.841,381.705C268.347,382.369 266.422,383.283 267.841,383.532C269.26,383.781 269.925,383.366 270.34,382.951C270.58,382.711 270.876,382.776 271.228,382.842C271.484,382.889 271.769,382.937 272.084,382.867C272.831,382.702 274.159,380.294 274.741,380.211C275.322,380.127 272.665,383.283 272.084,384.113C271.502,384.943 270.893,385.69 269.745,385.608C268.596,385.525 267.766,384.777 267.434,387.02C267.102,389.261 269.046,390.674 269.046,390.674C269.046,390.674 271.502,390.423 272.001,389.095C272.499,387.767 274.117,387.02 274.429,386.52C274.741,386.022 276.318,383.366 276.567,381.705C276.816,380.045 275.902,377.969 276.567,377.055C277.231,376.143 278.976,375.645 278.892,374.066C278.809,372.488 278.061,370.495 276.567,370.495C275.073,370.495 274.076,369.333 273.827,368.918C273.578,368.503 272.084,368.254 272.084,368.254Z" style="fill:rgb(147,153,154);fill-rule:nonzero;"/>
    </g>
    <g transform="matrix(4.16667,0,0,4.16667,-786.813,-1312.97)">
        <path d="M265.108,324.329C262.036,323.582 260.376,322.835 261.372,323.831C262.369,324.828 263.946,325.658 263.531,326.405C263.115,327.152 264.444,327.484 265.856,327.401C267.268,327.319 269.246,327.069 267.841,325.99C266.437,324.91 265.108,324.329 265.108,324.329Z" style="fill:rgb(147,153,154);fill-rule:nonzero;"/>
    </g>
    <g transform="matrix(4.16667,0,0,4.16667,-786.813,-1312.97)">
        <path d="M228.75,331.958C229.662,331.638 230.494,332.393 230.214,333.297C229.934,334.2 228.408,334.573 227.972,333.951C227.536,333.328 227.598,332.363 228.75,331.958Z" style="fill:rgb(147,153,154);fill-rule:nonzero;"/>
    </g>
    <g transform="matrix(4.16667,0,0,4.16667,-786.813,-1312.97)">
        <path d="M239.493,318.85C239.069,318.958 238.671,319.099 238.973,319.441C239.274,319.784 240.115,320.001 240.458,319.69C240.801,319.378 239.931,318.738 239.493,318.85Z" style="fill:rgb(147,153,154);fill-rule:nonzero;"/>
    </g>
    <g transform="matrix(4.16667,0,0,4.16667,-786.813,-1312.97)">
        <path d="M250.266,318.662C249.477,318.227 249.083,318.955 249.55,319.338C250.017,319.722 251.449,319.316 250.266,318.662Z" style="fill:rgb(147,153,154);fill-rule:nonzero;"/>
    </g>
    <g transform="matrix(4.16667,0,0,4.16667,-786.813,-1312.97)">
        <path d="M256.587,320.063C256.242,319.833 256.463,319.565 256.93,319.659C257.396,319.752 258.174,320.406 257.988,320.437C257.801,320.469 257.055,320.375 256.587,320.063Z" style="fill:rgb(147,153,154);fill-rule:nonzero;"/>
    </g>
    <g transform="matrix(4.16667,0,0,4.16667,-786.813,-1312.97)">
        <path d="M260.54,328.719C261.193,328.781 261.911,329.468 261.694,330.121C261.476,330.775 260.48,330.713 259.794,330.121C259.109,329.529 259.234,328.595 260.54,328.719Z" style="fill:rgb(147,153,154);fill-rule:nonzero;"/>
    </g>
    <g transform="matrix(4.16667,0,0,4.16667,-786.813,-1312.97)">
        <path d="M216.597,323.084C216.236,322.912 216.368,322.088 217.448,321.485C218.527,320.883 219.108,320.717 219.357,321.236C219.606,321.755 219.149,322.378 218.548,322.73C217.946,323.084 217.033,323.292 216.597,323.084Z" style="fill:rgb(147,153,154);fill-rule:nonzero;"/>
    </g>
    <g transform="matrix(4.16667,0,0,4.16667,-786.813,-1312.97)">
        <path d="M216.036,395.862C215.206,394.991 222.264,401.965 222.845,402.421C223.426,402.878 220.685,399.308 220.021,398.603C219.357,397.896 220.395,398.234 221.267,399.125C222.139,400.015 223.379,400.098 222.925,399.434C222.471,398.768 222.637,397.896 223.716,398.727C224.796,399.558 225.169,399.184 225.502,398.478C225.834,397.772 226.999,395.903 226.853,397.315C226.705,398.727 226.734,399.392 226.865,399.516C226.996,399.64 227.453,395.363 227.827,394.658C228.201,393.952 229.196,397.315 229.238,397.439C229.28,397.564 230.11,397.586 230.857,396.891C231.605,396.193 233.017,394.505 233.307,394.561C233.597,394.617 237.334,389.926 237.625,387.061C237.915,384.195 238.745,389.22 233.846,395.697C228.947,402.173 234.303,396.733 234.552,396.693C234.664,396.674 234.667,397.079 234.696,397.485C234.732,397.985 234.808,398.485 235.175,398.188C235.839,397.647 239.285,397.108 240.572,395.157C241.859,393.206 239.908,397.19 238.122,398.229C236.337,399.266 235.051,401.881 235.258,401.757C235.465,401.633 239.535,400.886 244.101,398.935C248.668,396.983 252.238,393.911 252.488,393.703C252.736,393.496 241.485,401.385 239.41,402.671C237.334,403.958 239.535,403.958 240.365,403.708C241.195,403.46 243.312,403.837 243.312,403.837L241.61,404.871C241.61,404.871 251.988,403.127 253.338,402.215C254.688,401.301 255.684,401.675 256.888,400.803C258.092,399.931 250.245,404.456 247.754,405.079C245.264,405.702 242.689,405.951 242.482,406.241C242.274,406.532 243.063,407.32 243.769,407.32C244.475,407.32 247.131,408.026 247.796,407.612C248.46,407.196 255.062,405.702 257.428,404.331C259.794,402.961 261.995,401.385 262.244,401.135C262.493,400.886 262.991,401.509 262.244,402.131C261.497,402.754 259.959,404.331 258.174,404.871C256.39,405.411 253.152,406.49 252.114,407.072C251.076,407.652 248.211,409.396 249.54,409.272C250.868,409.147 255.435,408.026 255.435,408.026C255.435,408.026 252.653,410.018 250.661,410.518C248.668,411.016 247.298,411.805 245.596,412.179C243.894,412.553 243.188,412.843 242.274,412.843C241.361,412.843 227.91,413.506 224.007,410.85C220.104,408.192 221.433,408.026 221.433,408.026C221.433,408.026 221.268,408.026 220.104,408.192C218.942,408.358 220.603,407.113 220.935,406.947C221.267,406.781 216.866,406.117 216.701,406.366C216.534,406.615 214.708,404.871 214.708,404.871C214.708,404.871 215.953,404.124 216.368,403.958C216.783,403.791 212.964,403.211 210.722,401.716C208.48,400.222 206.321,398.145 206.321,398.145C206.321,398.145 211.054,399.312 212.881,399.81C214.708,400.305 211.181,401.55 214.024,401.965C216.866,402.38 218.527,401.467 218.527,401.467L216.036,395.862Z" style="fill:rgb(232,234,234);fill-rule:nonzero;"/>
    </g>
    <g transform="matrix(4.16667,0,0,4.16667,-786.813,-1312.97)">
        <path d="M214.024,364.185C214.002,364.746 212.964,364.341 212.839,364.907C212.715,365.473 212.922,365.929 212.673,365.971C212.424,366.011 213.503,366.261 213.545,366.634C213.587,367.008 213.337,368.006 214.542,367.714C215.746,367.424 215.413,366.967 216.659,366.634C217.904,366.303 218.278,364.102 217.655,363.645C217.033,363.189 214.087,362.566 214.024,364.185Z" style="fill:rgb(232,234,234);fill-rule:nonzero;"/>
    </g>
    <g transform="matrix(4.16667,0,0,4.16667,-786.813,-1312.97)">
        <path d="M264.666,400.387C265.191,399.6 263.987,401.135 263.032,401.925C262.078,402.713 264.319,401.467 265.482,400.554C266.645,399.64 266.81,399.434 267.599,399.225C267.96,399.13 268,399.408 267.988,399.687C267.974,400.017 267.888,400.348 268.181,400.056C268.72,399.516 268.637,398.395 269.26,398.313C269.883,398.229 270.132,397.937 270.256,397.522C270.381,397.108 271.045,396.817 271.294,396.693C271.543,396.568 270.63,396.193 271.294,395.821C271.958,395.447 271.626,395.653 272.456,395.198C273.288,394.741 273.412,395.073 274.45,393.247C275.487,391.42 274.823,391.627 273.869,392.54C272.914,393.454 272.291,394.741 272.166,393.62C272.042,392.5 272.415,391.54 272.415,391.397C272.415,391.253 270.505,392.872 269.509,393.454C268.513,394.035 269.015,392.5 268.888,391.918C268.762,391.337 267.516,390.756 267.641,391.961C267.765,393.164 267.932,394.824 267.475,394.866C267.019,394.907 268.596,394.907 266.022,393.952C263.448,392.997 263.282,392.872 263.157,393.579C263.032,394.284 263.614,395.157 265.191,395.571C266.769,395.986 268.098,396.651 266.894,397.108C266.337,397.319 266.206,397.255 266.075,397.19C265.922,397.116 265.768,397.041 264.942,397.398C263.406,398.062 262.244,399.516 263.406,399.142C264.568,398.768 265.606,398.478 265.814,398.478C266.022,398.478 264.666,400.387 264.666,400.387Z" style="fill:rgb(232,234,234);fill-rule:nonzero;"/>
    </g>
    <g transform="matrix(3.45945,0,0,3.64212,-626.703,-1126.75)">
        <path d="M247.679,416.3C242.872,416.3 238.244,415.377 233.912,413.67C235.327,413.792 236.76,413.855 238.206,413.855C265.472,413.855 287.577,391.751 287.577,364.483C287.577,337.217 265.472,315.112 238.206,315.112C234.134,315.112 230.179,315.605 226.393,316.534C232.707,312.353 239.961,309.975 247.679,309.975C272.088,309.975 291.876,333.775 291.876,363.138C291.876,392.499 272.088,416.3 247.679,416.3Z" style="fill:rgb(89,91,92);fill-rule:nonzero;"/>
    </g>
    <g transform="matrix(4.16667,0,0,4.16667,-786.813,-1312.97)">
        <path d="M238.206,413.855C236.76,413.855 235.327,413.792 233.912,413.67C233.136,413.365 232.369,413.034 231.612,412.678C233.828,412.865 236.117,412.916 238.006,412.916C240.275,412.916 241.97,412.843 242.274,412.843C243.188,412.843 243.894,412.553 245.596,412.179C247.298,411.805 248.668,411.016 250.661,410.518C252.653,410.018 255.435,408.026 255.435,408.026C255.435,408.026 250.868,409.147 249.54,409.272C249.494,409.277 249.454,409.279 249.418,409.279C248.405,409.279 251.111,407.633 252.114,407.072C253.152,406.49 256.39,405.411 258.174,404.871C259.959,404.331 261.497,402.754 262.244,402.131C262.876,401.605 262.617,401.079 262.372,401.079C262.327,401.079 262.283,401.096 262.244,401.135C261.995,401.385 259.794,402.961 257.428,404.331C255.062,405.702 248.46,407.196 247.796,407.612C247.645,407.706 247.392,407.742 247.083,407.742C246.027,407.742 244.315,407.32 243.769,407.32C243.063,407.32 242.274,406.532 242.482,406.241C242.689,405.951 245.264,405.702 247.754,405.079C249.413,404.664 253.447,402.519 255.601,401.389C256.021,401.279 256.44,401.127 256.888,400.803C256.993,400.727 257.028,400.692 257.006,400.692C256.94,400.692 256.4,400.971 255.601,401.389C254.894,401.575 254.186,401.641 253.338,402.215C251.988,403.127 241.61,404.871 241.61,404.871L243.312,403.837C243.312,403.837 242.114,403.623 241.166,403.623C240.855,403.623 240.57,403.647 240.365,403.708C240.111,403.784 239.729,403.838 239.38,403.838C238.588,403.838 237.969,403.564 239.41,402.671C240.474,402.011 243.95,399.616 247.052,397.467C250.128,395.727 252.295,393.863 252.488,393.703C252.491,393.7 252.492,393.699 252.492,393.699C252.47,393.699 249.922,395.478 247.052,397.467C246.139,397.983 245.146,398.488 244.101,398.935C239.535,400.886 235.465,401.633 235.258,401.757C235.253,401.76 235.249,401.761 235.246,401.761C235.11,401.761 236.379,399.242 238.122,398.229C239.566,397.39 241.117,394.627 240.98,394.627C240.947,394.627 240.819,394.783 240.572,395.157C239.285,397.108 235.839,397.647 235.175,398.188C235.098,398.25 235.035,398.277 234.981,398.277C234.778,398.277 234.725,397.881 234.696,397.485C234.668,397.089 234.664,396.693 234.56,396.693L234.552,396.693C234.396,396.718 232.23,398.869 231.847,398.869C231.619,398.869 232.021,398.11 233.846,395.697C237.778,390.499 238.02,386.237 237.812,386.237C237.76,386.237 237.682,386.495 237.625,387.061C237.336,389.909 233.642,394.561 233.312,394.561L233.307,394.561C233.302,394.56 233.297,394.559 233.292,394.559C232.971,394.559 231.592,396.205 230.857,396.891C230.344,397.368 229.792,397.508 229.483,397.508C229.342,397.508 229.251,397.479 229.238,397.439C229.2,397.327 228.381,394.561 227.949,394.561C227.904,394.561 227.862,394.591 227.827,394.658C227.458,395.353 227.009,399.518 226.871,399.518C226.869,399.518 226.867,399.517 226.865,399.516C226.734,399.392 226.705,398.727 226.853,397.315C226.891,396.946 226.839,396.801 226.737,396.801C226.447,396.801 225.747,397.957 225.502,398.478C225.303,398.898 225.091,399.201 224.723,399.201C224.473,399.201 224.152,399.062 223.716,398.727C223.402,398.485 223.165,398.387 222.998,398.387C222.593,398.387 222.603,398.962 222.925,399.434C223.123,399.724 222.998,399.871 222.722,399.871C222.366,399.871 221.758,399.626 221.267,399.125C220.718,398.564 220.103,398.223 219.889,398.223C219.763,398.223 219.775,398.341 220.021,398.603C220.646,399.265 223.106,402.461 222.914,402.461C222.902,402.461 222.879,402.448 222.845,402.421C222.46,402.119 219.231,398.955 217.337,397.108C218.173,396.902 218.454,396.624 218.793,396.624C218.966,396.624 219.155,396.697 219.44,396.891C220.437,397.564 218.693,397.439 221.62,397.688C222.855,397.794 223.592,397.914 224.109,397.914C224.818,397.914 225.118,397.689 225.73,396.891C226.789,395.51 226.976,394.451 226.789,393.144C226.691,392.459 225.861,391.434 225.011,390.488C224.136,389.288 223.682,388.652 224.671,388.015C225.834,387.268 227.245,385.026 226.498,384.611C225.751,384.196 223.177,384.113 223.011,382.203C222.845,380.293 219.025,378.136 219.357,377.387C219.689,376.64 222.263,376.807 223.509,374.979C224.323,373.785 224.891,372.839 225.546,372.839C225.892,372.839 226.262,373.103 226.707,373.734C227.747,375.212 228.707,375.929 229.695,375.929C229.928,375.929 230.163,375.889 230.401,375.81C231.646,375.395 232.477,375.395 233.473,374.813C234.469,374.232 237.043,372.073 230.982,371.908C230.706,371.901 230.443,371.887 230.194,371.868C231.157,371.607 232.253,371.265 232.642,370.974C233.336,370.452 234.567,368.699 235.736,368.699C235.826,368.699 235.916,368.709 236.005,368.731C236.937,368.964 238.007,369.405 238.774,369.405C239.033,369.405 239.258,369.355 239.431,369.229C240.115,368.731 240.489,367.419 240.365,366.642C240.24,365.867 239.929,365.192 240.115,364.907C240.141,364.868 240.191,364.853 240.26,364.853C240.388,364.853 240.579,364.905 240.796,364.956C241.014,365.008 241.256,365.059 241.486,365.059C241.825,365.059 242.135,364.948 242.295,364.56C242.731,363.5 243.665,362.255 242.295,361.632C240.925,361.009 241.299,361.756 239.618,360.386C237.936,359.016 237.5,358.207 237.438,357.833C237.398,357.598 237.704,357.125 238.045,356.524C238.135,356.653 238.243,356.772 238.372,356.878C239.286,357.626 239.687,357.46 240.44,358.124C241.195,358.787 241.942,360.117 243.437,360.698C244.417,361.078 244.897,361.245 245.368,361.245C245.617,361.245 245.863,361.199 246.178,361.113C247.09,360.863 248.004,360.698 249.083,360.614C250.163,360.532 251.326,359.868 251.99,358.871C252.654,357.874 253.899,357.46 254.563,356.962C255.228,356.463 253.899,354.221 254.563,353.059C255.228,351.896 257.967,352.478 255.56,351.232C253.152,349.986 251.159,348.077 252.488,346.333C252.711,346.04 252.932,345.841 253.144,345.708C253.533,346.001 253.925,346.344 254.065,346.623C254.202,346.897 254.627,346.978 255.091,346.978C255.682,346.978 256.336,346.846 256.532,346.81C256.881,346.748 257.178,345.938 257.739,345.44C257.812,345.376 257.89,345.347 257.971,345.347C258.522,345.347 259.252,346.65 259.794,347.246C259.915,347.38 260.023,347.438 260.122,347.438C260.528,347.438 260.788,346.465 261.289,345.814C261.911,345.005 259.358,344.507 258.734,344.507C258.113,344.507 258.549,343.386 258.362,342.575C258.174,341.766 257.739,341.144 257.217,341.144C256.696,341.144 257.055,340.333 255.996,340.333C254.937,340.333 255.498,341.144 254.626,341.704C254.541,341.758 254.476,341.783 254.424,341.783C253.945,341.783 254.712,339.643 253.193,339.587C253.081,339.583 252.976,339.581 252.878,339.581C251.742,339.581 251.508,339.841 251.461,339.931C251.553,339.685 252.16,338.011 251.698,337.78C251.2,337.531 251.823,336.722 252.82,335.851C253.816,334.978 253.505,334.729 252.757,333.483C252.01,332.239 253.193,332.052 253.567,330.993C253.893,330.07 252.561,329.62 251.471,329.62C251.311,329.62 251.157,329.629 251.014,329.648C250.946,329.657 250.881,329.662 250.817,329.662C250.343,329.662 249.983,329.422 249.533,329.183C249.084,328.943 248.546,328.704 247.716,328.704C247.654,328.704 247.591,328.705 247.526,328.708C245.596,328.791 244.848,328.751 243.977,329.249C243.81,329.344 243.666,329.383 243.538,329.383C243.269,329.383 243.067,329.214 242.865,329.045C242.663,328.876 242.46,328.708 242.19,328.708L242.171,328.708C241.485,328.729 241.112,329.249 240.536,329.648C240.442,329.714 240.319,329.742 240.178,329.742C239.459,329.742 238.279,329.004 238.122,328.708C237.936,328.355 234.013,326.634 234.013,326.634C234.013,326.634 232.892,326.82 231.584,326.82C230.276,326.82 231.522,326.073 231.459,325.383C231.417,324.916 230.778,324.514 230.049,324.514C229.7,324.514 229.33,324.606 228.996,324.828C227.964,325.513 227.848,325.824 227.163,325.887C227.071,325.895 226.965,325.898 226.849,325.898C226.737,325.898 226.614,325.895 226.484,325.893C226.354,325.89 226.216,325.888 226.072,325.888C225.399,325.888 224.604,325.944 223.924,326.322C222.803,326.944 222.866,327.443 222.554,328.439C222.243,329.436 220.998,329.498 220.81,329.883C220.639,330.236 220.835,331.14 222.51,331.14C222.658,331.14 222.818,331.133 222.99,331.118C224.05,331.025 224.33,330.884 224.438,330.884C224.547,330.884 224.485,331.024 224.858,331.49C225.096,331.788 225.441,331.915 225.835,331.915C226.679,331.915 227.749,331.331 228.471,330.588C228.956,330.087 229.705,329.883 230.638,329.883C231.736,329.883 233.091,330.167 234.573,330.588C237.313,331.367 235.009,331.615 234.324,331.883C233.663,332.141 234.913,332.926 236.145,332.926C236.191,332.926 236.237,332.925 236.282,332.923C236.298,332.922 236.314,332.922 236.33,332.922C237.58,332.922 238.576,335.312 239.991,337.096C240.598,337.862 241.027,338.045 241.407,338.045C241.581,338.045 241.746,338.006 241.913,337.968C242.079,337.929 242.249,337.89 242.433,337.89C242.609,337.89 242.799,337.925 243.013,338.029C243.095,338.069 243.181,338.088 243.271,338.088C243.843,338.088 244.56,337.34 245.266,336.592C245.972,335.844 246.666,335.096 247.192,335.096C247.221,335.096 247.25,335.098 247.277,335.103C247.346,335.114 247.412,335.119 247.477,335.119C248.473,335.119 249.041,333.842 249.35,333.608C249.624,333.401 251.029,333.02 251.382,333.02C251.452,333.02 251.48,333.036 251.449,333.07C251.263,333.28 250.952,333.857 250.066,334.729C249.18,335.601 248.335,336.349 248.025,337.905C247.895,338.556 248.189,338.706 248.591,338.706C248.763,338.706 248.955,338.678 249.142,338.651C249.328,338.623 249.51,338.595 249.661,338.595C249.849,338.595 249.991,338.638 250.037,338.777C250.243,339.399 249.332,339.462 248.273,339.462C247.215,339.462 246.53,340.085 246.156,340.521C245.783,340.957 246.032,341.641 246.778,342.078C247.526,342.514 247.713,342.903 247.713,342.903C247.713,342.903 247.776,343.697 248.585,344.008C248.877,344.12 249.112,344.265 249.306,344.448C249.211,344.475 249.109,344.495 249,344.507C248.164,344.599 247.094,344.9 246.197,344.9C245.491,344.9 244.892,344.714 244.6,344.092C244.316,343.49 244.244,343.233 244.016,343.233C243.758,343.233 243.299,343.562 242.109,344.092C239.867,345.087 240.365,345.337 239.535,347.246C239.073,348.309 238.971,348.934 238.814,349.295C238.772,348.509 238.61,347.742 237.998,347.246C237.883,347.153 237.756,347.044 237.618,346.923C237.986,345.194 237.58,344.034 238.206,343.095C238.87,342.099 239.535,341.102 238.206,340.687C238.085,340.649 237.968,340.632 237.855,340.632C237.474,340.632 237.136,340.819 236.827,341.005C236.517,341.191 236.235,341.377 235.967,341.377C235.708,341.377 235.463,341.203 235.217,340.687C234.386,338.943 234.055,338.611 232.726,337.199C231.397,335.788 232.393,335.953 229.653,335.373C226.913,334.792 226.997,334.211 225.751,333.629C225.505,333.514 225.15,333.468 224.735,333.468C223.043,333.468 220.355,334.244 220.022,334.377C219.679,334.514 219.788,336.906 219.326,336.907C219.227,336.907 219.102,336.798 218.942,336.535C218.112,335.178 220.435,333.75 217.504,333.75C217.209,333.75 216.861,333.764 216.451,333.795C211.967,334.127 212.797,334.958 212.466,336.867C212.133,338.777 211.386,339.856 209.726,341.02C209.283,341.329 208.782,341.461 208.294,341.461C207.973,341.461 207.658,341.404 207.369,341.302C208.441,338.444 209.717,335.719 211.174,333.157C211.209,333.175 211.245,333.185 211.283,333.185C211.389,333.185 211.51,333.109 211.656,332.923C212.341,332.052 213.652,331.18 214.024,331.18C214.396,331.18 217.385,329.56 218.444,329.436C219.503,329.311 220.685,329.311 220.249,328.315C219.845,327.389 219.547,325.923 218.706,325.923C218.643,325.923 218.576,325.932 218.506,325.949C217.747,326.139 216.916,326.798 216.425,326.798C216.272,326.798 216.152,326.734 216.078,326.57C216.011,326.424 215.901,326.366 215.766,326.366L215.758,326.366C218.855,322.478 222.441,319.152 226.393,316.534C230.179,315.605 234.134,315.112 238.206,315.112C265.472,315.112 287.577,337.217 287.577,364.483C287.577,391.751 265.472,413.855 238.206,413.855ZM264.791,400.168C264.733,400.168 263.802,401.288 263.032,401.925C262.82,402.1 262.766,402.175 262.823,402.175C263.022,402.175 264.578,401.264 265.482,400.554C266.645,399.64 266.81,399.434 267.599,399.225C267.648,399.212 267.691,399.206 267.729,399.206C267.97,399.206 267.998,399.446 267.988,399.687C267.978,399.928 267.93,400.169 268.017,400.169C268.05,400.169 268.102,400.135 268.181,400.056C268.72,399.516 268.637,398.395 269.26,398.313C269.883,398.229 270.132,397.937 270.256,397.522C270.381,397.108 271.045,396.817 271.294,396.693C271.543,396.568 270.63,396.193 271.294,395.821C271.958,395.447 271.626,395.653 272.456,395.198C273.288,394.741 273.412,395.073 274.45,393.247C275.017,392.248 275.076,391.857 274.856,391.857C274.674,391.857 274.301,392.126 273.869,392.54C273.179,393.201 272.662,394.057 272.381,394.057C272.273,394.057 272.201,393.931 272.166,393.62C272.042,392.5 272.415,391.54 272.415,391.397C272.415,391.39 272.412,391.388 272.406,391.388C272.256,391.388 270.463,392.897 269.509,393.454C269.355,393.544 269.237,393.583 269.147,393.583C268.653,393.583 268.995,392.41 268.888,391.918C268.816,391.587 268.38,391.255 268.042,391.255C267.787,391.255 267.587,391.443 267.641,391.961C267.765,393.164 267.932,394.824 267.475,394.866C267.46,394.867 267.448,394.869 267.438,394.87C267.581,394.829 267.859,394.634 266.022,393.952C264.542,393.403 263.858,393.128 263.52,393.128C263.271,393.128 263.21,393.279 263.157,393.579C263.032,394.284 263.614,395.157 265.191,395.571C266.769,395.986 268.098,396.651 266.894,397.108C266.606,397.217 266.432,397.253 266.313,397.253C266.202,397.253 266.138,397.222 266.075,397.19C266.011,397.159 265.947,397.128 265.835,397.128C265.678,397.128 265.425,397.19 264.942,397.398C263.577,397.989 262.507,399.202 263.102,399.202C263.177,399.202 263.277,399.183 263.406,399.142C264.568,398.768 265.606,398.478 265.814,398.478C266.021,398.478 264.671,400.379 264.666,400.387C264.768,400.234 264.805,400.168 264.791,400.168ZM259.419,390.81C259.816,390.81 260.108,390.85 260.168,391.149C260.203,391.327 260.334,391.397 260.51,391.397C260.95,391.397 261.67,390.955 261.849,390.674C262.099,390.278 262.97,388.784 262.845,388.1C262.721,387.413 262.721,387.04 263.22,386.791C263.718,386.541 263.78,385.919 263.593,384.674C263.537,384.302 263.587,384.157 263.626,384.108C263.637,384.105 263.646,384.102 263.651,384.099C263.665,384.092 263.665,384.085 263.658,384.085C263.652,384.085 263.639,384.091 263.626,384.108C263.611,384.111 263.591,384.114 263.565,384.114C263.412,384.114 263.041,384.035 262.223,383.614C260.312,382.632 260.075,381.888 259.292,381.888C259.181,381.888 259.061,381.903 258.923,381.934C258.292,382.074 257.745,382.331 257.314,382.331C256.978,382.331 256.713,382.175 256.532,381.685C256.12,380.564 255.958,380.439 256.256,380.003C256.556,379.567 257.489,379.41 257.553,377.932C257.614,376.453 258.113,376.079 258.424,375.208C258.638,374.611 258.588,373.342 258.114,372.281C258.116,371.948 258.199,371.731 258.528,371.731C258.781,371.731 259.178,371.858 259.794,372.156C261.539,373.001 262.368,373.578 263.006,373.578C263.309,373.578 263.569,373.448 263.863,373.153C264.186,372.831 264.353,372.808 264.471,372.808C264.48,372.808 264.49,372.808 264.499,372.809L264.525,372.809C264.7,372.809 264.786,372.745 265.274,371.326C266.105,368.918 264.195,367.424 265.274,366.261C266.354,365.099 265.358,364.352 267.102,364.269C268.845,364.185 267.185,363.437 265.441,362.69C263.697,361.943 263.282,361.029 263.282,360.199C263.282,359.369 263.365,358.705 263.78,358.207C264.195,357.708 263.282,357.542 262.118,357.335C260.957,357.127 261.372,356.962 260.54,355.799C260.312,355.478 260.019,355.353 259.726,355.353C258.959,355.353 258.187,356.209 258.549,356.629C259.025,357.183 261.01,359.552 259.605,359.552C259.539,359.552 259.463,359.547 259.379,359.535C257.553,359.287 256.224,357.708 255.892,357.708C255.56,357.708 252.701,358.123 252.701,358.123C252.701,358.123 251.575,360.548 249.831,361.245C249.149,361.519 250.08,362.69 248.834,363.521C247.674,364.295 246.37,365.788 245.66,365.788C245.607,365.788 245.558,365.78 245.513,365.763C245.45,365.739 245.387,365.728 245.325,365.728C244.737,365.728 244.279,366.715 245.18,367.091C245.222,367.108 245.262,367.127 245.3,367.146C245.126,367.519 244.958,367.891 244.673,367.984C244.101,368.172 244.537,368.679 244.039,369.359C243.54,370.039 243.17,369.541 243.013,370.475C242.856,371.409 243.417,372.219 243.79,373.028C244.164,373.838 244.91,374.71 245.533,375.208C245.999,375.581 246.464,376.093 246.774,376.093C246.878,376.093 246.965,376.035 247.028,375.894C247.087,375.76 247.218,375.705 247.394,375.705C247.959,375.705 248.994,376.263 249.706,376.588C250.64,377.014 251.014,377.853 251.698,377.932C252.379,378.01 252.936,379.464 252.578,379.464L252.57,379.464C252.282,379.448 251.845,378.627 251.402,378.627C251.272,378.627 251.141,378.698 251.014,378.882C250.453,379.691 249.644,381.125 250.08,381.809C250.444,382.382 250.591,383.435 251.432,383.435C251.596,383.435 251.787,383.395 252.01,383.304C252.239,383.21 252.453,383.17 252.65,383.17C253.633,383.17 254.221,384.155 254.376,384.363C254.394,384.387 254.425,384.397 254.467,384.397C254.659,384.397 255.08,384.17 255.498,383.943C255.915,383.715 256.328,383.488 256.504,383.488C256.514,383.488 256.523,383.489 256.532,383.49C256.868,383.553 256.368,384.307 257.366,384.397C257.491,384.409 257.616,384.413 257.737,384.413C257.876,384.413 258.01,384.408 258.135,384.402C258.26,384.397 258.376,384.392 258.479,384.392C258.89,384.392 259.088,384.476 258.798,384.985C258.299,385.857 258.174,385.981 256.868,386.169C255.56,386.354 254.812,388.908 255.435,389.531C256.058,390.153 256.93,390.32 257.926,390.674C258.269,390.795 258.627,390.815 258.954,390.815C259.036,390.815 259.117,390.814 259.195,390.813C259.273,390.811 259.347,390.81 259.419,390.81ZM268.484,385.423C267.989,385.423 267.627,385.715 267.434,387.02C267.102,389.261 269.046,390.674 269.046,390.674C269.046,390.674 271.502,390.423 272.001,389.095C272.499,387.767 274.117,387.02 274.429,386.52C274.741,386.022 276.318,383.366 276.567,381.705C276.816,380.045 275.902,377.969 276.567,377.055C277.231,376.143 278.976,375.645 278.892,374.066C278.809,372.488 278.061,370.495 276.567,370.495C275.073,370.495 274.076,369.333 273.827,368.918C273.578,368.503 272.084,368.254 272.084,368.254C269.758,368.254 269.746,370.081 269.046,371.16C268.347,372.239 267.766,373.484 267.268,373.567C266.769,373.65 265.773,374.564 266.354,375.727C266.936,376.89 268.181,376.815 268.181,377.932C268.181,378.533 267.789,378.714 267.325,378.714C266.928,378.714 266.479,378.582 266.177,378.467C266.06,378.422 265.937,378.402 265.815,378.402C265.253,378.402 264.694,378.835 264.694,379.381C264.694,380.045 265.773,380.958 265.108,381.29C264.542,381.573 264.519,382.824 265.041,382.824C265.131,382.824 265.236,382.787 265.358,382.702C266.004,382.249 266.841,381.496 267.419,381.496C267.585,381.496 267.728,381.557 267.841,381.705C268.347,382.369 266.422,383.283 267.841,383.532C268.138,383.584 268.402,383.607 268.638,383.607C269.528,383.607 270.012,383.279 270.34,382.951C270.469,382.822 270.614,382.781 270.776,382.781C270.914,382.781 271.065,382.812 271.228,382.842C271.391,382.872 271.566,382.902 271.752,382.902C271.859,382.902 271.969,382.893 272.084,382.867C272.831,382.702 274.159,380.294 274.741,380.211C274.748,380.21 274.755,380.209 274.762,380.209C275.253,380.209 272.657,383.294 272.084,384.113C271.531,384.901 270.954,385.615 269.915,385.615C269.859,385.615 269.803,385.613 269.745,385.608C269.264,385.574 268.84,385.423 268.484,385.423ZM285.125,376.279C284.963,376.534 284.876,376.657 284.924,376.657C284.932,376.657 284.943,376.654 284.958,376.647C285.037,376.614 285.091,376.481 285.125,376.279C285.698,375.38 287.216,372.84 287.075,368.323C286.889,362.325 286.142,362.2 286.142,362.2C285.207,362.449 284.896,362.947 285.082,364.255C285.269,365.563 285.477,367.556 285.031,367.866C284.584,368.178 284.833,368.178 284.646,369.361C284.46,370.545 284.211,371.104 284.646,372.164C285.004,373.032 285.278,375.364 285.125,376.279ZM269.289,359.124C268.93,359.124 268.878,360.035 269.777,360.947C271.004,362.192 271.918,361.943 272.748,362.441C273.295,362.77 273.662,363.278 274.253,363.279C274.558,363.279 274.924,363.142 275.405,362.774C276.816,361.693 277.231,360.947 278.061,360.365C278.892,359.784 277.813,357.46 278.644,357.335C279.474,357.21 280.138,356.712 279.639,355.799C279.142,354.886 279.39,353.308 277.563,353.06C275.806,352.819 273.992,351.142 273.467,351.142C273.447,351.142 273.428,351.144 273.412,351.149C272.696,351.379 272.665,352.228 272.084,352.893C271.502,353.558 270.423,354.636 270.008,354.969C269.592,355.301 269.758,356.796 270.34,357.335C270.921,357.874 271.17,359.037 270.838,359.12C270.597,359.18 270.507,359.94 270.214,359.94C270.104,359.94 269.964,359.832 269.777,359.535C269.594,359.246 269.421,359.124 269.289,359.124ZM284.403,357.45C284.504,357.45 284.602,357.492 284.696,357.599C285.194,358.16 285.505,357.839 285.817,358.217C285.939,358.366 286.081,358.504 286.2,358.504C286.384,358.504 286.515,358.173 286.439,357.039C286.315,355.17 285.942,354.485 285.88,353.737C285.817,352.991 285.568,353.737 284.945,352.929C284.323,352.118 283.451,351.746 283.451,351.746C282.828,352.244 282.33,352.804 283.015,353.302C283.7,353.8 284.136,354.734 283.762,354.921C283.448,355.078 283.371,355.691 282.959,355.691C282.881,355.691 282.791,355.669 282.685,355.618C282.553,355.555 282.424,355.525 282.304,355.525C281.814,355.525 281.481,356.015 281.831,356.665C282.267,357.475 282.198,357.536 282.793,358.098C282.882,358.181 282.973,358.216 283.065,358.216C283.284,358.216 283.512,358.024 283.738,357.833C283.965,357.641 284.19,357.45 284.403,357.45ZM269.93,338.697C270.305,338.697 270.634,338.867 270.879,339.275C271.44,340.209 270.443,340.957 271.378,341.828C272.312,342.7 273.308,343.759 273.059,344.132C272.828,344.479 273.933,344.825 274.345,344.825C274.377,344.825 274.406,344.823 274.429,344.818C274.741,344.756 274.18,341.828 274.741,341.579C274.81,341.548 274.871,341.535 274.927,341.535C275.324,341.535 275.432,342.225 275.923,342.39C275.984,342.41 276.057,342.42 276.141,342.42C276.84,342.42 278.241,341.737 278.352,340.458C278.477,339.026 277.542,337.158 276.422,336.971C276.299,336.95 276.207,336.942 276.137,336.942C275.961,336.942 275.917,336.994 275.863,337.047C275.81,337.099 275.747,337.151 275.534,337.151C275.261,337.151 274.742,337.065 273.682,336.784C270.63,335.976 268.957,334.105 269.046,333.608C269.136,333.109 269.883,332.923 267.392,332.239C264.996,331.579 265.21,330.583 264.271,330.583C264.234,330.583 264.195,330.585 264.154,330.588C264.122,330.59 264.09,330.591 264.057,330.591C263.964,330.591 263.868,330.583 263.771,330.575C263.675,330.566 263.579,330.558 263.488,330.558C263.19,330.558 262.944,330.647 262.908,331.118C262.854,331.812 262.71,332.689 262.355,332.689C262.296,332.689 262.232,332.665 262.161,332.612C261.713,332.278 261.788,331.579 261.281,331.579C261.222,331.579 261.157,331.589 261.083,331.608C260.355,331.802 260.379,333.234 261.083,333.547C261.786,333.857 262.227,335.041 262.35,335.601C262.472,336.162 263.282,338.154 263.469,338.591C263.655,339.026 264.278,339.462 264.154,339.774C264.12,339.858 264.141,339.906 264.204,339.906C264.375,339.906 264.854,339.561 265.399,338.652C265.923,337.779 266.355,337.181 266.696,337.181C266.841,337.181 266.969,337.289 267.081,337.531C267.392,338.208 267.352,339.577 267.911,339.577C268.022,339.577 268.157,339.523 268.322,339.399C268.885,338.979 269.447,338.697 269.93,338.697ZM229.177,331.883C229.04,331.883 228.896,331.907 228.75,331.958C227.598,332.363 227.536,333.328 227.972,333.951C228.12,334.162 228.393,334.259 228.701,334.259C229.3,334.259 230.029,333.893 230.214,333.297C230.449,332.538 229.9,331.883 229.177,331.883ZM260.315,328.708C259.221,328.708 259.151,329.565 259.794,330.121C260.146,330.424 260.578,330.589 260.946,330.589C261.295,330.589 261.587,330.44 261.694,330.121C261.911,329.468 261.193,328.781 260.54,328.719C260.462,328.711 260.385,328.708 260.315,328.708ZM261.239,323.351C261.001,323.351 261.028,323.487 261.372,323.831C262.369,324.828 263.946,325.658 263.531,326.405C263.157,327.078 264.196,327.414 265.436,327.414C265.574,327.414 265.715,327.41 265.856,327.401C267.268,327.319 269.246,327.069 267.841,325.99C266.437,324.91 265.108,324.329 265.108,324.329C263.097,323.84 261.691,323.351 261.239,323.351ZM256.747,319.64C256.411,319.64 256.29,319.865 256.587,320.063C256.999,320.338 257.627,320.443 257.898,320.443C257.935,320.443 257.966,320.441 257.988,320.437C258.174,320.406 257.396,319.752 256.93,319.659C256.864,319.646 256.803,319.64 256.747,319.64ZM239.603,318.837C239.564,318.837 239.527,318.841 239.493,318.85C239.069,318.958 238.671,319.099 238.973,319.441C239.172,319.668 239.609,319.84 239.98,319.84C240.17,319.84 240.342,319.795 240.458,319.69C240.774,319.402 240.06,318.837 239.603,318.837ZM249.811,318.528C249.346,318.528 249.185,319.038 249.55,319.338C249.675,319.441 249.869,319.487 250.064,319.487C250.596,319.487 251.132,319.141 250.266,318.662C250.094,318.567 249.941,318.528 249.811,318.528ZM217.394,401.859C216.668,401.037 215.967,400.188 215.289,399.31C215.814,398.932 216.265,398.472 216.513,398.437C216.949,398.374 214.396,397.501 216.513,397.253C216.559,397.248 216.603,397.242 216.646,397.236L218.527,401.467C218.527,401.467 218.131,401.685 217.394,401.859ZM209.845,390.637C209.269,389.491 208.726,388.316 208.221,387.116C208.343,387.107 208.469,387.103 208.6,387.103C209.56,387.103 210.473,386.272 209.643,385.275C208.812,384.278 207.899,382.536 207.899,382.536C207.899,382.536 210.805,383.781 211.303,384.528C211.496,384.818 211.864,384.883 212.247,384.883C212.403,384.883 212.561,384.872 212.711,384.862C212.861,384.851 213.002,384.84 213.125,384.84C213.356,384.84 213.52,384.878 213.544,385.026C213.582,385.249 213.602,385.62 213.606,386C212.485,385.815 211.606,385.701 211.229,385.701C211.117,385.701 211.05,385.711 211.033,385.732C210.784,386.043 211.344,389.344 211.344,389.344C210.161,389.344 209.913,389.904 209.85,390.591C209.849,390.606 209.847,390.621 209.845,390.637Z" style="fill:rgb(108,110,111);fill-rule:nonzero;"/>
    </g>
    <g transform="matrix(4.16667,0,0,4.16667,-786.813,-1312.97)">
        <path d="M215.289,399.31C213.24,396.657 211.413,393.751 209.845,390.637C209.847,390.621 209.849,390.606 209.85,390.591C209.913,389.904 210.161,389.344 211.344,389.344C211.344,389.344 210.784,386.043 211.033,385.732C211.05,385.711 211.117,385.701 211.229,385.701C211.606,385.701 212.485,385.815 213.606,386C213.611,386.471 213.591,386.955 213.544,387.186C213.462,387.601 211.967,388.597 211.967,389.012C211.967,389.428 213.628,392.085 214.458,392.832C214.534,392.9 214.604,392.93 214.67,392.93C214.918,392.93 215.1,392.5 215.263,392.07C215.426,391.64 215.57,391.21 215.743,391.21C215.853,391.21 215.974,391.382 216.119,391.835C216.783,393.912 216.451,395.903 217.779,396.319C217.931,396.367 218.089,396.387 218.252,396.387C218.736,396.387 219.26,396.207 219.767,396.027C220.273,395.848 220.764,395.668 221.182,395.668C221.434,395.668 221.661,395.733 221.848,395.904C222.348,396.358 223.247,396.838 224.039,396.838C224.694,396.838 225.276,396.511 225.502,395.571C226,393.496 226.664,392.832 225.502,391.171C225.329,390.924 225.164,390.697 225.011,390.488C225.861,391.434 226.691,392.459 226.789,393.144C226.976,394.451 226.789,395.51 225.73,396.891C225.118,397.689 224.818,397.914 224.109,397.914C223.592,397.914 222.855,397.794 221.62,397.688C218.693,397.439 220.437,397.564 219.44,396.891C219.155,396.697 218.966,396.624 218.793,396.624C218.454,396.624 218.173,396.902 217.337,397.108C216.541,396.331 215.981,395.787 215.968,395.787C215.965,395.787 215.987,395.811 216.036,395.862L216.646,397.236C216.603,397.242 216.559,397.248 216.513,397.253C214.396,397.501 216.949,398.374 216.513,398.437C216.265,398.472 215.814,398.932 215.289,399.31Z" style="fill:rgb(100,103,104);fill-rule:nonzero;"/>
    </g>
    <g transform="matrix(4.16667,0,0,4.16667,-786.813,-1312.97)">
        <path d="M230.194,371.868C224.968,371.464 225.472,368.573 226.582,366.593C227.744,364.518 229.653,364.518 229.653,364.518C229.653,364.518 226,362.359 225.917,361.943C225.834,361.528 223.426,360.532 227.827,358.954C232.227,357.377 229.986,355.467 228.74,355.135C227.495,354.802 224.09,353.391 224.92,351.564C225.751,349.737 227.495,347.828 228.408,347.828C229.321,347.828 231.895,346.333 233.473,345.503C233.733,345.366 233.907,345.305 234.023,345.305C234.605,345.305 233.687,346.843 234.874,347.744C235.565,348.269 236.097,348.617 236.518,348.617C236.964,348.617 237.286,348.228 237.542,347.246C237.571,347.136 237.596,347.028 237.618,346.923C237.756,347.044 237.883,347.153 237.998,347.246C238.61,347.742 238.772,348.509 238.814,349.295C238.688,349.582 238.528,349.7 238.123,349.737C237.209,349.819 236.462,350.485 236.296,351.149C236.13,351.813 237.459,352.727 237.542,353.724C237.613,354.579 237.501,355.74 238.045,356.524C237.704,357.125 237.398,357.598 237.438,357.833C237.5,358.207 237.936,359.016 239.618,360.386C241.299,361.756 240.925,361.009 242.295,361.632C243.665,362.255 242.731,363.5 242.295,364.56C242.135,364.948 241.825,365.059 241.486,365.059C241.256,365.059 241.014,365.008 240.796,364.956C240.579,364.905 240.388,364.853 240.26,364.853C240.191,364.853 240.141,364.868 240.115,364.907C239.929,365.192 240.24,365.867 240.365,366.642C240.489,367.419 240.115,368.731 239.431,369.229C239.258,369.355 239.033,369.405 238.774,369.405C238.007,369.405 236.937,368.964 236.005,368.731C235.916,368.709 235.826,368.699 235.736,368.699C234.567,368.699 233.336,370.452 232.642,370.974C232.253,371.265 231.157,371.607 230.194,371.868Z" style="fill:rgb(100,103,104);fill-rule:nonzero;"/>
    </g>
    <g transform="matrix(4.16667,0,0,4.16667,-786.813,-1312.97)">
        <path d="M260.122,347.438C260.023,347.438 259.915,347.38 259.794,347.246C259.252,346.65 258.522,345.347 257.971,345.347C257.89,345.347 257.812,345.376 257.739,345.44C257.178,345.938 256.881,346.748 256.532,346.81C256.336,346.846 255.682,346.978 255.091,346.978C254.627,346.978 254.202,346.897 254.065,346.623C253.925,346.344 253.533,346.001 253.144,345.708C253.458,345.511 253.754,345.457 254.013,345.457C254.167,345.457 254.307,345.476 254.431,345.495C254.555,345.514 254.661,345.532 254.747,345.532C254.916,345.532 255.003,345.46 254.979,345.171C254.895,344.175 252.903,343.178 251.74,342.929C251.66,342.911 251.584,342.903 251.513,342.903C250.634,342.903 250.422,344.134 249.306,344.448C249.112,344.265 248.877,344.12 248.585,344.008C247.776,343.697 247.713,342.903 247.713,342.903C247.713,342.903 247.526,342.514 246.778,342.078C246.032,341.641 245.783,340.957 246.156,340.521C246.53,340.085 247.215,339.462 248.273,339.462C249.332,339.462 250.243,339.399 250.037,338.777C249.991,338.638 249.849,338.595 249.661,338.595C249.51,338.595 249.328,338.623 249.142,338.651C248.955,338.678 248.763,338.706 248.591,338.706C248.189,338.706 247.895,338.556 248.025,337.905C248.335,336.349 249.18,335.601 250.066,334.729C250.952,333.857 251.263,333.28 251.449,333.07C251.48,333.036 251.452,333.02 251.382,333.02C251.029,333.02 249.624,333.401 249.35,333.608C249.041,333.842 248.473,335.119 247.477,335.119C247.412,335.119 247.346,335.114 247.277,335.103C247.25,335.098 247.221,335.096 247.192,335.096C246.666,335.096 245.972,335.844 245.266,336.592C244.56,337.34 243.843,338.088 243.271,338.088C243.181,338.088 243.095,338.069 243.013,338.029C242.799,337.925 242.609,337.89 242.433,337.89C242.249,337.89 242.079,337.929 241.913,337.968C241.746,338.006 241.581,338.045 241.407,338.045C241.027,338.045 240.598,337.862 239.991,337.096C238.576,335.312 237.58,332.922 236.33,332.922C236.314,332.922 236.298,332.922 236.282,332.923C236.237,332.925 236.191,332.926 236.145,332.926C234.913,332.926 233.663,332.141 234.324,331.883C235.009,331.615 237.313,331.367 234.573,330.588C233.091,330.167 231.736,329.883 230.638,329.883C229.705,329.883 228.956,330.087 228.471,330.588C227.749,331.331 226.679,331.915 225.835,331.915C225.441,331.915 225.096,331.788 224.858,331.49C224.485,331.024 224.547,330.884 224.438,330.884C224.33,330.884 224.05,331.025 222.99,331.118C222.818,331.133 222.658,331.14 222.51,331.14C220.835,331.14 220.639,330.236 220.81,329.883C220.998,329.498 222.243,329.436 222.554,328.439C222.866,327.443 222.803,326.944 223.924,326.322C224.604,325.944 225.399,325.888 226.072,325.888C226.216,325.888 226.354,325.89 226.484,325.893C226.614,325.895 226.737,325.898 226.849,325.898C226.965,325.898 227.071,325.895 227.163,325.887C227.848,325.824 227.964,325.513 228.996,324.828C229.33,324.606 229.7,324.514 230.049,324.514C230.778,324.514 231.417,324.916 231.459,325.383C231.522,326.073 230.276,326.82 231.584,326.82C232.892,326.82 234.013,326.634 234.013,326.634C234.013,326.634 237.936,328.355 238.122,328.708C238.279,329.004 239.459,329.742 240.178,329.742C240.319,329.742 240.442,329.714 240.536,329.648C241.112,329.249 241.485,328.729 242.171,328.708L242.19,328.708C242.46,328.708 242.663,328.876 242.865,329.045C243.067,329.214 243.269,329.383 243.538,329.383C243.666,329.383 243.81,329.344 243.977,329.249C244.848,328.751 245.596,328.791 247.526,328.708C247.591,328.705 247.654,328.704 247.716,328.704C248.546,328.704 249.084,328.943 249.533,329.183C249.983,329.422 250.343,329.662 250.817,329.662C250.881,329.662 250.946,329.657 251.014,329.648C251.157,329.629 251.311,329.62 251.471,329.62C252.561,329.62 253.893,330.07 253.567,330.993C253.193,332.052 252.01,332.239 252.757,333.483C253.505,334.729 253.816,334.978 252.82,335.851C251.823,336.722 251.2,337.531 251.698,337.78C252.16,338.011 251.553,339.685 251.461,339.931C251.508,339.841 251.742,339.581 252.878,339.581C252.976,339.581 253.081,339.583 253.193,339.587C254.712,339.643 253.945,341.783 254.424,341.783C254.476,341.783 254.541,341.758 254.626,341.704C255.498,341.144 254.937,340.333 255.996,340.333C257.055,340.333 256.696,341.144 257.217,341.144C257.739,341.144 258.174,341.766 258.362,342.575C258.549,343.386 258.113,344.507 258.734,344.507C259.358,344.507 261.911,345.005 261.289,345.814C260.788,346.465 260.528,347.438 260.122,347.438Z" style="fill:rgb(100,103,104);fill-rule:nonzero;"/>
    </g>
    <g transform="matrix(4.16667,0,0,4.16667,-786.813,-1312.97)">
        <path d="M274.345,344.825C273.933,344.825 272.828,344.479 273.059,344.132C273.308,343.759 272.312,342.7 271.378,341.828C270.443,340.957 271.44,340.209 270.879,339.275C270.634,338.867 270.305,338.697 269.93,338.697C269.447,338.697 268.885,338.979 268.322,339.399C268.157,339.523 268.022,339.577 267.911,339.577C267.352,339.577 267.392,338.208 267.081,337.531C266.969,337.289 266.841,337.181 266.696,337.181C266.355,337.181 265.923,337.779 265.399,338.652C264.854,339.561 264.375,339.906 264.204,339.906C264.141,339.906 264.12,339.858 264.154,339.774C264.278,339.462 263.655,339.026 263.469,338.591C263.282,338.154 262.472,336.162 262.35,335.601C262.227,335.041 261.786,333.857 261.083,333.547C260.379,333.234 260.355,331.802 261.083,331.608C261.157,331.589 261.222,331.579 261.281,331.579C261.788,331.579 261.713,332.278 262.161,332.612C262.232,332.665 262.296,332.689 262.355,332.689C262.71,332.689 262.854,331.812 262.908,331.118C262.944,330.647 263.19,330.558 263.488,330.558C263.579,330.558 263.675,330.566 263.771,330.575C263.868,330.583 263.964,330.591 264.057,330.591C264.09,330.591 264.122,330.59 264.154,330.588C264.195,330.585 264.234,330.583 264.271,330.583C265.21,330.583 264.996,331.579 267.392,332.239C269.883,332.923 269.136,333.109 269.046,333.608C268.957,334.105 270.63,335.976 273.682,336.784C274.742,337.065 275.261,337.151 275.534,337.151C275.747,337.151 275.81,337.099 275.863,337.047C275.917,336.994 275.961,336.942 276.137,336.942C276.207,336.942 276.299,336.95 276.422,336.971C277.542,337.158 278.477,339.026 278.352,340.458C278.241,341.737 276.84,342.42 276.141,342.42C276.057,342.42 275.984,342.41 275.923,342.39C275.432,342.225 275.324,341.535 274.927,341.535C274.871,341.535 274.81,341.548 274.741,341.579C274.18,341.828 274.741,344.756 274.429,344.818C274.406,344.823 274.377,344.825 274.345,344.825Z" style="fill:rgb(100,103,104);fill-rule:nonzero;"/>
    </g>
    <g transform="matrix(4.16667,0,0,4.16667,-786.813,-1312.97)">
        <path d="M286.2,358.504C286.081,358.504 285.939,358.366 285.817,358.217C285.505,357.839 285.194,358.16 284.696,357.599C284.602,357.492 284.504,357.45 284.403,357.45C284.19,357.45 283.965,357.641 283.738,357.833C283.512,358.024 283.284,358.216 283.065,358.216C282.973,358.216 282.882,358.181 282.793,358.098C282.198,357.536 282.267,357.475 281.831,356.665C281.481,356.015 281.814,355.525 282.304,355.525C282.424,355.525 282.553,355.555 282.685,355.618C282.791,355.669 282.881,355.691 282.959,355.691C283.371,355.691 283.448,355.078 283.762,354.921C284.136,354.734 283.7,353.8 283.015,353.302C282.33,352.804 282.828,352.244 283.451,351.746C283.451,351.746 284.323,352.118 284.945,352.929C285.568,353.737 285.817,352.991 285.88,353.737C285.942,354.485 286.315,355.17 286.439,357.039C286.515,358.173 286.384,358.504 286.2,358.504Z" style="fill:rgb(100,103,104);fill-rule:nonzero;"/>
    </g>
    <g transform="matrix(4.16667,0,0,4.16667,-786.813,-1312.97)">
        <path d="M284.924,376.657C284.876,376.657 284.963,376.534 285.125,376.279C285.091,376.481 285.037,376.614 284.958,376.647C284.943,376.654 284.932,376.657 284.924,376.657ZM285.125,376.279C285.278,375.364 285.004,373.032 284.646,372.164C284.211,371.104 284.46,370.545 284.646,369.361C284.833,368.178 284.584,368.178 285.031,367.866C285.477,367.556 285.269,365.563 285.082,364.255C284.896,362.947 285.207,362.449 286.142,362.2C286.142,362.2 286.889,362.325 287.075,368.323C287.216,372.84 285.698,375.38 285.125,376.279Z" style="fill:rgb(100,103,104);fill-rule:nonzero;"/>
    </g>
    <g transform="matrix(4.16667,0,0,4.16667,-786.813,-1312.97)">
        <path d="M260.51,391.397C260.334,391.397 260.203,391.327 260.168,391.149C260.108,390.85 259.816,390.81 259.419,390.81C259.347,390.81 259.273,390.811 259.195,390.813C259.117,390.814 259.036,390.815 258.954,390.815C258.627,390.815 258.269,390.795 257.926,390.674C256.93,390.32 256.058,390.153 255.435,389.531C254.812,388.908 255.56,386.354 256.868,386.169C258.174,385.981 258.299,385.857 258.798,384.985C259.088,384.476 258.89,384.392 258.479,384.392C258.376,384.392 258.26,384.397 258.135,384.402C258.01,384.408 257.876,384.413 257.737,384.413C257.616,384.413 257.491,384.409 257.366,384.397C256.368,384.307 256.868,383.553 256.532,383.49C256.523,383.489 256.514,383.488 256.504,383.488C256.328,383.488 255.915,383.715 255.498,383.943C255.08,384.17 254.659,384.397 254.467,384.397C254.425,384.397 254.394,384.387 254.376,384.363C254.221,384.155 253.633,383.17 252.65,383.17C252.453,383.17 252.239,383.21 252.01,383.304C251.787,383.395 251.596,383.435 251.432,383.435C250.591,383.435 250.444,382.382 250.08,381.809C249.644,381.125 250.453,379.691 251.014,378.882C251.141,378.698 251.272,378.627 251.402,378.627C251.845,378.627 252.282,379.448 252.57,379.464L252.578,379.464C252.936,379.464 252.379,378.01 251.698,377.932C251.014,377.853 250.64,377.014 249.706,376.588C248.994,376.263 247.959,375.705 247.394,375.705C247.218,375.705 247.087,375.76 247.028,375.894C246.965,376.035 246.878,376.093 246.774,376.093C246.464,376.093 245.999,375.581 245.533,375.208C244.91,374.71 244.164,373.838 243.79,373.028C243.417,372.219 242.856,371.409 243.013,370.475C243.17,369.541 243.54,370.039 244.039,369.359C244.537,368.679 244.101,368.172 244.673,367.984C244.958,367.891 245.126,367.519 245.3,367.146C246.175,367.59 246.15,368.54 246.407,369.417C246.675,370.329 247.256,372.988 248.087,373.318C248.917,373.65 248.253,375.311 249.416,375.395C250.578,375.477 251.99,376.059 252.072,376.807C252.123,377.267 252.364,377.38 252.657,377.38C252.84,377.38 253.044,377.336 253.235,377.305C253.249,377.302 253.264,377.301 253.28,377.301C253.462,377.301 253.747,377.459 254.07,377.616C254.393,377.774 254.753,377.931 255.085,377.931C255.398,377.931 255.685,377.791 255.892,377.38C256.557,376.059 257.801,375.645 258.134,374.148C258.282,373.479 258.114,372.76 258.114,372.281C258.588,373.342 258.638,374.611 258.424,375.208C258.113,376.079 257.614,376.453 257.553,377.932C257.489,379.41 256.556,379.567 256.256,380.003C255.958,380.439 256.12,380.564 256.532,381.685C256.713,382.175 256.978,382.331 257.314,382.331C257.745,382.331 258.292,382.074 258.923,381.934C259.061,381.903 259.181,381.888 259.292,381.888C260.075,381.888 260.312,382.632 262.223,383.614C263.041,384.035 263.412,384.114 263.565,384.114C263.591,384.114 263.611,384.111 263.626,384.108C263.587,384.157 263.537,384.302 263.593,384.674C263.78,385.919 263.718,386.541 263.22,386.791C262.721,387.04 262.721,387.413 262.845,388.1C262.97,388.784 262.099,390.278 261.849,390.674C261.67,390.955 260.95,391.397 260.51,391.397ZM263.626,384.108C263.639,384.091 263.652,384.085 263.658,384.085C263.665,384.085 263.665,384.092 263.651,384.099C263.646,384.102 263.637,384.105 263.626,384.108Z" style="fill:rgb(100,103,104);fill-rule:nonzero;"/>
    </g>
    <g transform="matrix(4.16667,0,0,4.16667,-786.813,-1312.97)">
        <path d="M211.283,333.185C211.245,333.185 211.209,333.175 211.174,333.157C212.547,330.742 214.081,328.472 215.758,326.366L215.766,326.366C215.901,326.366 216.011,326.424 216.078,326.57C216.152,326.734 216.272,326.798 216.425,326.798C216.916,326.798 217.747,326.139 218.506,325.949C218.576,325.932 218.643,325.923 218.706,325.923C219.547,325.923 219.845,327.389 220.249,328.315C220.685,329.311 219.503,329.311 218.444,329.436C217.385,329.56 214.396,331.18 214.024,331.18C213.652,331.18 212.341,332.052 211.656,332.923C211.51,333.109 211.389,333.185 211.283,333.185Z" style="fill:rgb(100,103,104);fill-rule:nonzero;"/>
    </g>
    <g transform="matrix(4.16667,0,0,4.16667,-786.813,-1312.97)">
        <path d="M224.039,396.838C223.247,396.838 222.348,396.358 221.848,395.904C221.661,395.733 221.434,395.668 221.182,395.668C220.764,395.668 220.273,395.848 219.767,396.027C219.26,396.207 218.736,396.387 218.252,396.387C218.089,396.387 217.931,396.367 217.779,396.319C216.451,395.903 216.783,393.912 216.119,391.835C215.974,391.382 215.853,391.21 215.743,391.21C215.57,391.21 215.426,391.64 215.263,392.07C215.1,392.5 214.918,392.93 214.67,392.93C214.604,392.93 214.534,392.9 214.458,392.832C213.628,392.085 211.967,389.428 211.967,389.012C211.967,388.597 213.462,387.601 213.544,387.186C213.591,386.955 213.611,386.471 213.606,386C213.602,385.62 213.582,385.249 213.544,385.026C213.52,384.878 213.356,384.84 213.125,384.84C213.002,384.84 212.861,384.851 212.711,384.862C212.561,384.872 212.403,384.883 212.247,384.883C211.864,384.883 211.496,384.818 211.303,384.528C210.805,383.781 207.899,382.536 207.899,382.536C207.899,382.536 208.812,384.278 209.643,385.275C210.473,386.272 209.56,387.103 208.6,387.103C208.469,387.103 208.343,387.107 208.221,387.116C205.189,379.912 203.481,371.765 203.481,363.138C203.481,355.354 204.871,347.964 207.369,341.302C207.658,341.404 207.973,341.461 208.294,341.461C208.782,341.461 209.283,341.329 209.726,341.02C211.386,339.856 212.133,338.777 212.466,336.867C212.797,334.958 211.967,334.127 216.451,333.795C216.861,333.764 217.209,333.75 217.504,333.75C220.435,333.75 218.112,335.178 218.942,336.535C219.102,336.798 219.227,336.907 219.326,336.907C219.788,336.906 219.679,334.514 220.022,334.377C220.355,334.244 223.043,333.468 224.735,333.468C225.15,333.468 225.505,333.514 225.751,333.629C226.997,334.211 226.913,334.792 229.653,335.373C232.393,335.953 231.397,335.788 232.726,337.199C234.055,338.611 234.386,338.943 235.217,340.687C235.463,341.203 235.708,341.377 235.967,341.377C236.235,341.377 236.517,341.191 236.827,341.005C237.136,340.819 237.474,340.632 237.855,340.632C237.968,340.632 238.085,340.649 238.206,340.687C239.535,341.102 238.87,342.099 238.206,343.095C237.58,344.034 237.986,345.194 237.618,346.923C237.596,347.028 237.571,347.136 237.542,347.246C237.286,348.228 236.964,348.617 236.518,348.617C236.097,348.617 235.565,348.269 234.874,347.744C233.687,346.843 234.605,345.305 234.023,345.305C233.907,345.305 233.733,345.366 233.473,345.503C231.895,346.333 229.321,347.828 228.408,347.828C227.495,347.828 225.751,349.737 224.92,351.564C224.09,353.391 227.495,354.802 228.74,355.135C229.986,355.467 232.227,357.377 227.827,358.954C223.426,360.532 225.834,361.528 225.917,361.943C226,362.359 229.653,364.518 229.653,364.518C229.653,364.518 227.744,364.518 226.582,366.593C225.472,368.573 224.968,371.464 230.194,371.868C230.443,371.887 230.706,371.901 230.982,371.908C237.043,372.073 234.469,374.232 233.473,374.813C232.477,375.395 231.646,375.395 230.401,375.81C230.163,375.889 229.928,375.929 229.695,375.929C228.707,375.929 227.747,375.212 226.707,373.734C226.262,373.103 225.892,372.839 225.546,372.839C224.891,372.839 224.323,373.785 223.509,374.979C222.263,376.807 219.689,376.64 219.357,377.387C219.025,378.136 222.845,380.293 223.011,382.203C223.177,384.113 225.751,384.196 226.498,384.611C227.245,385.026 225.834,387.268 224.671,388.015C223.682,388.652 224.136,389.288 225.011,390.488C225.164,390.697 225.329,390.924 225.502,391.171C226.664,392.832 226,393.496 225.502,395.571C225.276,396.511 224.694,396.838 224.039,396.838ZM215.581,363.137C214.778,363.137 214.055,363.392 214.024,364.185C214.002,364.746 212.964,364.341 212.839,364.907C212.715,365.473 212.922,365.929 212.673,365.971C212.424,366.011 213.503,366.261 213.545,366.634C213.582,366.961 213.395,367.767 214.155,367.767C214.264,367.767 214.391,367.75 214.542,367.714C215.746,367.424 215.413,366.967 216.659,366.634C217.904,366.303 218.278,364.102 217.655,363.645C217.338,363.413 216.416,363.137 215.581,363.137Z" style="fill:rgb(98,102,101);fill-rule:nonzero;"/>
    </g>
    <g transform="matrix(4.16667,0,0,4.16667,-786.813,-1312.97)">
        <path d="M245.368,361.245C244.897,361.245 244.417,361.078 243.437,360.698C241.942,360.117 241.195,358.787 240.44,358.124C239.687,357.46 239.286,357.626 238.372,356.878C238.243,356.772 238.135,356.653 238.045,356.524C237.501,355.74 237.613,354.579 237.542,353.724C237.459,352.727 236.13,351.813 236.296,351.149C236.462,350.485 237.209,349.819 238.123,349.737C238.528,349.7 238.688,349.582 238.814,349.295C238.971,348.934 239.073,348.309 239.535,347.246C240.365,345.337 239.867,345.087 242.109,344.092C243.299,343.562 243.758,343.233 244.016,343.233C244.244,343.233 244.316,343.49 244.6,344.092C244.892,344.714 245.491,344.9 246.197,344.9C247.094,344.9 248.164,344.599 249,344.507C249.109,344.495 249.211,344.475 249.306,344.448C250.422,344.134 250.634,342.903 251.513,342.903C251.584,342.903 251.66,342.911 251.74,342.929C252.903,343.178 254.895,344.175 254.979,345.171C255.003,345.46 254.916,345.532 254.747,345.532C254.661,345.532 254.555,345.514 254.431,345.495C254.307,345.476 254.167,345.457 254.013,345.457C253.754,345.457 253.458,345.511 253.144,345.708C252.932,345.841 252.711,346.04 252.488,346.333C251.159,348.077 253.152,349.986 255.56,351.232C257.967,352.478 255.228,351.896 254.563,353.059C253.899,354.221 255.228,356.463 254.563,356.962C253.899,357.46 252.654,357.874 251.99,358.871C251.326,359.868 250.163,360.532 249.083,360.614C248.004,360.698 247.09,360.863 246.178,361.113C245.863,361.199 245.617,361.245 245.368,361.245Z" style="fill:rgb(98,102,101);fill-rule:nonzero;"/>
    </g>
    <g transform="matrix(4.16667,0,0,4.16667,-786.813,-1312.97)">
        <path d="M255.085,377.931C254.753,377.931 254.393,377.774 254.07,377.616C253.747,377.459 253.462,377.301 253.28,377.301C253.264,377.301 253.249,377.302 253.235,377.305C253.044,377.336 252.84,377.38 252.657,377.38C252.364,377.38 252.123,377.267 252.072,376.807C251.99,376.059 250.578,375.477 249.416,375.395C248.253,375.311 248.917,373.65 248.087,373.318C247.256,372.988 246.675,370.329 246.407,369.417C246.15,368.54 246.175,367.59 245.3,367.146C245.262,367.127 245.222,367.108 245.18,367.091C244.279,366.715 244.737,365.728 245.325,365.728C245.387,365.728 245.45,365.739 245.513,365.763C245.558,365.78 245.607,365.788 245.66,365.788C246.37,365.788 247.674,364.295 248.834,363.521C250.08,362.69 249.149,361.519 249.831,361.245C251.575,360.548 252.701,358.123 252.701,358.123C252.701,358.123 255.56,357.708 255.892,357.708C256.224,357.708 257.553,359.287 259.379,359.535C259.463,359.547 259.539,359.552 259.605,359.552C261.01,359.552 259.025,357.183 258.549,356.629C258.187,356.209 258.959,355.353 259.726,355.353C260.019,355.353 260.312,355.478 260.54,355.799C261.372,356.962 260.957,357.127 262.118,357.335C263.282,357.542 264.195,357.708 263.78,358.207C263.365,358.705 263.282,359.369 263.282,360.199C263.282,361.029 263.697,361.943 265.441,362.69C267.185,363.437 268.845,364.185 267.102,364.269C265.358,364.352 266.354,365.099 265.274,366.261C264.195,367.424 266.105,368.918 265.274,371.326C264.786,372.745 264.7,372.809 264.525,372.809L264.499,372.809C264.49,372.808 264.48,372.808 264.471,372.808C264.353,372.808 264.186,372.831 263.863,373.153C263.569,373.448 263.309,373.578 263.006,373.578C262.368,373.578 261.539,373.001 259.794,372.156C259.178,371.858 258.781,371.731 258.528,371.731C258.199,371.731 258.116,371.948 258.114,372.281C258.114,372.76 258.282,373.479 258.134,374.148C257.801,375.645 256.557,376.059 255.892,377.38C255.685,377.791 255.398,377.931 255.085,377.931Z" style="fill:rgb(98,102,101);fill-rule:nonzero;"/>
    </g>
    <g transform="matrix(4.16667,0,0,4.16667,-786.813,-1312.97)">
        <path d="M274.253,363.279C273.662,363.278 273.295,362.77 272.748,362.441C271.918,361.943 271.004,362.192 269.777,360.947C268.878,360.035 268.93,359.124 269.289,359.124C269.421,359.124 269.594,359.246 269.777,359.535C269.964,359.832 270.104,359.94 270.214,359.94C270.507,359.94 270.597,359.18 270.838,359.12C271.17,359.037 270.921,357.874 270.34,357.335C269.758,356.796 269.592,355.301 270.008,354.969C270.423,354.636 271.502,353.558 272.084,352.893C272.665,352.228 272.696,351.379 273.412,351.149C273.428,351.144 273.447,351.142 273.467,351.142C273.992,351.142 275.806,352.819 277.563,353.06C279.39,353.308 279.142,354.886 279.639,355.799C280.138,356.712 279.474,357.21 278.644,357.335C277.813,357.46 278.892,359.784 278.061,360.365C277.231,360.947 276.816,361.693 275.405,362.774C274.924,363.142 274.558,363.279 274.253,363.279Z" style="fill:rgb(98,102,101);fill-rule:nonzero;"/>
    </g>
    <g transform="matrix(4.16667,0,0,4.16667,-786.813,-1312.97)">
        <path d="M269.046,390.674C269.046,390.674 267.102,389.261 267.434,387.02C267.627,385.715 267.989,385.423 268.484,385.423C268.84,385.423 269.264,385.574 269.745,385.608C269.803,385.613 269.859,385.615 269.915,385.615C270.954,385.615 271.531,384.901 272.084,384.113C272.657,383.294 275.253,380.209 274.762,380.209C274.755,380.209 274.748,380.21 274.741,380.211C274.159,380.294 272.831,382.702 272.084,382.867C271.969,382.893 271.859,382.902 271.752,382.902C271.566,382.902 271.391,382.872 271.228,382.842C271.065,382.812 270.914,382.781 270.776,382.781C270.614,382.781 270.469,382.822 270.34,382.951C270.012,383.279 269.528,383.607 268.638,383.607C268.402,383.607 268.138,383.584 267.841,383.532C266.422,383.283 268.347,382.369 267.841,381.705C267.728,381.557 267.585,381.496 267.419,381.496C266.841,381.496 266.004,382.249 265.358,382.702C265.236,382.787 265.131,382.824 265.041,382.824C264.519,382.824 264.542,381.573 265.108,381.29C265.773,380.958 264.694,380.045 264.694,379.381C264.694,378.835 265.253,378.402 265.815,378.402C265.937,378.402 266.06,378.422 266.177,378.467C266.479,378.582 266.928,378.714 267.325,378.714C267.789,378.714 268.181,378.533 268.181,377.932C268.181,376.815 266.936,376.89 266.354,375.727C265.773,374.564 266.769,373.65 267.268,373.567C267.766,373.484 268.347,372.239 269.046,371.16C269.746,370.081 269.758,368.254 272.084,368.254C272.084,368.254 273.578,368.503 273.827,368.918C274.076,369.333 275.073,370.495 276.567,370.495C278.061,370.495 278.809,372.488 278.892,374.066C278.976,375.645 277.231,376.143 276.567,377.055C275.902,377.969 276.816,380.045 276.567,381.705C276.318,383.366 274.741,386.022 274.429,386.52C274.117,387.02 272.499,387.767 272.001,389.095C271.502,390.423 269.046,390.674 269.046,390.674Z" style="fill:rgb(98,102,101);fill-rule:nonzero;"/>
    </g>
    <g transform="matrix(4.16667,0,0,4.16667,-786.813,-1312.97)">
        <path d="M265.436,327.414C264.196,327.414 263.157,327.078 263.531,326.405C263.946,325.658 262.369,324.828 261.372,323.831C261.028,323.487 261.001,323.351 261.239,323.351C261.691,323.351 263.097,323.84 265.108,324.329C265.108,324.329 266.437,324.91 267.841,325.99C269.246,327.069 267.268,327.319 265.856,327.401C265.715,327.41 265.574,327.414 265.436,327.414Z" style="fill:rgb(98,102,101);fill-rule:nonzero;"/>
    </g>
    <g transform="matrix(4.16667,0,0,4.16667,-786.813,-1312.97)">
        <path d="M228.701,334.259C228.393,334.259 228.12,334.162 227.972,333.951C227.536,333.328 227.598,332.363 228.75,331.958C228.896,331.907 229.04,331.883 229.177,331.883C229.9,331.883 230.449,332.538 230.214,333.297C230.029,333.893 229.3,334.259 228.701,334.259Z" style="fill:rgb(98,102,101);fill-rule:nonzero;"/>
    </g>
    <g transform="matrix(4.16667,0,0,4.16667,-786.813,-1312.97)">
        <path d="M239.98,319.84C239.609,319.84 239.172,319.668 238.973,319.441C238.671,319.099 239.069,318.958 239.493,318.85C239.527,318.841 239.564,318.837 239.603,318.837C240.06,318.837 240.774,319.402 240.458,319.69C240.342,319.795 240.17,319.84 239.98,319.84Z" style="fill:rgb(98,102,101);fill-rule:nonzero;"/>
    </g>
    <g transform="matrix(4.16667,0,0,4.16667,-786.813,-1312.97)">
        <path d="M250.064,319.487C249.869,319.487 249.675,319.441 249.55,319.338C249.185,319.038 249.346,318.528 249.811,318.528C249.941,318.528 250.094,318.567 250.266,318.662C251.132,319.141 250.596,319.487 250.064,319.487Z" style="fill:rgb(98,102,101);fill-rule:nonzero;"/>
    </g>
    <g transform="matrix(4.16667,0,0,4.16667,-786.813,-1312.97)">
        <path d="M257.898,320.443C257.627,320.443 256.999,320.338 256.587,320.063C256.29,319.865 256.411,319.64 256.747,319.64C256.803,319.64 256.864,319.646 256.93,319.659C257.396,319.752 258.174,320.406 257.988,320.437C257.966,320.441 257.935,320.443 257.898,320.443Z" style="fill:rgb(98,102,101);fill-rule:nonzero;"/>
    </g>
    <g transform="matrix(4.16667,0,0,4.16667,-786.813,-1312.97)">
        <path d="M260.946,330.589C260.578,330.589 260.146,330.424 259.794,330.121C259.151,329.565 259.221,328.708 260.315,328.708C260.385,328.708 260.462,328.711 260.54,328.719C261.193,328.781 261.911,329.468 261.694,330.121C261.587,330.44 261.295,330.589 260.946,330.589Z" style="fill:rgb(98,102,101);fill-rule:nonzero;"/>
    </g>
    <g transform="matrix(4.16667,0,0,4.16667,-786.813,-1312.97)">
        <path d="M238.006,412.916C236.117,412.916 233.828,412.865 231.612,412.678C226.295,410.182 221.479,406.483 217.394,401.859C218.131,401.685 218.527,401.467 218.527,401.467L216.646,397.236L216.036,395.862C215.987,395.811 215.965,395.787 215.968,395.787C215.981,395.787 216.541,396.331 217.337,397.108C219.231,398.955 222.46,402.119 222.845,402.421C222.879,402.448 222.902,402.461 222.914,402.461C223.106,402.461 220.646,399.265 220.021,398.603C219.775,398.341 219.763,398.223 219.889,398.223C220.103,398.223 220.718,398.564 221.267,399.125C221.758,399.626 222.366,399.871 222.722,399.871C222.998,399.871 223.123,399.724 222.925,399.434C222.603,398.962 222.593,398.387 222.998,398.387C223.165,398.387 223.402,398.485 223.716,398.727C224.152,399.062 224.473,399.201 224.723,399.201C225.091,399.201 225.303,398.898 225.502,398.478C225.747,397.957 226.447,396.801 226.737,396.801C226.839,396.801 226.891,396.946 226.853,397.315C226.705,398.727 226.734,399.392 226.865,399.516C226.867,399.517 226.869,399.518 226.871,399.518C227.009,399.518 227.458,395.353 227.827,394.658C227.862,394.591 227.904,394.561 227.949,394.561C228.381,394.561 229.2,397.327 229.238,397.439C229.251,397.479 229.342,397.508 229.483,397.508C229.792,397.508 230.344,397.368 230.857,396.891C231.592,396.205 232.971,394.559 233.292,394.559C233.297,394.559 233.302,394.56 233.307,394.561L233.312,394.561C233.642,394.561 237.336,389.909 237.625,387.061C237.682,386.495 237.76,386.237 237.812,386.237C238.02,386.237 237.778,390.499 233.846,395.697C232.021,398.11 231.619,398.869 231.847,398.869C232.23,398.869 234.396,396.718 234.552,396.693L234.56,396.693C234.664,396.693 234.668,397.089 234.696,397.485C234.725,397.881 234.778,398.277 234.981,398.277C235.035,398.277 235.098,398.25 235.175,398.188C235.839,397.647 239.285,397.108 240.572,395.157C240.819,394.783 240.947,394.627 240.98,394.627C241.117,394.627 239.566,397.39 238.122,398.229C236.379,399.242 235.11,401.761 235.246,401.761C235.249,401.761 235.253,401.76 235.258,401.757C235.465,401.633 239.535,400.886 244.101,398.935C245.146,398.488 246.139,397.983 247.052,397.467C243.95,399.616 240.474,402.011 239.41,402.671C237.969,403.564 238.588,403.838 239.38,403.838C239.729,403.838 240.111,403.784 240.365,403.708C240.57,403.647 240.855,403.623 241.166,403.623C242.114,403.623 243.312,403.837 243.312,403.837L241.61,404.871C241.61,404.871 251.988,403.127 253.338,402.215C254.186,401.641 254.894,401.575 255.601,401.389C253.447,402.519 249.413,404.664 247.754,405.079C245.264,405.702 242.689,405.951 242.482,406.241C242.274,406.532 243.063,407.32 243.769,407.32C244.315,407.32 246.027,407.742 247.083,407.742C247.392,407.742 247.645,407.706 247.796,407.612C248.46,407.196 255.062,405.702 257.428,404.331C259.794,402.961 261.995,401.385 262.244,401.135C262.283,401.096 262.327,401.079 262.372,401.079C262.617,401.079 262.876,401.605 262.244,402.131C261.497,402.754 259.959,404.331 258.174,404.871C256.39,405.411 253.152,406.49 252.114,407.072C251.111,407.633 248.405,409.279 249.418,409.279C249.454,409.279 249.494,409.277 249.54,409.272C250.868,409.147 255.435,408.026 255.435,408.026C255.435,408.026 252.653,410.018 250.661,410.518C248.668,411.016 247.298,411.805 245.596,412.179C243.894,412.553 243.188,412.843 242.274,412.843C241.97,412.843 240.275,412.916 238.006,412.916ZM255.601,401.389C256.4,400.971 256.94,400.692 257.006,400.692C257.028,400.692 256.993,400.727 256.888,400.803C256.44,401.127 256.021,401.279 255.601,401.389ZM247.052,397.467C249.922,395.478 252.47,393.699 252.492,393.699C252.492,393.699 252.491,393.7 252.488,393.703C252.295,393.863 250.128,395.727 247.052,397.467Z" style="fill:rgb(112,114,115);fill-rule:nonzero;"/>
    </g>
    <g transform="matrix(4.16667,0,0,4.16667,-786.813,-1312.97)">
        <path d="M214.155,367.767C213.395,367.767 213.582,366.961 213.545,366.634C213.503,366.261 212.424,366.011 212.673,365.971C212.922,365.929 212.715,365.473 212.839,364.907C212.964,364.341 214.002,364.746 214.024,364.185C214.055,363.392 214.778,363.137 215.581,363.137C216.416,363.137 217.338,363.413 217.655,363.645C218.278,364.102 217.904,366.303 216.659,366.634C215.413,366.967 215.746,367.424 214.542,367.714C214.391,367.75 214.264,367.767 214.155,367.767Z" style="fill:rgb(112,114,115);fill-rule:nonzero;"/>
    </g>
    <g transform="matrix(4.16667,0,0,4.16667,-786.813,-1312.97)">
        <path d="M262.823,402.175C262.766,402.175 262.82,402.1 263.032,401.925C263.802,401.288 264.733,400.168 264.791,400.168C264.805,400.168 264.768,400.234 264.666,400.387C264.671,400.379 266.021,398.478 265.814,398.478C265.606,398.478 264.568,398.768 263.406,399.142C263.277,399.183 263.177,399.202 263.102,399.202C262.507,399.202 263.577,397.989 264.942,397.398C265.425,397.19 265.678,397.128 265.835,397.128C265.947,397.128 266.011,397.159 266.075,397.19C266.138,397.222 266.202,397.253 266.313,397.253C266.432,397.253 266.606,397.217 266.894,397.108C268.098,396.651 266.769,395.986 265.191,395.571C263.614,395.157 263.032,394.284 263.157,393.579C263.21,393.279 263.271,393.128 263.52,393.128C263.858,393.128 264.542,393.403 266.022,393.952C267.859,394.634 267.581,394.829 267.438,394.87C267.448,394.869 267.46,394.867 267.475,394.866C267.932,394.824 267.765,393.164 267.641,391.961C267.587,391.443 267.787,391.255 268.042,391.255C268.38,391.255 268.816,391.587 268.888,391.918C268.995,392.41 268.653,393.583 269.147,393.583C269.237,393.583 269.355,393.544 269.509,393.454C270.463,392.897 272.256,391.388 272.406,391.388C272.412,391.388 272.415,391.39 272.415,391.397C272.415,391.54 272.042,392.5 272.166,393.62C272.201,393.931 272.273,394.057 272.381,394.057C272.662,394.057 273.179,393.201 273.869,392.54C274.301,392.126 274.674,391.857 274.856,391.857C275.076,391.857 275.017,392.248 274.45,393.247C273.412,395.073 273.288,394.741 272.456,395.198C271.626,395.653 271.958,395.447 271.294,395.821C270.63,396.193 271.543,396.568 271.294,396.693C271.045,396.817 270.381,397.108 270.256,397.522C270.132,397.937 269.883,398.229 269.26,398.313C268.637,398.395 268.72,399.516 268.181,400.056C268.102,400.135 268.05,400.169 268.017,400.169C267.93,400.169 267.978,399.928 267.988,399.687C267.998,399.446 267.97,399.206 267.729,399.206C267.691,399.206 267.648,399.212 267.599,399.225C266.81,399.434 266.645,399.64 265.482,400.554C264.578,401.264 263.022,402.175 262.823,402.175Z" style="fill:rgb(112,114,115);fill-rule:nonzero;"/>
    </g>
</svg>
