<?xml version="1.0" encoding="UTF-8" standalone="no"?>
<!DOCTYPE svg PUBLIC "-//W3C//DTD SVG 1.1//EN" "http://www.w3.org/Graphics/SVG/1.1/DTD/svg11.dtd">
<svg width="100%" height="100%" viewBox="0 0 412 412" version="1.1" xmlns="http://www.w3.org/2000/svg" xmlns:xlink="http://www.w3.org/1999/xlink" xml:space="preserve" xmlns:serif="http://www.serif.com/" style="fill-rule:evenodd;clip-rule:evenodd;stroke-linejoin:round;stroke-miterlimit:2;">
    <g transform="matrix(4.16667,0,0,4.16667,-786.813,-1874.35)">
        <path d="M188.835,499.215C188.835,471.948 210.939,449.844 238.206,449.844C265.472,449.844 287.577,471.948 287.577,499.215C287.577,526.482 265.472,548.586 238.206,548.586C210.939,548.586 188.835,526.482 188.835,499.215Z" style="fill:rgb(206,208,210);fill-rule:nonzero;"/>
    </g>
    <g transform="matrix(4.16667,0,0,4.16667,-786.813,-1874.35)">
        <path d="M211.344,524.075C210.161,524.075 209.913,524.636 209.85,525.322C209.788,526.006 209.352,526.442 209.103,526.754C208.854,527.064 209.103,528.311 209.85,528.622C210.598,528.934 211.967,529.058 211.344,529.867C210.722,530.677 210.039,530.76 210.256,531.622C210.473,532.482 211.407,533.168 212.03,533.479C212.652,533.79 213.029,534.476 214.024,534.537C215.019,534.6 216.078,533.23 216.513,533.168C216.949,533.105 214.396,532.232 216.513,531.984C218.631,531.736 218.444,530.947 219.44,531.622C220.437,532.296 218.693,532.171 221.62,532.42C224.547,532.67 224.671,533.003 225.73,531.622C226.789,530.241 226.976,529.183 226.789,527.875C226.602,526.566 223.737,524.014 223.177,523.143C222.616,522.271 211.282,520.152 211.033,520.464C210.784,520.774 211.344,524.075 211.344,524.075Z" style="fill:rgb(160,163,164);fill-rule:nonzero;"/>
    </g>
    <g transform="matrix(4.16667,0,0,4.16667,-786.813,-1874.35)">
        <path d="M226.166,498.01C225.854,498.916 225.854,500.037 225.792,500.972C225.73,501.906 225.356,504.646 225.792,505.206C226.228,505.767 228.533,507.012 228.533,507.012C228.533,507.012 231.895,506.265 232.642,505.705C233.39,505.144 234.76,503.151 236.005,503.463C237.251,503.773 238.745,504.459 239.431,503.961C240.115,503.463 240.489,502.15 240.365,501.373C240.24,500.599 239.929,499.924 240.115,499.639C240.302,499.353 241.859,500.35 242.295,499.291C242.731,498.231 243.665,496.986 242.295,496.363C240.925,495.74 241.299,496.487 239.618,495.117C237.936,493.747 237.5,492.938 237.438,492.564C237.375,492.191 238.185,491.216 238.621,490.084C239.057,488.953 239.387,487.458 238.973,486.398C238.559,485.341 239.306,483.037 237.998,481.978C236.69,480.92 233.826,477.806 232.393,478.241C230.961,478.677 222.99,479.362 222.99,486.462C222.99,493.561 226.166,498.01 226.166,498.01Z" style="fill:rgb(160,163,164);fill-rule:nonzero;"/>
    </g>
    <g transform="matrix(4.16667,0,0,4.16667,-786.813,-1874.35)">
        <path d="M250.037,480.546C249.768,479.611 249.395,479.051 248.585,478.739C247.776,478.429 247.713,477.635 247.713,477.635C247.713,477.635 247.526,477.245 246.778,476.81C246.032,476.372 245.783,475.688 246.156,475.252C246.53,474.816 247.215,474.193 248.273,474.193C249.333,474.193 250.243,474.131 250.037,473.509C249.83,472.886 247.714,474.193 248.025,472.637C248.335,471.08 249.18,470.332 250.066,469.461C250.952,468.589 251.263,468.012 251.449,467.802C251.636,467.593 249.678,468.091 249.35,468.34C249.021,468.589 248.398,470.021 247.277,469.834C246.156,469.647 244.167,473.322 243.013,472.761C241.859,472.201 241.423,473.633 239.991,471.827C238.559,470.021 237.555,467.593 236.282,467.654C235.009,467.717 233.639,466.882 234.324,466.614C235.009,466.347 237.313,466.099 234.573,465.319C231.833,464.541 229.528,464.229 228.471,465.319C227.412,466.409 225.605,467.156 224.858,466.222C224.111,465.288 225.107,465.663 222.99,465.85C220.873,466.036 220.624,464.999 220.81,464.614C220.998,464.229 222.243,464.167 222.554,463.171C222.866,462.175 222.803,461.676 223.924,461.054C225.045,460.431 226.477,460.681 227.163,460.618C227.848,460.556 227.964,460.244 228.996,459.56C230.027,458.874 231.397,459.424 231.459,460.114C231.522,460.805 230.276,461.552 231.584,461.552C232.892,461.552 234.013,461.365 234.013,461.365C234.013,461.365 237.936,463.087 238.123,463.439C238.31,463.793 239.96,464.779 240.536,464.38C241.112,463.98 241.485,463.46 242.171,463.439C242.856,463.42 243.105,464.479 243.977,463.98C244.848,463.482 245.596,463.522 247.526,463.439C249.457,463.358 249.892,464.53 251.014,464.38C252.135,464.229 253.941,464.666 253.567,465.725C253.193,466.783 252.01,466.971 252.757,468.215C253.505,469.461 253.816,469.71 252.82,470.582C251.823,471.453 251.2,472.263 251.698,472.512C252.197,472.761 251.449,474.692 251.449,474.692C251.449,474.692 251.512,474.256 253.193,474.318C254.875,474.381 253.754,476.996 254.625,476.436C255.498,475.875 254.937,475.064 255.996,475.064C257.055,475.064 256.696,475.875 257.217,475.875C257.739,475.875 258.174,476.497 258.362,477.307C258.549,478.117 258.113,479.238 258.734,479.238C259.358,479.238 261.911,479.736 261.289,480.546C260.665,481.354 260.417,482.663 259.794,481.978C259.17,481.292 258.299,479.674 257.739,480.172C257.178,480.67 256.881,481.479 256.532,481.542C256.182,481.604 254.376,481.978 254.065,481.354C253.754,480.733 252.197,479.798 252.197,479.798L250.037,480.546Z" style="fill:rgb(160,163,164);fill-rule:nonzero;"/>
    </g>
    <g transform="matrix(4.16667,0,0,4.16667,-786.813,-1874.35)">
        <path d="M264.154,465.319C264.033,465.329 263.902,465.318 263.771,465.306C263.36,465.27 262.955,465.235 262.908,465.85C262.845,466.658 262.659,467.717 262.161,467.344C261.663,466.971 261.812,466.146 261.083,466.34C260.355,466.533 260.379,467.966 261.083,468.278C261.786,468.589 262.227,469.772 262.35,470.332C262.472,470.893 263.282,472.886 263.469,473.322C263.655,473.758 264.278,474.193 264.154,474.506C264.029,474.816 264.651,474.63 265.399,473.384C266.146,472.139 266.707,471.453 267.081,472.263C267.454,473.073 267.322,474.879 268.322,474.131C269.322,473.384 270.318,473.073 270.879,474.007C271.44,474.94 270.443,475.688 271.378,476.559C272.312,477.432 273.308,478.49 273.059,478.863C272.81,479.238 274.117,479.611 274.429,479.55C274.741,479.487 274.18,476.559 274.741,476.311C275.301,476.062 275.363,476.934 275.923,477.121C276.484,477.307 278.228,476.622 278.352,475.189C278.477,473.758 277.542,471.89 276.422,471.702C275.995,471.631 275.938,471.705 275.863,471.778C275.741,471.897 275.571,472.017 273.682,471.516C270.63,470.707 268.957,468.837 269.046,468.34C269.136,467.841 269.883,467.654 267.392,466.971C264.901,466.284 265.231,465.235 264.154,465.319Z" style="fill:rgb(160,163,164);fill-rule:nonzero;"/>
    </g>
    <g transform="matrix(4.16667,0,0,4.16667,-786.813,-1874.35)">
        <path d="M283.451,486.478C282.828,486.976 282.33,487.535 283.015,488.033C283.7,488.531 284.136,489.466 283.762,489.652C283.389,489.839 283.351,490.671 282.685,490.35C282.018,490.026 281.395,490.587 281.831,491.396C282.267,492.206 282.198,492.267 282.793,492.829C283.09,493.109 283.416,492.837 283.738,492.564C284.072,492.282 284.402,492 284.696,492.33C285.194,492.892 285.505,492.57 285.817,492.948C286.128,493.327 286.564,493.639 286.439,491.77C286.315,489.901 285.942,489.217 285.88,488.469C285.817,487.723 285.568,488.469 284.945,487.66C284.323,486.85 283.451,486.478 283.451,486.478Z" style="fill:rgb(160,163,164);fill-rule:nonzero;"/>
    </g>
    <g transform="matrix(4.16667,0,0,4.16667,-786.813,-1874.35)">
        <path d="M286.142,496.932C285.207,497.181 284.896,497.679 285.082,498.986C285.269,500.294 285.477,502.287 285.031,502.598C284.584,502.909 284.833,502.909 284.646,504.093C284.46,505.276 284.211,505.836 284.646,506.896C285.082,507.954 285.394,511.192 284.958,511.379C284.522,511.565 287.263,509.055 287.075,503.055C286.889,497.057 286.142,496.932 286.142,496.932Z" style="fill:rgb(160,163,164);fill-rule:nonzero;"/>
    </g>
    <g transform="matrix(4.16667,0,0,4.16667,-786.813,-1874.35)">
        <path d="M245.97,501.034C245.347,501.221 245.244,502.528 244.673,502.716C244.102,502.903 244.537,503.41 244.039,504.091C243.541,504.771 243.17,504.272 243.013,505.206C242.856,506.141 243.417,506.95 243.79,507.76C244.164,508.569 244.91,509.441 245.533,509.939C246.156,510.438 246.778,511.185 247.028,510.625C247.277,510.063 248.771,510.893 249.706,511.319C250.64,511.745 251.014,512.584 251.698,512.664C252.384,512.742 252.944,514.216 252.57,514.195C252.197,514.175 251.574,512.805 251.014,513.613C250.453,514.423 249.644,515.857 250.08,516.54C250.515,517.226 250.64,518.596 252.01,518.035C253.38,517.475 254.189,518.845 254.376,519.095C254.563,519.344 256.198,518.159 256.532,518.222C256.868,518.284 256.368,519.039 257.366,519.13C258.362,519.219 259.295,518.845 258.798,519.717C258.299,520.589 258.174,520.713 256.868,520.901C255.56,521.086 254.812,523.64 255.435,524.263C256.058,524.885 256.93,525.052 257.926,525.405C258.923,525.757 260.043,525.259 260.168,525.881C260.292,526.505 261.601,525.799 261.849,525.405C262.099,525.01 262.97,523.516 262.845,522.831C262.721,522.146 262.721,521.771 263.22,521.522C263.718,521.272 263.78,520.651 263.593,519.406C263.406,518.159 264.402,519.467 262.223,518.346C260.043,517.226 260.043,516.416 258.923,516.665C257.801,516.914 256.944,517.536 256.532,516.416C256.12,515.297 255.958,515.172 256.256,514.734C256.556,514.299 257.489,514.143 257.553,512.664C257.614,511.185 258.113,510.811 258.424,509.939C258.734,509.068 258.487,506.764 257.178,505.767C255.871,504.771 245.97,501.034 245.97,501.034Z" style="fill:rgb(160,163,164);fill-rule:nonzero;"/>
    </g>
    <g transform="matrix(4.16667,0,0,4.16667,-786.813,-1874.35)">
        <path d="M195.589,477.307C195.538,477.486 200.135,476.248 201.069,475.502C202.003,474.754 204.183,473.571 204.993,472.574C205.802,471.577 207.448,470.352 207.471,470.29C207.495,470.227 208.916,469.523 209.29,468.713C209.663,467.903 209.477,466.26 210.161,466.614C210.846,466.971 210.971,468.526 211.656,467.654C212.341,466.783 213.652,465.911 214.024,465.911C214.396,465.911 217.385,464.292 218.444,464.167C219.503,464.043 220.686,464.043 220.25,463.047C219.814,462.051 219.503,460.431 218.506,460.681C217.51,460.93 216.389,461.988 216.078,461.302C215.766,460.618 214.523,461.863 214.024,461.926C213.524,461.988 214.085,461.054 212.901,461.801C211.718,462.549 212.839,463.793 211.656,463.482C210.473,463.171 210.971,462.424 210.037,463.233C209.103,464.043 209.041,465.663 208.355,465.476C207.67,465.288 207.421,463.918 207.67,463.545C207.92,463.171 209.414,461.926 209.663,461.302C209.913,460.681 210.722,459.621 210.722,459.621C210.722,459.621 197.396,470.955 195.589,477.307Z" style="fill:rgb(160,163,164);fill-rule:nonzero;"/>
    </g>
    <g transform="matrix(4.16667,0,0,4.16667,-786.813,-1874.35)">
        <path d="M208.48,467.654C207.732,468.028 206.57,468.942 205.823,469.274C205.076,469.606 204.411,470.437 203.747,471.434C203.083,472.43 200.841,474.754 200.011,474.837C199.18,474.92 198.516,474.173 198.018,474.837C197.52,475.502 196.44,475.418 196.44,475.418C196.44,475.418 190.804,482.235 189.891,490.289C188.977,498.343 190.545,491.858 190.628,493.437C190.711,495.015 190.711,499.083 190.711,499.083C190.711,499.083 190.462,502.903 191.126,504.148C191.791,505.394 193.534,509.213 193.534,510.209C193.534,511.206 195.609,514.609 195.693,513.531C195.776,512.453 196.274,511.289 196.606,511.952C196.938,512.617 198.599,514.943 199.18,514.609C199.761,514.277 200.26,515.938 200.758,515.938C201.256,515.938 200.675,514.029 201.505,514.443C202.335,514.858 201.173,515.772 203.083,517.018C204.993,518.264 204.079,518.927 203.83,519.592C203.581,520.258 204.577,521.336 203.83,521.501C203.083,521.669 202.003,519.177 201.173,520.672C200.343,522.166 200.343,524.324 202.003,525.404C203.665,526.483 205.74,529.723 206.321,530.303C206.902,530.885 208.065,532.462 208.48,531.051C208.895,529.639 208.065,526.068 208.48,525.984C208.895,525.902 206.736,522.746 206.819,522.415C206.902,522.083 207.641,521.834 208.6,521.834C209.56,521.834 210.473,521.005 209.643,520.008C208.812,519.01 207.899,517.268 207.899,517.268C207.899,517.268 210.805,518.513 211.303,519.26C211.801,520.008 213.462,519.26 213.544,519.758C213.628,520.258 213.628,521.501 213.544,521.917C213.462,522.332 211.967,523.328 211.967,523.743C211.967,524.159 213.628,526.816 214.458,527.563C215.289,528.311 215.455,524.491 216.119,526.566C216.783,528.644 216.451,530.635 217.779,531.051C219.108,531.465 220.935,529.805 221.848,530.636C222.761,531.465 225.003,532.379 225.502,530.303C226,528.228 226.664,527.563 225.502,525.902C224.339,524.242 223.509,523.495 224.671,522.746C225.834,522 227.245,519.758 226.498,519.344C225.751,518.928 223.177,518.845 223.011,516.935C222.845,515.024 219.025,512.867 219.357,512.118C219.689,511.371 222.263,511.538 223.509,509.711C224.754,507.885 225.421,506.64 226.707,508.466C227.993,510.292 229.155,510.957 230.401,510.541C231.646,510.126 232.477,510.126 233.473,509.545C234.469,508.964 237.043,506.805 230.982,506.64C224.92,506.474 225.419,503.399 226.582,501.324C227.744,499.249 229.653,499.249 229.653,499.249C229.653,499.249 226,497.091 225.917,496.675C225.834,496.26 223.426,495.264 227.827,493.686C232.227,492.108 229.986,490.198 228.74,489.866C227.495,489.533 224.09,488.122 224.92,486.296C225.751,484.469 227.495,482.56 228.408,482.56C229.321,482.56 231.896,481.064 233.473,480.234C235.051,479.403 233.452,481.396 234.874,482.476C236.296,483.556 237.043,483.887 237.542,481.978C238.04,480.068 237.542,478.823 238.206,477.826C238.87,476.83 239.535,475.834 238.206,475.418C236.877,475.003 236.047,477.162 235.217,475.418C234.386,473.675 234.055,473.343 232.726,471.931C231.397,470.52 232.393,470.685 229.653,470.104C226.913,469.523 226.997,468.942 225.751,468.36C224.505,467.779 220.437,468.942 220.022,469.108C219.606,469.274 219.855,472.761 218.942,471.267C218.029,469.772 220.935,468.193 216.451,468.526C211.967,468.858 212.797,469.689 212.466,471.599C212.133,473.509 211.386,474.588 209.726,475.751C208.065,476.912 205.574,475.584 206.072,474.09C206.57,472.596 208.48,467.654 208.48,467.654Z" style="fill:rgb(147,153,154);fill-rule:nonzero;"/>
    </g>
    <g transform="matrix(4.16667,0,0,4.16667,-786.813,-1874.35)">
        <path d="M244.6,478.823C243.996,477.539 244.351,477.826 242.109,478.823C239.867,479.818 240.365,480.068 239.535,481.978C238.704,483.888 239.037,484.386 238.123,484.469C237.209,484.551 236.462,485.217 236.296,485.881C236.13,486.545 237.459,487.458 237.542,488.455C237.625,489.451 237.459,490.863 238.372,491.609C239.286,492.357 239.687,492.191 240.44,492.855C241.195,493.519 241.942,494.849 243.437,495.43C244.932,496.01 245.264,496.094 246.178,495.845C247.09,495.595 248.004,495.43 249.083,495.346C250.163,495.264 251.326,494.6 251.99,493.603C252.654,492.605 253.899,492.191 254.563,491.693C255.228,491.194 253.899,488.952 254.563,487.79C255.228,486.628 257.967,487.209 255.56,485.964C253.152,484.718 251.159,482.809 252.488,481.064C253.816,479.321 255.062,480.899 254.979,479.902C254.896,478.906 252.903,477.909 251.74,477.66C250.578,477.411 250.495,479.072 249,479.238C247.506,479.403 245.264,480.234 244.6,478.823Z" style="fill:rgb(147,153,154);fill-rule:nonzero;"/>
    </g>
    <g transform="matrix(4.16667,0,0,4.16667,-786.813,-1874.35)">
        <path d="M249.831,495.977C249.149,496.25 250.08,497.422 248.834,498.252C247.588,499.083 246.178,500.743 245.513,500.494C244.849,500.246 244.185,501.407 245.18,501.822C246.178,502.238 246.139,503.233 246.407,504.148C246.675,505.061 247.256,507.72 248.087,508.05C248.917,508.382 248.253,510.043 249.416,510.126C250.578,510.209 251.99,510.79 252.072,511.538C252.155,512.285 252.737,512.118 253.235,512.036C253.733,511.952 255.228,513.433 255.892,512.112C256.557,510.79 257.801,510.376 258.134,508.88C258.466,507.386 257.22,505.643 259.794,506.888C262.369,508.134 262.95,508.798 263.863,507.885C264.776,506.971 264.445,508.466 265.274,506.058C266.105,503.649 264.195,502.155 265.274,500.992C266.354,499.83 265.358,499.083 267.102,499C268.845,498.916 267.185,498.169 265.441,497.422C263.697,496.675 263.282,495.761 263.282,494.931C263.282,494.101 263.365,493.437 263.78,492.938C264.195,492.439 263.282,492.273 262.118,492.066C260.958,491.858 261.372,491.693 260.542,490.53C259.712,489.367 258.051,490.78 258.549,491.36C259.048,491.941 261.206,494.516 259.379,494.267C257.553,494.019 256.224,492.439 255.892,492.439C255.56,492.439 252.701,492.854 252.701,492.854C252.701,492.854 251.575,495.279 249.831,495.977Z" style="fill:rgb(147,153,154);fill-rule:nonzero;"/>
    </g>
    <g transform="matrix(4.16667,0,0,4.16667,-786.813,-1874.35)">
        <path d="M273.412,485.881C272.696,486.11 272.665,486.96 272.084,487.624C271.502,488.289 270.423,489.367 270.008,489.7C269.592,490.032 269.758,491.527 270.34,492.066C270.921,492.605 271.17,493.768 270.838,493.852C270.506,493.935 270.46,495.347 269.777,494.267C269.095,493.188 268.549,494.433 269.777,495.679C271.004,496.924 271.918,496.675 272.748,497.173C273.578,497.671 273.994,498.585 275.405,497.506C276.816,496.425 277.231,495.679 278.061,495.097C278.892,494.516 277.813,492.191 278.644,492.066C279.474,491.941 280.138,491.443 279.639,490.53C279.142,489.617 279.39,488.039 277.563,487.791C275.737,487.541 273.85,485.739 273.412,485.881Z" style="fill:rgb(147,153,154);fill-rule:nonzero;"/>
    </g>
    <g transform="matrix(4.16667,0,0,4.16667,-786.813,-1874.35)">
        <path d="M272.084,502.985C269.758,502.985 269.746,504.813 269.046,505.892C268.347,506.971 267.766,508.216 267.268,508.299C266.769,508.382 265.773,509.296 266.354,510.458C266.936,511.621 268.181,511.547 268.181,512.664C268.181,513.779 266.831,513.448 266.177,513.198C265.524,512.949 264.694,513.448 264.694,514.112C264.694,514.776 265.773,515.69 265.108,516.021C264.445,516.354 264.527,518.015 265.358,517.435C266.188,516.852 267.335,515.772 267.841,516.436C268.347,517.101 266.422,518.015 267.841,518.264C269.26,518.513 269.925,518.099 270.34,517.683C270.58,517.443 270.876,517.508 271.228,517.573C271.484,517.621 271.769,517.669 272.084,517.599C272.831,517.435 274.159,515.026 274.741,514.943C275.322,514.858 272.665,518.015 272.084,518.845C271.502,519.675 270.893,520.422 269.745,520.341C268.596,520.258 267.766,519.509 267.434,521.751C267.102,523.992 269.046,525.405 269.046,525.405C269.046,525.405 271.502,525.154 272.001,523.826C272.499,522.498 274.117,521.751 274.429,521.252C274.741,520.755 276.318,518.099 276.567,516.436C276.816,514.776 275.902,512.7 276.567,511.786C277.231,510.874 278.976,510.376 278.892,508.798C278.809,507.22 278.061,505.226 276.567,505.226C275.073,505.226 274.076,504.064 273.827,503.649C273.578,503.234 272.084,502.985 272.084,502.985Z" style="fill:rgb(147,153,154);fill-rule:nonzero;"/>
    </g>
    <g transform="matrix(4.16667,0,0,4.16667,-786.813,-1874.35)">
        <path d="M265.108,459.061C262.036,458.313 260.376,457.566 261.372,458.563C262.369,459.56 263.946,460.39 263.531,461.137C263.115,461.884 264.444,462.216 265.856,462.133C267.268,462.051 269.246,461.801 267.841,460.722C266.437,459.642 265.108,459.061 265.108,459.061Z" style="fill:rgb(147,153,154);fill-rule:nonzero;"/>
    </g>
    <g transform="matrix(4.16667,0,0,4.16667,-786.813,-1874.35)">
        <path d="M228.75,466.689C229.662,466.369 230.494,467.125 230.214,468.028C229.934,468.932 228.408,469.305 227.972,468.683C227.536,468.06 227.598,467.095 228.75,466.689Z" style="fill:rgb(147,153,154);fill-rule:nonzero;"/>
    </g>
    <g transform="matrix(4.16667,0,0,4.16667,-786.813,-1874.35)">
        <path d="M239.493,453.581C239.069,453.689 238.671,453.83 238.973,454.173C239.274,454.516 240.115,454.732 240.458,454.422C240.801,454.109 239.931,453.47 239.493,453.581Z" style="fill:rgb(147,153,154);fill-rule:nonzero;"/>
    </g>
    <g transform="matrix(4.16667,0,0,4.16667,-786.813,-1874.35)">
        <path d="M250.266,453.394C249.477,452.958 249.083,453.687 249.55,454.069C250.017,454.453 251.449,454.048 250.266,453.394Z" style="fill:rgb(147,153,154);fill-rule:nonzero;"/>
    </g>
    <g transform="matrix(4.16667,0,0,4.16667,-786.813,-1874.35)">
        <path d="M256.587,454.795C256.242,454.564 256.463,454.297 256.93,454.391C257.396,454.483 258.174,455.138 257.988,455.169C257.801,455.2 257.055,455.106 256.587,454.795Z" style="fill:rgb(147,153,154);fill-rule:nonzero;"/>
    </g>
    <g transform="matrix(4.16667,0,0,4.16667,-786.813,-1874.35)">
        <path d="M260.54,463.45C261.193,463.513 261.911,464.199 261.694,464.852C261.476,465.507 260.48,465.444 259.794,464.852C259.109,464.261 259.234,463.326 260.54,463.45Z" style="fill:rgb(147,153,154);fill-rule:nonzero;"/>
    </g>
    <g transform="matrix(4.16667,0,0,4.16667,-786.813,-1874.35)">
        <path d="M216.597,457.815C216.236,457.644 216.368,456.819 217.448,456.217C218.527,455.614 219.108,455.448 219.357,455.968C219.606,456.486 219.149,457.109 218.548,457.462C217.946,457.815 217.033,458.023 216.597,457.815Z" style="fill:rgb(147,153,154);fill-rule:nonzero;"/>
    </g>
    <g transform="matrix(4.16667,0,0,4.16667,-786.813,-1874.35)">
        <path d="M216.036,530.594C215.206,529.723 222.264,536.696 222.845,537.152C223.426,537.609 220.685,534.039 220.021,533.334C219.357,532.628 220.395,532.966 221.267,533.856C222.139,534.746 223.379,534.829 222.925,534.165C222.471,533.499 222.637,532.628 223.716,533.458C224.796,534.289 225.169,533.915 225.502,533.209C225.834,532.504 226.999,530.635 226.853,532.047C226.705,533.458 226.734,534.123 226.865,534.247C226.996,534.371 227.453,530.095 227.827,529.39C228.201,528.684 229.196,532.047 229.238,532.171C229.28,532.296 230.11,532.317 230.857,531.622C231.605,530.925 233.017,529.236 233.307,529.292C233.597,529.349 237.334,524.657 237.625,521.792C237.915,518.927 238.745,523.951 233.846,530.429C228.947,536.904 234.303,531.465 234.552,531.425C234.664,531.405 234.667,531.811 234.696,532.216C234.732,532.716 234.808,533.217 235.175,532.919C235.839,532.379 239.285,531.84 240.572,529.889C241.859,527.937 239.908,531.922 238.122,532.96C236.337,533.997 235.051,536.612 235.258,536.488C235.465,536.364 239.535,535.617 244.101,533.666C248.668,531.715 252.238,528.643 252.488,528.435C252.736,528.227 241.485,536.116 239.41,537.402C237.334,538.689 239.535,538.689 240.365,538.439C241.195,538.191 243.312,538.568 243.312,538.568L241.61,539.603C241.61,539.603 251.988,537.858 253.338,536.946C254.688,536.032 255.684,536.406 256.888,535.534C258.092,534.662 250.245,539.188 247.754,539.811C245.264,540.434 242.689,540.683 242.482,540.973C242.274,541.264 243.063,542.052 243.769,542.052C244.475,542.052 247.131,542.758 247.796,542.344C248.46,541.928 255.062,540.434 257.428,539.062C259.794,537.692 261.995,536.116 262.244,535.866C262.493,535.617 262.991,536.24 262.244,536.862C261.497,537.485 259.959,539.062 258.174,539.603C256.39,540.143 253.152,541.222 252.114,541.804C251.076,542.384 248.211,544.128 249.54,544.004C250.868,543.879 255.435,542.758 255.435,542.758C255.435,542.758 252.653,544.75 250.661,545.249C248.668,545.747 247.298,546.536 245.596,546.91C243.894,547.284 243.188,547.574 242.274,547.574C241.361,547.574 227.91,548.237 224.007,545.581C220.104,542.924 221.433,542.758 221.433,542.758C221.433,542.758 221.268,542.758 220.104,542.924C218.942,543.09 220.603,541.845 220.935,541.679C221.267,541.513 216.866,540.849 216.701,541.098C216.534,541.347 214.708,539.603 214.708,539.603C214.708,539.603 215.953,538.855 216.368,538.689C216.783,538.522 212.964,537.942 210.722,536.447C208.48,534.953 206.321,532.876 206.321,532.876C206.321,532.876 211.054,534.043 212.881,534.541C214.708,535.036 211.181,536.281 214.024,536.696C216.866,537.111 218.527,536.198 218.527,536.198L216.036,530.594Z" style="fill:rgb(232,234,234);fill-rule:nonzero;"/>
    </g>
    <g transform="matrix(4.16667,0,0,4.16667,-786.813,-1874.35)">
        <path d="M214.024,498.916C214.002,499.478 212.964,499.072 212.839,499.639C212.715,500.204 212.922,500.66 212.673,500.702C212.424,500.742 213.503,500.992 213.545,501.365C213.587,501.739 213.337,502.737 214.542,502.445C215.746,502.155 215.413,501.698 216.659,501.365C217.904,501.034 218.278,498.833 217.655,498.377C217.033,497.921 214.087,497.298 214.024,498.916Z" style="fill:rgb(232,234,234);fill-rule:nonzero;"/>
    </g>
    <g transform="matrix(4.16667,0,0,4.16667,-786.813,-1874.35)">
        <path d="M264.666,535.118C265.191,534.331 263.987,535.866 263.032,536.656C262.078,537.444 264.319,536.198 265.482,535.285C266.645,534.371 266.81,534.165 267.599,533.956C267.96,533.861 268,534.14 267.988,534.419C267.974,534.749 267.888,535.079 268.181,534.787C268.72,534.247 268.637,533.126 269.26,533.044C269.883,532.96 270.132,532.669 270.256,532.254C270.381,531.84 271.045,531.549 271.294,531.425C271.543,531.3 270.63,530.925 271.294,530.553C271.958,530.179 271.626,530.385 272.456,529.93C273.288,529.473 273.412,529.805 274.45,527.978C275.487,526.151 274.823,526.358 273.869,527.271C272.914,528.186 272.291,529.473 272.166,528.352C272.042,527.231 272.415,526.271 272.415,526.128C272.415,525.984 270.505,527.604 269.509,528.186C268.513,528.767 269.015,527.231 268.888,526.649C268.762,526.068 267.516,525.487 267.641,526.692C267.765,527.896 267.932,529.556 267.475,529.598C267.019,529.639 268.596,529.639 266.022,528.684C263.448,527.728 263.282,527.604 263.157,528.311C263.032,529.016 263.614,529.889 265.191,530.303C266.769,530.718 268.098,531.383 266.894,531.84C266.337,532.051 266.206,531.986 266.075,531.922C265.922,531.847 265.768,531.772 264.942,532.13C263.406,532.794 262.244,534.247 263.406,533.873C264.568,533.499 265.606,533.209 265.814,533.209C266.022,533.209 264.666,535.118 264.666,535.118Z" style="fill:rgb(232,234,234);fill-rule:nonzero;"/>
    </g>
    <g transform="matrix(4.16667,0,0,4.16667,-786.813,-1874.35)">
        <path d="M256.299,545.165C259.032,542.693 261.76,539.047 264.019,533.68C264.916,533.404 265.644,533.209 265.814,533.209C266.021,533.209 264.671,535.11 264.666,535.118C264.768,534.965 264.805,534.9 264.791,534.9C264.733,534.9 263.802,536.02 263.032,536.656C262.82,536.832 262.766,536.906 262.823,536.906C263.022,536.906 264.578,535.995 265.482,535.285C266.645,534.371 266.81,534.165 267.599,533.956C267.648,533.943 267.691,533.937 267.729,533.937C267.97,533.937 267.998,534.178 267.988,534.419C267.978,534.659 267.93,534.9 268.017,534.9C268.05,534.9 268.102,534.867 268.181,534.787C268.72,534.247 268.637,533.126 269.26,533.044C269.883,532.96 270.132,532.669 270.256,532.254C270.381,531.84 271.045,531.549 271.294,531.425C271.543,531.3 270.63,530.925 271.294,530.553C271.958,530.179 271.626,530.385 272.456,529.93C273.288,529.473 273.412,529.805 274.45,527.978C275.017,526.98 275.076,526.589 274.856,526.589C274.674,526.589 274.301,526.857 273.869,527.271C273.179,527.932 272.662,528.788 272.381,528.788C272.273,528.788 272.201,528.662 272.166,528.352C272.042,527.231 272.415,526.271 272.415,526.128C272.415,526.122 272.412,526.119 272.406,526.119C272.256,526.119 270.463,527.628 269.509,528.186C269.355,528.275 269.237,528.315 269.147,528.315C268.653,528.315 268.995,527.141 268.888,526.649C268.816,526.318 268.38,525.987 268.042,525.987C267.787,525.987 267.587,526.175 267.641,526.692C267.765,527.896 267.932,529.556 267.475,529.598C267.46,529.599 267.448,529.6 267.438,529.601C267.581,529.56 267.859,529.365 266.022,528.684C265.959,528.66 265.898,528.638 265.838,528.615C266.415,526.72 266.94,524.663 267.399,522.425C267.486,524.272 269.046,525.405 269.046,525.405C269.046,525.405 271.502,525.154 272.001,523.826C272.499,522.498 274.117,521.751 274.429,521.252C274.741,520.755 276.318,518.099 276.567,516.436C276.816,514.776 275.902,512.7 276.567,511.786C277.231,510.874 278.976,510.376 278.892,508.798C278.809,507.22 278.061,505.226 276.567,505.226C275.073,505.226 274.076,504.064 273.827,503.649C273.578,503.234 272.084,502.985 272.084,502.985C270.135,502.985 269.811,504.268 269.345,505.319C269.451,502.68 269.49,499.889 269.455,496.932C269.448,496.367 269.437,495.806 269.422,495.254C269.519,495.393 269.636,495.536 269.777,495.679C271.004,496.924 271.918,496.675 272.748,497.173C273.295,497.501 273.662,498.01 274.253,498.01C274.558,498.01 274.924,497.874 275.405,497.506C276.816,496.425 277.231,495.679 278.061,495.097C278.892,494.516 277.813,492.191 278.644,492.066C279.474,491.941 280.138,491.443 279.639,490.53C279.142,489.617 279.39,488.039 277.563,487.791C275.806,487.55 273.992,485.873 273.467,485.873C273.447,485.873 273.428,485.875 273.412,485.881C272.696,486.11 272.665,486.96 272.084,487.624C271.502,488.289 270.423,489.367 270.008,489.7C269.592,490.032 269.758,491.527 270.34,492.066C270.921,492.605 271.17,493.768 270.838,493.852C270.597,493.912 270.507,494.672 270.214,494.672C270.104,494.672 269.964,494.563 269.777,494.267C269.632,494.038 269.494,493.914 269.377,493.872C269.045,485.301 267.77,478.292 265.932,472.559C266.224,472.156 266.479,471.912 266.696,471.912C266.841,471.912 266.969,472.021 267.081,472.263C267.392,472.939 267.352,474.308 267.911,474.308C268.022,474.308 268.157,474.255 268.322,474.131C268.885,473.71 269.447,473.428 269.93,473.428C270.305,473.428 270.634,473.599 270.879,474.007C271.44,474.94 270.443,475.688 271.378,476.559C272.312,477.432 273.308,478.49 273.059,478.863C272.828,479.211 273.933,479.556 274.345,479.556C274.377,479.556 274.406,479.554 274.429,479.55C274.741,479.487 274.18,476.559 274.741,476.311C274.81,476.28 274.871,476.266 274.927,476.266C275.324,476.266 275.432,476.957 275.923,477.121C275.984,477.141 276.057,477.151 276.141,477.151C276.84,477.151 278.241,476.468 278.352,475.189C278.477,473.758 277.542,471.89 276.422,471.702C276.299,471.682 276.207,471.673 276.137,471.673C275.961,471.673 275.917,471.726 275.863,471.778C275.81,471.83 275.747,471.883 275.534,471.883C275.261,471.883 274.742,471.797 273.682,471.516C270.63,470.707 268.957,468.837 269.046,468.34C269.136,467.841 269.883,467.654 267.392,466.971C264.996,466.31 265.21,465.315 264.271,465.315C264.234,465.315 264.195,465.316 264.154,465.319C264.122,465.322 264.09,465.323 264.056,465.323C263.964,465.323 263.867,465.315 263.771,465.306C263.675,465.298 263.579,465.289 263.488,465.289C263.324,465.289 263.175,465.317 263.069,465.42C259.794,458.779 255.716,454.517 251.964,451.786C272.535,457.743 287.577,476.723 287.577,499.215C287.577,520.095 274.616,537.947 256.299,545.165ZM285.125,511.011C284.963,511.265 284.876,511.388 284.924,511.388C284.932,511.388 284.943,511.385 284.958,511.379C285.037,511.345 285.091,511.212 285.125,511.011C285.698,510.111 287.216,507.572 287.075,503.055C286.889,497.057 286.142,496.932 286.142,496.932C285.207,497.181 284.896,497.679 285.082,498.986C285.269,500.294 285.477,502.287 285.031,502.598C284.584,502.909 284.833,502.909 284.646,504.093C284.46,505.276 284.211,505.836 284.646,506.896C285.004,507.763 285.278,510.095 285.125,511.011ZM284.403,492.181C284.504,492.181 284.602,492.224 284.696,492.33C285.194,492.892 285.505,492.57 285.817,492.948C285.939,493.097 286.081,493.236 286.2,493.236C286.384,493.236 286.515,492.905 286.439,491.77C286.315,489.901 285.942,489.217 285.88,488.469C285.817,487.723 285.568,488.469 284.945,487.66C284.323,486.85 283.451,486.478 283.451,486.478C282.828,486.976 282.33,487.535 283.015,488.033C283.7,488.531 284.136,489.466 283.762,489.652C283.448,489.809 283.371,490.422 282.959,490.423C282.881,490.423 282.791,490.401 282.685,490.35C282.553,490.286 282.424,490.257 282.304,490.257C281.814,490.257 281.481,490.746 281.831,491.396C282.267,492.206 282.198,492.267 282.793,492.829C282.882,492.913 282.973,492.947 283.065,492.947C283.284,492.947 283.512,492.755 283.738,492.564C283.965,492.373 284.19,492.181 284.403,492.181ZM261.239,458.082C261.001,458.082 261.028,458.218 261.372,458.563C262.369,459.56 263.946,460.39 263.531,461.137C263.157,461.809 264.196,462.145 265.437,462.145C265.575,462.145 265.715,462.141 265.856,462.133C267.268,462.051 269.246,461.801 267.841,460.722C266.437,459.642 265.108,459.061 265.108,459.061C263.098,458.572 261.691,458.082 261.239,458.082ZM256.747,454.371C256.411,454.371 256.29,454.597 256.587,454.795C256.999,455.069 257.627,455.175 257.898,455.175C257.935,455.175 257.966,455.173 257.988,455.169C258.174,455.138 257.396,454.483 256.93,454.391C256.864,454.377 256.803,454.371 256.747,454.371ZM264.571,532.309C264.816,531.671 265.055,531.012 265.287,530.328C266.822,530.745 268.073,531.392 266.894,531.84C266.606,531.949 266.432,531.984 266.313,531.984C266.202,531.984 266.138,531.953 266.075,531.922C266.011,531.891 265.948,531.86 265.835,531.86C265.678,531.86 265.425,531.921 264.942,532.13C264.816,532.185 264.691,532.245 264.571,532.309ZM267.749,520.617C267.886,519.867 268.015,519.096 268.137,518.308C268.317,518.329 268.484,518.339 268.638,518.339C269.528,518.339 270.012,518.011 270.34,517.683C270.469,517.553 270.614,517.513 270.776,517.513C270.914,517.513 271.065,517.544 271.228,517.573C271.391,517.604 271.566,517.634 271.752,517.634C271.859,517.634 271.969,517.625 272.084,517.599C272.831,517.435 274.159,515.026 274.741,514.943C274.748,514.941 274.755,514.941 274.762,514.941C275.253,514.941 272.657,518.026 272.084,518.845C271.531,519.633 270.954,520.346 269.915,520.346C269.859,520.346 269.803,520.344 269.745,520.341C269.264,520.305 268.84,520.154 268.484,520.154C268.189,520.154 267.942,520.258 267.749,520.617Z" style="fill:rgb(108,110,111);fill-rule:nonzero;"/>
    </g>
    <g transform="matrix(4.16667,0,0,4.16667,-786.813,-1874.35)">
        <path d="M274.345,479.556C273.933,479.556 272.828,479.211 273.059,478.863C273.308,478.49 272.312,477.432 271.378,476.559C270.443,475.688 271.44,474.94 270.879,474.007C270.634,473.599 270.305,473.428 269.93,473.428C269.447,473.428 268.885,473.71 268.322,474.131C268.157,474.255 268.022,474.308 267.911,474.308C267.352,474.308 267.392,472.939 267.081,472.263C266.969,472.021 266.841,471.912 266.696,471.912C266.479,471.912 266.224,472.156 265.932,472.559C265.085,469.917 264.118,467.547 263.069,465.42C263.175,465.317 263.324,465.289 263.488,465.289C263.579,465.289 263.675,465.298 263.771,465.306C263.867,465.315 263.964,465.323 264.056,465.323C264.09,465.323 264.122,465.322 264.154,465.319C264.195,465.316 264.234,465.315 264.271,465.315C265.21,465.315 264.996,466.31 267.392,466.971C269.883,467.654 269.136,467.841 269.046,468.34C268.957,468.837 270.63,470.707 273.682,471.516C274.742,471.797 275.261,471.883 275.534,471.883C275.747,471.883 275.81,471.83 275.863,471.778C275.917,471.726 275.961,471.673 276.137,471.673C276.207,471.673 276.299,471.682 276.422,471.702C277.542,471.89 278.477,473.758 278.352,475.189C278.241,476.468 276.84,477.151 276.141,477.151C276.057,477.151 275.984,477.141 275.923,477.121C275.432,476.957 275.324,476.266 274.927,476.266C274.871,476.266 274.81,476.28 274.741,476.311C274.18,476.559 274.741,479.487 274.429,479.55C274.406,479.554 274.377,479.556 274.345,479.556Z" style="fill:rgb(100,103,104);fill-rule:nonzero;"/>
    </g>
    <g transform="matrix(4.16667,0,0,4.16667,-786.813,-1874.35)">
        <path d="M286.2,493.236C286.081,493.236 285.939,493.097 285.817,492.948C285.505,492.57 285.194,492.892 284.696,492.33C284.602,492.224 284.504,492.181 284.403,492.181C284.19,492.181 283.965,492.373 283.738,492.564C283.512,492.755 283.284,492.947 283.065,492.947C282.973,492.947 282.882,492.913 282.793,492.829C282.198,492.267 282.267,492.206 281.831,491.396C281.481,490.746 281.814,490.257 282.304,490.257C282.424,490.257 282.553,490.286 282.685,490.35C282.791,490.401 282.881,490.423 282.959,490.423C283.371,490.422 283.448,489.809 283.762,489.652C284.136,489.466 283.7,488.531 283.015,488.033C282.33,487.535 282.828,486.976 283.451,486.478C283.451,486.478 284.323,486.85 284.945,487.66C285.568,488.469 285.817,487.723 285.88,488.469C285.942,489.217 286.315,489.901 286.439,491.77C286.515,492.905 286.384,493.236 286.2,493.236Z" style="fill:rgb(100,103,104);fill-rule:nonzero;"/>
    </g>
    <g transform="matrix(4.16667,0,0,4.16667,-786.813,-1874.35)">
        <path d="M284.924,511.388C284.876,511.388 284.963,511.265 285.125,511.011C285.091,511.212 285.037,511.345 284.958,511.379C284.943,511.385 284.932,511.388 284.924,511.388ZM285.125,511.011C285.278,510.095 285.004,507.763 284.646,506.896C284.211,505.836 284.46,505.276 284.646,504.093C284.833,502.909 284.584,502.909 285.031,502.598C285.477,502.287 285.269,500.294 285.082,498.986C284.896,497.679 285.207,497.181 286.142,496.932C286.142,496.932 286.889,497.057 287.075,503.055C287.216,507.572 285.698,510.111 285.125,511.011Z" style="fill:rgb(100,103,104);fill-rule:nonzero;"/>
    </g>
    <g transform="matrix(4.16667,0,0,4.16667,-786.813,-1874.35)">
        <path d="M274.253,498.01C273.662,498.01 273.295,497.501 272.748,497.173C271.918,496.675 271.004,496.924 269.777,495.679C269.636,495.536 269.519,495.393 269.422,495.254C269.41,494.789 269.395,494.328 269.377,493.872C269.494,493.914 269.632,494.038 269.777,494.267C269.964,494.563 270.104,494.672 270.214,494.672C270.507,494.672 270.597,493.912 270.838,493.852C271.17,493.768 270.921,492.605 270.34,492.066C269.758,491.527 269.592,490.032 270.008,489.7C270.423,489.367 271.502,488.289 272.084,487.624C272.665,486.96 272.696,486.11 273.412,485.881C273.428,485.875 273.447,485.873 273.467,485.873C273.992,485.873 275.806,487.55 277.563,487.791C279.39,488.039 279.142,489.617 279.639,490.53C280.138,491.443 279.474,491.941 278.644,492.066C277.813,492.191 278.892,494.516 278.061,495.097C277.231,495.679 276.816,496.425 275.405,497.506C274.924,497.874 274.558,498.01 274.253,498.01Z" style="fill:rgb(98,102,101);fill-rule:nonzero;"/>
    </g>
    <g transform="matrix(4.16667,0,0,4.16667,-786.813,-1874.35)">
        <path d="M269.046,525.405C269.046,525.405 267.486,524.272 267.399,522.425C267.52,521.834 267.637,521.232 267.749,520.617C267.942,520.258 268.189,520.154 268.484,520.154C268.84,520.154 269.264,520.305 269.745,520.341C269.803,520.344 269.859,520.346 269.915,520.346C270.954,520.346 271.531,519.633 272.084,518.845C272.657,518.026 275.253,514.941 274.762,514.941C274.755,514.941 274.748,514.941 274.741,514.943C274.159,515.026 272.831,517.435 272.084,517.599C271.969,517.625 271.859,517.634 271.752,517.634C271.566,517.634 271.391,517.604 271.228,517.573C271.065,517.544 270.914,517.513 270.776,517.513C270.614,517.513 270.469,517.553 270.34,517.683C270.012,518.011 269.528,518.339 268.638,518.339C268.484,518.339 268.317,518.329 268.137,518.308C268.733,514.459 269.151,510.144 269.345,505.319C269.811,504.268 270.135,502.985 272.084,502.985C272.084,502.985 273.578,503.234 273.827,503.649C274.076,504.064 275.073,505.226 276.567,505.226C278.061,505.226 278.809,507.22 278.892,508.798C278.976,510.376 277.231,510.874 276.567,511.786C275.902,512.7 276.816,514.776 276.567,516.436C276.318,518.099 274.741,520.755 274.429,521.252C274.117,521.751 272.499,522.498 272.001,523.826C271.502,525.154 269.046,525.405 269.046,525.405Z" style="fill:rgb(98,102,101);fill-rule:nonzero;"/>
    </g>
    <g transform="matrix(4.16667,0,0,4.16667,-786.813,-1874.35)">
        <path d="M265.437,462.145C264.196,462.145 263.157,461.809 263.531,461.137C263.946,460.39 262.369,459.56 261.372,458.563C261.028,458.218 261.001,458.082 261.239,458.082C261.691,458.082 263.098,458.572 265.108,459.061C265.108,459.061 266.437,459.642 267.841,460.722C269.246,461.801 267.268,462.051 265.856,462.133C265.715,462.141 265.575,462.145 265.437,462.145Z" style="fill:rgb(98,102,101);fill-rule:nonzero;"/>
    </g>
    <g transform="matrix(4.16667,0,0,4.16667,-786.813,-1874.35)">
        <path d="M257.898,455.175C257.627,455.175 256.999,455.069 256.587,454.795C256.29,454.597 256.411,454.371 256.747,454.371C256.803,454.371 256.864,454.377 256.93,454.391C257.396,454.483 258.174,455.138 257.988,455.169C257.966,455.173 257.935,455.175 257.898,455.175Z" style="fill:rgb(98,102,101);fill-rule:nonzero;"/>
    </g>
    <g transform="matrix(4.16667,0,0,4.16667,-786.813,-1874.35)">
        <path d="M262.823,536.906C262.766,536.906 262.82,536.832 263.032,536.656C263.802,536.02 264.733,534.9 264.791,534.9C264.805,534.9 264.768,534.965 264.666,535.118C264.671,535.11 266.021,533.209 265.814,533.209C265.644,533.209 264.916,533.404 264.019,533.68C264.206,533.235 264.39,532.778 264.571,532.309C264.691,532.245 264.816,532.185 264.942,532.13C265.425,531.921 265.678,531.86 265.835,531.86C265.948,531.86 266.011,531.891 266.075,531.922C266.138,531.953 266.202,531.984 266.313,531.984C266.432,531.984 266.606,531.949 266.894,531.84C268.073,531.392 266.822,530.745 265.287,530.328C265.475,529.773 265.659,529.202 265.838,528.615C265.898,528.638 265.959,528.66 266.022,528.684C267.859,529.365 267.581,529.56 267.438,529.601C267.448,529.6 267.46,529.599 267.475,529.598C267.932,529.556 267.765,527.896 267.641,526.692C267.587,526.175 267.787,525.987 268.042,525.987C268.38,525.987 268.816,526.318 268.888,526.649C268.995,527.141 268.653,528.315 269.147,528.315C269.237,528.315 269.355,528.275 269.509,528.186C270.463,527.628 272.256,526.119 272.406,526.119C272.412,526.119 272.415,526.122 272.415,526.128C272.415,526.271 272.042,527.231 272.166,528.352C272.201,528.662 272.273,528.788 272.381,528.788C272.662,528.788 273.179,527.932 273.869,527.271C274.301,526.857 274.674,526.589 274.856,526.589C275.076,526.589 275.017,526.98 274.45,527.978C273.412,529.805 273.288,529.473 272.456,529.93C271.626,530.385 271.958,530.179 271.294,530.553C270.63,530.925 271.543,531.3 271.294,531.425C271.045,531.549 270.381,531.84 270.256,532.254C270.132,532.669 269.883,532.96 269.26,533.044C268.637,533.126 268.72,534.247 268.181,534.787C268.102,534.867 268.05,534.9 268.017,534.9C267.93,534.9 267.978,534.659 267.988,534.419C267.998,534.178 267.97,533.937 267.729,533.937C267.691,533.937 267.648,533.943 267.599,533.956C266.81,534.165 266.645,534.371 265.482,535.285C264.578,535.995 263.022,536.906 262.823,536.906Z" style="fill:rgb(112,114,115);fill-rule:nonzero;"/>
    </g>
</svg>
