<?xml version="1.0" encoding="UTF-8" standalone="no"?>
<!DOCTYPE svg PUBLIC "-//W3C//DTD SVG 1.1//EN" "http://www.w3.org/Graphics/SVG/1.1/DTD/svg11.dtd">
<svg width="100%" height="100%" viewBox="0 0 412 412" version="1.1" xmlns="http://www.w3.org/2000/svg" xmlns:xlink="http://www.w3.org/1999/xlink" xml:space="preserve" xmlns:serif="http://www.serif.com/" style="fill-rule:evenodd;clip-rule:evenodd;stroke-linejoin:round;stroke-miterlimit:2;">
    <g transform="matrix(4.16667,0,0,4.16667,-1890.42,-1874.35)">
        <path d="M453.7,499.215C453.7,471.948 475.804,449.844 503.071,449.844C530.337,449.844 552.442,471.948 552.442,499.215C552.442,526.482 530.337,548.586 503.071,548.586C475.804,548.586 453.7,526.482 453.7,499.215Z" style="fill:rgb(206,208,210);fill-rule:nonzero;"/>
    </g>
    <g transform="matrix(4.16667,0,0,4.16667,-1890.42,-1874.35)">
        <path d="M476.21,524.075C475.026,524.075 474.778,524.636 474.716,525.322C474.653,526.006 474.218,526.442 473.968,526.754C473.719,527.064 473.968,528.311 474.716,528.622C475.463,528.934 476.833,529.058 476.21,529.867C475.587,530.677 474.903,530.76 475.121,531.622C475.339,532.482 476.272,533.168 476.896,533.479C477.518,533.79 477.895,534.476 478.89,534.537C479.884,534.6 480.942,533.23 481.378,533.168C481.814,533.105 479.261,532.232 481.378,531.984C483.496,531.736 483.31,530.947 484.306,531.622C485.302,532.296 483.558,532.171 486.485,532.42C489.412,532.67 489.536,533.003 490.595,531.622C491.654,530.241 491.841,529.183 491.654,527.875C491.468,526.566 488.603,524.014 488.042,523.143C487.481,522.271 476.147,520.152 475.898,520.464C475.649,520.774 476.21,524.075 476.21,524.075Z" style="fill:rgb(160,163,164);fill-rule:nonzero;"/>
    </g>
    <g transform="matrix(4.16667,0,0,4.16667,-1890.42,-1874.35)">
        <path d="M491.031,498.01C490.72,498.916 490.72,500.037 490.657,500.972C490.595,501.906 490.222,504.647 490.657,505.206C491.093,505.767 493.397,507.012 493.397,507.012C493.397,507.012 496.761,506.265 497.507,505.705C498.255,505.144 499.626,503.151 500.87,503.463C502.116,503.773 503.61,504.459 504.296,503.961C504.98,503.463 505.354,502.15 505.229,501.373C505.104,500.599 504.794,499.924 504.98,499.639C505.052,499.529 505.326,499.608 505.661,499.688C506.198,499.815 506.892,499.943 507.16,499.291C507.597,498.231 508.53,496.986 507.16,496.363C505.79,495.74 506.164,496.487 504.483,495.117C502.802,493.747 502.365,492.938 502.304,492.564C502.24,492.191 503.05,491.216 503.485,490.084C503.923,488.953 504.253,487.458 503.838,486.398C503.424,485.341 504.171,483.037 502.863,481.977C501.556,480.92 498.69,477.806 497.259,478.241C495.827,478.677 487.855,479.362 487.855,486.462C487.855,493.561 491.031,498.01 491.031,498.01Z" style="fill:rgb(160,163,164);fill-rule:nonzero;"/>
    </g>
    <g transform="matrix(4.16667,0,0,4.16667,-1890.42,-1874.35)">
        <path d="M514.901,480.546C514.633,479.611 514.26,479.051 513.45,478.739C512.642,478.429 512.578,477.635 512.578,477.635C512.578,477.635 512.392,477.245 511.643,476.81C510.897,476.372 510.647,475.688 511.02,475.252C511.395,474.816 512.08,474.193 513.138,474.193C514.198,474.193 515.107,474.131 514.901,473.509C514.818,473.258 514.426,473.32 514.005,473.382C513.385,473.474 512.705,473.567 512.891,472.637C513.2,471.08 514.046,470.332 514.931,469.461C515.817,468.589 516.128,468.012 516.315,467.802C516.5,467.593 514.544,468.091 514.215,468.34C513.887,468.589 513.263,470.021 512.143,469.834C511.607,469.745 510.875,470.534 510.131,471.323C509.314,472.189 508.482,473.054 507.878,472.761C507.439,472.548 507.103,472.623 506.777,472.699C506.248,472.822 505.743,472.945 504.856,471.827C503.424,470.021 502.421,467.593 501.147,467.654C499.874,467.717 498.504,466.882 499.189,466.614C499.874,466.347 502.179,466.099 499.439,465.319C496.698,464.541 494.393,464.229 493.336,465.319C492.276,466.409 490.471,467.156 489.724,466.222C488.976,465.288 489.973,465.663 487.855,465.85C485.737,466.036 485.489,464.999 485.675,464.614C485.862,464.229 487.108,464.167 487.419,463.171C487.732,462.175 487.669,461.676 488.789,461.054C489.615,460.595 490.609,460.609 491.35,460.624C491.615,460.629 491.848,460.635 492.028,460.618C492.713,460.556 492.829,460.244 493.861,459.56C494.893,458.874 496.263,459.424 496.325,460.114C496.388,460.805 495.142,461.552 496.45,461.552C497.757,461.552 498.878,461.365 498.878,461.365C498.878,461.365 502.802,463.087 502.987,463.439C503.175,463.793 504.825,464.779 505.401,464.38C505.977,463.981 506.351,463.46 507.036,463.439C507.317,463.431 507.524,463.604 507.73,463.777C508.029,464.026 508.326,464.275 508.842,463.981C509.714,463.482 510.461,463.522 512.392,463.439C513.33,463.4 513.916,463.657 514.398,463.914C514.908,464.186 515.302,464.457 515.879,464.38C517,464.229 518.806,464.666 518.432,465.725C518.059,466.783 516.875,466.971 517.622,468.215C518.37,469.461 518.681,469.71 517.685,470.582C516.688,471.453 516.065,472.263 516.563,472.512C517.063,472.761 516.315,474.692 516.315,474.692C516.315,474.692 516.377,474.256 518.059,474.318C519.739,474.381 518.619,476.996 519.491,476.436C520.362,475.875 519.802,475.065 520.86,475.065C521.919,475.065 521.562,475.875 522.083,475.875C522.604,475.875 523.039,476.497 523.227,477.307C523.414,478.117 522.978,479.238 523.601,479.238C524.224,479.238 526.776,479.736 526.154,480.546C525.531,481.354 525.282,482.663 524.659,481.977C524.036,481.292 523.164,479.674 522.604,480.172C522.044,480.67 521.747,481.479 521.396,481.542C521.047,481.605 519.241,481.977 518.931,481.354C518.619,480.733 517.063,479.798 517.063,479.798L514.901,480.546Z" style="fill:rgb(160,163,164);fill-rule:nonzero;"/>
    </g>
    <g transform="matrix(4.16667,0,0,4.16667,-1890.42,-1874.35)">
        <path d="M529.019,465.319C528.898,465.329 528.767,465.318 528.636,465.306C528.226,465.27 527.82,465.235 527.772,465.85C527.71,466.658 527.524,467.717 527.026,467.344C526.528,466.971 526.677,466.146 525.948,466.34C525.22,466.533 525.244,467.966 525.948,468.278C526.652,468.589 527.093,469.772 527.215,470.332C527.337,470.893 528.147,472.886 528.334,473.322C528.521,473.758 529.144,474.193 529.019,474.506C528.893,474.816 529.516,474.63 530.265,473.384C531.011,472.139 531.572,471.453 531.946,472.263C532.319,473.073 532.187,474.879 533.188,474.131C534.188,473.384 535.184,473.073 535.744,474.007C536.306,474.94 535.309,475.688 536.243,476.559C537.177,477.432 538.173,478.49 537.924,478.863C537.675,479.238 538.982,479.611 539.294,479.55C539.606,479.487 539.045,476.559 539.606,476.311C540.166,476.062 540.228,476.934 540.788,477.121C541.349,477.307 543.093,476.622 543.218,475.189C543.342,473.758 542.407,471.89 541.287,471.702C540.86,471.631 540.803,471.705 540.728,471.778C540.607,471.897 540.436,472.017 538.547,471.516C535.495,470.707 533.822,468.837 533.911,468.34C534.001,467.841 534.748,467.654 532.257,466.971C529.767,466.284 530.097,465.235 529.019,465.319Z" style="fill:rgb(160,163,164);fill-rule:nonzero;"/>
    </g>
    <g transform="matrix(4.16667,0,0,4.16667,-1890.42,-1874.35)">
        <path d="M548.315,486.478C547.693,486.976 547.194,487.535 547.88,488.033C548.565,488.531 549.001,489.466 548.628,489.652C548.254,489.839 548.216,490.671 547.55,490.35C546.884,490.026 546.261,490.587 546.696,491.396C547.133,492.206 547.063,492.267 547.658,492.829C547.956,493.109 548.281,492.837 548.603,492.564C548.937,492.282 549.267,492 549.561,492.33C550.06,492.892 550.37,492.57 550.683,492.948C550.993,493.327 551.43,493.639 551.305,491.77C551.181,489.901 550.808,489.217 550.745,488.469C550.683,487.723 550.432,488.469 549.811,487.66C549.188,486.85 548.315,486.478 548.315,486.478Z" style="fill:rgb(160,163,164);fill-rule:nonzero;"/>
    </g>
    <g transform="matrix(4.16667,0,0,4.16667,-1890.42,-1874.35)">
        <path d="M551.007,496.932C550.072,497.181 549.761,497.679 549.948,498.986C550.135,500.294 550.343,502.287 549.896,502.598C549.45,502.909 549.698,502.909 549.512,504.093C549.325,505.276 549.076,505.836 549.512,506.896C549.948,507.954 550.259,511.192 549.823,511.379C549.388,511.565 552.128,509.055 551.94,503.055C551.754,497.057 551.007,496.932 551.007,496.932Z" style="fill:rgb(160,163,164);fill-rule:nonzero;"/>
    </g>
    <g transform="matrix(4.16667,0,0,4.16667,-1890.42,-1874.35)">
        <path d="M510.835,501.034C510.212,501.221 510.109,502.528 509.538,502.716C508.967,502.903 509.402,503.41 508.904,504.091C508.405,504.77 508.036,504.272 507.878,505.206C507.722,506.141 508.282,506.95 508.655,507.76C509.028,508.569 509.775,509.441 510.398,509.939C511.02,510.438 511.643,511.185 511.894,510.625C512.143,510.063 513.637,510.893 514.57,511.319C515.505,511.745 515.879,512.584 516.563,512.664C517.249,512.742 517.809,514.216 517.435,514.195C517.063,514.175 516.439,512.805 515.879,513.613C515.318,514.423 514.508,515.857 514.943,516.54C515.38,517.225 515.505,518.596 516.875,518.035C518.245,517.475 519.055,518.845 519.241,519.095C519.341,519.227 519.854,518.951 520.362,518.674C520.805,518.433 521.242,518.193 521.396,518.222C521.732,518.284 521.234,519.039 522.231,519.13C522.502,519.153 522.767,519.143 523,519.134C523.629,519.107 524.026,519.081 523.663,519.717C523.164,520.589 523.039,520.713 521.732,520.901C520.425,521.086 519.677,523.64 520.3,524.263C520.922,524.885 521.794,525.052 522.791,525.405C523.221,525.557 523.674,525.55 524.06,525.544C524.57,525.536 524.963,525.527 525.033,525.881C525.157,526.505 526.466,525.799 526.714,525.405C526.964,525.01 527.835,523.516 527.71,522.831C527.587,522.146 527.587,521.771 528.085,521.522C528.583,521.272 528.645,520.651 528.458,519.406C528.362,518.768 528.577,518.799 528.516,518.831C528.458,518.862 528.151,518.893 527.089,518.346C524.909,517.225 524.909,516.416 523.788,516.665C522.667,516.914 521.81,517.536 521.396,516.416C520.985,515.297 520.823,515.172 521.122,514.734C521.421,514.299 522.354,514.141 522.418,512.664C522.479,511.185 522.978,510.811 523.289,509.939C523.601,509.068 523.352,506.764 522.044,505.767C520.736,504.77 510.835,501.034 510.835,501.034Z" style="fill:rgb(160,163,164);fill-rule:nonzero;"/>
    </g>
    <g transform="matrix(4.16667,0,0,4.16667,-1890.42,-1874.35)">
        <path d="M460.454,477.307C460.403,477.486 465.001,476.248 465.935,475.502C466.868,474.754 469.048,473.571 469.858,472.574C470.667,471.577 472.313,470.352 472.337,470.29C472.36,470.227 473.781,469.523 474.155,468.713C474.528,467.903 474.342,466.26 475.026,466.614C475.712,466.971 475.836,468.526 476.521,467.654C477.206,466.783 478.517,465.911 478.89,465.911C479.261,465.911 482.251,464.292 483.31,464.167C484.368,464.043 485.551,464.043 485.114,463.047C484.679,462.051 484.368,460.431 483.372,460.681C482.375,460.93 481.255,461.988 480.942,461.302C480.632,460.618 479.389,461.863 478.89,461.926C478.39,461.988 478.95,461.054 477.767,461.801C476.583,462.549 477.704,463.793 476.521,463.482C475.339,463.171 475.836,462.424 474.902,463.233C473.968,464.043 473.905,465.663 473.221,465.476C472.536,465.288 472.286,463.918 472.536,463.545C472.785,463.171 474.279,461.926 474.528,461.302C474.778,460.681 475.587,459.621 475.587,459.621C475.587,459.621 462.261,470.955 460.454,477.307Z" style="fill:rgb(160,163,164);fill-rule:nonzero;"/>
    </g>
    <g transform="matrix(4.16667,0,0,4.16667,-1890.42,-1874.35)">
        <path d="M473.345,467.654C472.598,468.028 471.436,468.942 470.688,469.274C469.94,469.606 469.276,470.436 468.612,471.434C467.948,472.43 465.706,474.754 464.876,474.837C464.568,474.868 464.284,474.785 464.022,474.701C463.577,474.56 463.197,474.419 462.884,474.837C462.385,475.502 461.306,475.418 461.306,475.418C461.306,475.418 455.669,482.235 454.756,490.289C454.168,495.47 454.608,494.635 455.018,493.8C455.245,493.336 455.464,492.873 455.493,493.437C455.576,495.015 455.576,499.083 455.576,499.083C455.576,499.083 455.327,502.903 455.991,504.148C456.655,505.393 458.399,509.213 458.399,510.209C458.399,511.206 460.475,514.609 460.558,513.531C460.642,512.453 461.14,511.289 461.472,511.952C461.804,512.617 463.464,514.943 464.046,514.609C464.626,514.277 465.125,515.938 465.623,515.938C466.122,515.938 465.54,514.029 466.37,514.443C467.2,514.858 466.038,515.772 467.948,517.018C469.858,518.264 468.944,518.927 468.695,519.592C468.446,520.258 469.442,521.336 468.695,521.501C468.396,521.568 468.044,521.209 467.676,520.85C467.124,520.312 466.536,519.776 466.038,520.672C465.208,522.166 465.208,524.324 466.868,525.404C468.53,526.483 470.605,529.723 471.187,530.303C471.768,530.885 472.931,532.462 473.345,531.051C473.761,529.639 472.931,526.068 473.345,525.984C473.761,525.902 471.602,522.746 471.685,522.415C471.768,522.083 472.506,521.834 473.465,521.834C474.425,521.834 475.339,521.005 474.508,520.008C473.677,519.01 472.765,517.268 472.765,517.268C472.765,517.268 475.67,518.513 476.169,519.26C476.441,519.667 477.058,519.63 477.576,519.594C478.008,519.562 478.372,519.531 478.409,519.758C478.493,520.258 478.493,521.501 478.409,521.917C478.327,522.332 476.833,523.328 476.833,523.743C476.833,524.159 478.493,526.816 479.323,527.563C479.686,527.89 479.922,527.345 480.128,526.801C480.394,526.099 480.61,525.397 480.984,526.566C481.648,528.643 481.315,530.635 482.645,531.051C483.248,531.239 483.955,530.999 484.632,530.759C485.445,530.47 486.215,530.182 486.714,530.636C487.626,531.465 489.868,532.379 490.367,530.303C490.864,528.227 491.529,527.563 490.367,525.902C489.204,524.242 488.374,523.495 489.536,522.746C490.699,522 492.11,519.758 491.363,519.344C490.616,518.928 488.042,518.845 487.876,516.935C487.71,515.024 483.891,512.867 484.223,512.118C484.555,511.371 487.128,511.538 488.374,509.711C489.619,507.885 490.286,506.64 491.572,508.466C492.858,510.292 494.021,510.957 495.267,510.541C496.511,510.126 497.342,510.126 498.338,509.545C499.335,508.964 501.908,506.805 495.847,506.64C489.786,506.474 490.284,503.399 491.446,501.324C492.608,499.249 494.519,499.249 494.519,499.249C494.519,499.249 490.864,497.091 490.782,496.675C490.699,496.26 488.292,495.264 492.692,493.686C497.093,492.108 494.851,490.198 493.605,489.866C492.36,489.533 488.956,488.122 489.786,486.296C490.616,484.469 492.36,482.56 493.273,482.56C494.186,482.56 496.761,481.064 498.338,480.234C499.916,479.403 498.317,481.396 499.739,482.476C501.161,483.556 501.909,483.887 502.407,481.977C502.905,480.068 502.407,478.823 503.071,477.826C503.735,476.83 504.399,475.834 503.071,475.418C502.543,475.253 502.094,475.495 501.692,475.736C501.082,476.103 500.582,476.469 500.082,475.418C499.251,473.675 498.92,473.343 497.591,471.931C496.263,470.52 497.259,470.685 494.519,470.104C491.778,469.523 491.862,468.942 490.616,468.36C489.37,467.779 485.302,468.942 484.888,469.108C484.472,469.274 484.721,472.761 483.808,471.267C482.894,469.772 485.8,468.193 481.316,468.526C476.833,468.858 477.663,469.689 477.331,471.599C476.999,473.509 476.251,474.588 474.591,475.751C472.931,476.912 470.439,475.584 470.938,474.09C471.436,472.596 473.345,467.654 473.345,467.654Z" style="fill:rgb(147,153,154);fill-rule:nonzero;"/>
    </g>
    <g transform="matrix(4.16667,0,0,4.16667,-1890.42,-1874.35)">
        <path d="M509.465,478.823C508.86,477.539 509.216,477.826 506.974,478.823C504.731,479.818 505.231,480.068 504.399,481.977C503.569,483.888 503.901,484.386 502.988,484.469C502.075,484.551 501.327,485.217 501.161,485.881C500.995,486.545 502.324,487.458 502.407,488.455C502.489,489.451 502.324,490.863 503.237,491.609C504.151,492.357 504.552,492.191 505.306,492.855C506.061,493.519 506.808,494.849 508.302,495.43C509.798,496.01 510.129,496.094 511.043,495.845C511.956,495.595 512.869,495.43 513.948,495.346C515.028,495.264 516.19,494.6 516.854,493.603C517.518,492.605 518.765,492.191 519.429,491.693C520.093,491.194 518.765,488.952 519.429,487.79C520.093,486.628 522.833,487.209 520.425,485.964C518.017,484.718 516.024,482.809 517.353,481.064C518.101,480.083 518.823,480.154 519.296,480.226C519.663,480.282 519.88,480.338 519.844,479.902C519.761,478.906 517.768,477.909 516.604,477.66C515.443,477.411 515.36,479.072 513.865,479.238C512.37,479.403 510.13,480.234 509.465,478.823Z" style="fill:rgb(147,153,154);fill-rule:nonzero;"/>
    </g>
    <g transform="matrix(4.16667,0,0,4.16667,-1890.42,-1874.35)">
        <path d="M514.695,495.976C514.015,496.25 514.943,497.422 513.698,498.252C512.453,499.083 511.043,500.743 510.378,500.494C509.714,500.246 509.05,501.407 510.046,501.822C511.043,502.238 511.004,503.233 511.272,504.148C511.54,505.06 512.122,507.72 512.952,508.05C513.781,508.382 513.117,510.043 514.28,510.126C515.443,510.209 516.854,510.79 516.938,511.538C517.02,512.285 517.602,512.118 518.101,512.036C518.279,512.006 518.585,512.177 518.935,512.347C519.563,512.653 520.331,512.959 520.757,512.112C521.422,510.79 522.667,510.376 522.999,508.88C523.331,507.386 522.085,505.643 524.659,506.888C527.233,508.134 527.815,508.798 528.729,507.885C529.077,507.536 529.244,507.538 529.364,507.54C529.557,507.543 529.626,507.547 530.14,506.058C530.97,503.649 529.06,502.155 530.14,500.992C531.22,499.83 530.224,499.083 531.967,499C533.71,498.916 532.05,498.169 530.306,497.422C528.562,496.675 528.147,495.761 528.147,494.931C528.147,494.101 528.229,493.437 528.645,492.938C529.06,492.439 528.147,492.273 526.984,492.066C525.823,491.858 526.237,491.693 525.407,490.53C524.577,489.367 522.916,490.78 523.414,491.36C523.913,491.941 526.071,494.516 524.245,494.267C522.418,494.019 521.089,492.439 520.757,492.439C520.425,492.439 517.565,492.854 517.565,492.854C517.565,492.854 516.44,495.279 514.695,495.976Z" style="fill:rgb(147,153,154);fill-rule:nonzero;"/>
    </g>
    <g transform="matrix(4.16667,0,0,4.16667,-1890.42,-1874.35)">
        <path d="M538.276,485.881C537.562,486.11 537.53,486.96 536.948,487.624C536.367,488.289 535.288,489.367 534.873,489.7C534.458,490.032 534.624,491.527 535.206,492.066C535.786,492.605 536.035,493.768 535.703,493.852C535.371,493.935 535.325,495.347 534.642,494.267C533.96,493.188 533.415,494.433 534.642,495.679C535.869,496.924 536.783,496.675 537.612,497.173C538.443,497.671 538.858,498.585 540.271,497.506C541.682,496.425 542.097,495.679 542.927,495.097C543.757,494.516 542.679,492.191 543.509,492.066C544.339,491.941 545.003,491.443 544.505,490.53C544.007,489.617 544.255,488.039 542.429,487.791C540.602,487.541 538.715,485.739 538.276,485.881Z" style="fill:rgb(147,153,154);fill-rule:nonzero;"/>
    </g>
    <g transform="matrix(4.16667,0,0,4.16667,-1890.42,-1874.35)">
        <path d="M536.948,502.985C534.624,502.985 534.611,504.813 533.911,505.892C533.212,506.971 532.631,508.216 532.133,508.299C531.634,508.382 530.638,509.296 531.22,510.458C531.801,511.621 533.046,511.547 533.046,512.664C533.046,513.779 531.696,513.448 531.042,513.198C530.39,512.949 529.56,513.448 529.56,514.112C529.56,514.776 530.638,515.69 529.974,516.021C529.31,516.354 529.393,518.015 530.224,517.435C531.054,516.852 532.2,515.772 532.706,516.436C533.212,517.101 531.287,518.015 532.706,518.264C534.126,518.513 534.79,518.099 535.206,517.683C535.446,517.443 535.742,517.508 536.093,517.573C536.349,517.621 536.634,517.669 536.948,517.599C537.696,517.435 539.024,515.026 539.606,514.943C540.187,514.858 537.53,518.015 536.948,518.845C536.367,519.675 535.758,520.422 534.61,520.341C533.462,520.258 532.632,519.509 532.299,521.751C531.967,523.992 533.911,525.405 533.911,525.405C533.911,525.405 536.367,525.154 536.866,523.826C537.364,522.498 538.982,521.751 539.294,521.252C539.606,520.755 541.184,518.099 541.433,516.436C541.682,514.776 540.768,512.7 541.433,511.786C542.097,510.874 543.841,510.376 543.757,508.798C543.674,507.22 542.927,505.226 541.433,505.226C539.938,505.226 538.941,504.064 538.692,503.649C538.443,503.234 536.948,502.985 536.948,502.985Z" style="fill:rgb(147,153,154);fill-rule:nonzero;"/>
    </g>
    <g transform="matrix(4.16667,0,0,4.16667,-1890.42,-1874.35)">
        <path d="M529.974,459.061C526.901,458.313 525.241,457.566 526.237,458.563C527.233,459.56 528.811,460.39 528.396,461.137C527.98,461.884 529.31,462.216 530.722,462.133C532.133,462.051 534.11,461.801 532.706,460.722C531.302,459.642 529.974,459.061 529.974,459.061Z" style="fill:rgb(147,153,154);fill-rule:nonzero;"/>
    </g>
    <g transform="matrix(4.16667,0,0,4.16667,-1890.42,-1874.35)">
        <path d="M493.615,466.689C494.527,466.369 495.359,467.125 495.079,468.028C494.799,468.932 493.273,469.305 492.837,468.683C492.401,468.06 492.464,467.095 493.615,466.689Z" style="fill:rgb(147,153,154);fill-rule:nonzero;"/>
    </g>
    <g transform="matrix(4.16667,0,0,4.16667,-1890.42,-1874.35)">
        <path d="M504.358,453.581C503.935,453.689 503.536,453.83 503.838,454.173C504.14,454.516 504.98,454.732 505.323,454.422C505.666,454.109 504.796,453.47 504.358,453.581Z" style="fill:rgb(147,153,154);fill-rule:nonzero;"/>
    </g>
    <g transform="matrix(4.16667,0,0,4.16667,-1890.42,-1874.35)">
        <path d="M515.132,453.394C514.341,452.958 513.948,453.686 514.414,454.069C514.882,454.453 516.315,454.048 515.132,453.394Z" style="fill:rgb(147,153,154);fill-rule:nonzero;"/>
    </g>
    <g transform="matrix(4.16667,0,0,4.16667,-1890.42,-1874.35)">
        <path d="M521.452,454.795C521.106,454.564 521.328,454.297 521.794,454.391C522.262,454.483 523.039,455.138 522.853,455.169C522.667,455.2 521.919,455.106 521.452,454.795Z" style="fill:rgb(147,153,154);fill-rule:nonzero;"/>
    </g>
    <g transform="matrix(4.16667,0,0,4.16667,-1890.42,-1874.35)">
        <path d="M525.407,463.45C526.059,463.513 526.776,464.199 526.56,464.852C526.341,465.507 525.345,465.444 524.659,464.852C523.974,464.261 524.099,463.326 525.407,463.45Z" style="fill:rgb(147,153,154);fill-rule:nonzero;"/>
    </g>
    <g transform="matrix(4.16667,0,0,4.16667,-1890.42,-1874.35)">
        <path d="M481.462,457.815C481.102,457.644 481.233,456.819 482.313,456.217C483.392,455.614 483.974,455.448 484.223,455.968C484.472,456.486 484.015,457.109 483.413,457.462C482.812,457.815 481.897,458.023 481.462,457.815Z" style="fill:rgb(147,153,154);fill-rule:nonzero;"/>
    </g>
    <g transform="matrix(4.16667,0,0,4.16667,-1890.42,-1874.35)">
        <path d="M480.901,530.594C480.071,529.723 487.129,536.696 487.71,537.152C488.291,537.609 485.551,534.039 484.887,533.334C484.223,532.628 485.261,532.966 486.132,533.856C487.004,534.746 488.244,534.829 487.79,534.165C487.336,533.499 487.503,532.628 488.581,533.458C489.661,534.289 490.034,533.915 490.367,533.209C490.699,532.504 491.864,530.635 491.718,532.047C491.571,533.458 491.599,534.123 491.729,534.247C491.861,534.371 492.317,530.095 492.692,529.39C493.065,528.684 494.062,532.047 494.103,532.171C494.145,532.296 494.976,532.317 495.723,531.622C496.47,530.925 497.882,529.236 498.172,529.292C498.462,529.349 502.199,524.657 502.489,521.792C502.78,518.927 503.61,523.951 498.712,530.429C493.813,536.904 499.169,531.465 499.417,531.425C499.529,531.405 499.532,531.811 499.562,532.216C499.598,532.716 499.673,533.217 500.04,532.919C500.704,532.379 504.15,531.84 505.438,529.889C506.725,527.937 504.773,531.922 502.987,532.96C501.202,533.997 499.916,536.612 500.124,536.488C500.331,536.364 504.399,535.617 508.967,533.666C513.533,531.715 517.104,528.643 517.353,528.435C517.601,528.227 506.351,536.116 504.274,537.402C502.199,538.689 504.399,538.689 505.229,538.439C506.061,538.191 508.177,538.568 508.177,538.568L506.476,539.603C506.476,539.603 516.853,537.858 518.203,536.946C519.554,536.032 520.55,536.406 521.753,535.534C522.956,534.662 515.11,539.188 512.619,539.811C510.129,540.434 507.555,540.683 507.347,540.973C507.14,541.264 507.928,542.052 508.634,542.052C509.34,542.052 511.997,542.758 512.661,542.344C513.325,541.928 519.927,540.434 522.293,539.062C524.659,537.692 526.86,536.116 527.109,535.866C527.358,535.617 527.856,536.24 527.109,536.862C526.362,537.485 524.825,539.062 523.039,539.603C521.255,540.143 518.017,541.222 516.979,541.804C515.94,542.384 513.076,544.128 514.405,544.004C515.732,543.879 520.3,542.758 520.3,542.758C520.3,542.758 517.518,544.75 515.526,545.249C513.533,545.747 512.163,546.536 510.461,546.91C508.759,547.284 508.054,547.574 507.14,547.574C506.226,547.574 492.774,548.237 488.872,545.581C484.97,542.924 486.298,542.758 486.298,542.758C486.298,542.758 486.133,542.758 484.97,542.924C483.808,543.09 485.468,541.845 485.8,541.679C486.132,541.513 481.731,540.849 481.565,541.098C481.399,541.347 479.573,539.603 479.573,539.603C479.573,539.603 480.818,538.855 481.233,538.689C481.648,538.522 477.829,537.942 475.587,536.447C473.345,534.953 471.187,532.876 471.187,532.876C471.187,532.876 475.919,534.043 477.746,534.541C479.573,535.036 476.046,536.281 478.89,536.696C481.731,537.111 483.392,536.198 483.392,536.198L480.901,530.594Z" style="fill:rgb(232,234,234);fill-rule:nonzero;"/>
    </g>
    <g transform="matrix(4.16667,0,0,4.16667,-1890.42,-1874.35)">
        <path d="M478.89,498.916C478.868,499.478 477.829,499.072 477.704,499.639C477.58,500.204 477.788,500.66 477.538,500.702C477.289,500.742 478.368,500.992 478.41,501.365C478.452,501.739 478.202,502.737 479.407,502.445C480.61,502.155 480.278,501.698 481.524,501.365C482.77,501.034 483.144,498.833 482.521,498.377C481.897,497.921 478.952,497.298 478.89,498.916Z" style="fill:rgb(232,234,234);fill-rule:nonzero;"/>
    </g>
    <g transform="matrix(4.16667,0,0,4.16667,-1890.42,-1874.35)">
        <path d="M529.53,535.118C530.057,534.331 528.852,535.866 527.897,536.656C526.942,537.444 529.185,536.198 530.347,535.285C531.511,534.371 531.676,534.165 532.464,533.956C532.825,533.861 532.864,534.14 532.853,534.419C532.839,534.749 532.753,535.079 533.046,534.787C533.585,534.247 533.503,533.126 534.125,533.044C534.748,532.96 534.997,532.669 535.122,532.254C535.247,531.84 535.911,531.549 536.159,531.425C536.409,531.3 535.495,530.925 536.159,530.553C536.823,530.179 536.491,530.385 537.321,529.93C538.153,529.473 538.276,529.805 539.315,527.978C540.352,526.151 539.688,526.358 538.733,527.271C537.779,528.186 537.156,529.473 537.031,528.352C536.907,527.231 537.28,526.271 537.28,526.128C537.28,525.984 535.37,527.604 534.374,528.186C533.378,528.767 533.88,527.231 533.753,526.649C533.627,526.068 532.382,525.487 532.507,526.692C532.63,527.896 532.797,529.556 532.34,529.598C531.884,529.639 533.461,529.639 530.888,528.684C528.313,527.728 528.147,527.604 528.022,528.311C527.897,529.016 528.479,529.889 530.057,530.303C531.634,530.718 532.963,531.383 531.759,531.84C531.202,532.051 531.072,531.986 530.94,531.922C530.787,531.847 530.633,531.772 529.808,532.13C528.271,532.794 527.109,534.247 528.271,533.873C529.434,533.499 530.472,533.209 530.679,533.209C530.888,533.209 529.53,535.118 529.53,535.118Z" style="fill:rgb(232,234,234);fill-rule:nonzero;"/>
    </g>
    <g transform="matrix(4.16667,0,0,4.16667,-1890.42,-1874.35)">
        <path d="M503.732,548.582L503.732,547.644C505.561,547.63 506.875,547.574 507.14,547.574C508.054,547.574 508.759,547.284 510.461,546.91C512.163,546.536 513.533,545.747 515.526,545.249C517.518,544.75 520.3,542.758 520.3,542.758C520.3,542.758 515.732,543.879 514.405,544.004C514.36,544.008 514.318,544.01 514.284,544.01C513.27,544.01 515.976,542.364 516.979,541.804C518.017,541.222 521.255,540.143 523.039,539.603C524.825,539.062 526.362,537.485 527.109,536.862C527.741,536.336 527.483,535.81 527.237,535.81C527.192,535.81 527.148,535.828 527.109,535.866C526.86,536.116 524.659,537.692 522.293,539.062C519.927,540.434 513.325,541.928 512.661,542.344C512.51,542.438 512.258,542.474 511.948,542.474C510.892,542.474 509.18,542.052 508.634,542.052C507.928,542.052 507.14,541.264 507.347,540.973C507.555,540.683 510.129,540.434 512.619,539.811C514.278,539.396 518.31,537.251 520.466,536.121C520.886,536.011 521.305,535.859 521.753,535.534C521.857,535.458 521.893,535.423 521.87,535.423C521.805,535.423 521.263,535.702 520.466,536.121C519.758,536.306 519.051,536.373 518.203,536.946C516.853,537.858 506.476,539.603 506.476,539.603L508.177,538.568C508.177,538.568 506.978,538.355 506.031,538.355C505.72,538.355 505.435,538.378 505.229,538.439C504.976,538.516 504.593,538.569 504.245,538.569C504.055,538.569 503.876,538.553 503.732,538.517L503.732,537.786C503.865,537.673 504.043,537.546 504.274,537.402C505.338,536.743 508.812,534.35 511.912,532.201C514.991,530.461 517.159,528.595 517.353,528.435C517.356,528.432 517.357,528.431 517.356,528.431C517.335,528.431 514.783,530.211 511.912,532.201C511.001,532.716 510.01,533.22 508.967,533.666C507.052,534.484 505.224,535.091 503.732,535.528L503.732,532.38C504.914,531.252 505.958,529.358 505.845,529.358C505.812,529.358 505.685,529.514 505.438,529.889C505.032,530.503 504.412,530.978 503.732,531.357L503.732,504.135C503.952,504.124 504.144,504.071 504.296,503.961C504.98,503.463 505.354,502.15 505.229,501.373C505.104,500.599 504.794,499.924 504.98,499.639C505.006,499.6 505.056,499.585 505.125,499.585C505.253,499.585 505.444,499.636 505.661,499.688C505.879,499.739 506.122,499.791 506.351,499.791C506.69,499.791 507,499.679 507.16,499.291C507.597,498.231 508.53,496.986 507.16,496.363C505.79,495.74 506.164,496.487 504.483,495.117C504.199,494.885 503.95,494.669 503.732,494.469L503.732,491.963C504.326,492.324 504.703,492.325 505.306,492.855C506.061,493.519 506.808,494.849 508.302,495.43C509.282,495.81 509.762,495.977 510.234,495.977C510.482,495.977 510.728,495.931 511.043,495.845C511.956,495.595 512.869,495.43 513.948,495.346C515.028,495.264 516.19,494.6 516.854,493.603C517.518,492.605 518.765,492.191 519.429,491.693C520.093,491.194 518.765,488.952 519.429,487.79C520.093,486.628 522.833,487.209 520.425,485.964C518.017,484.718 516.024,482.809 517.353,481.064C517.576,480.771 517.797,480.572 518.008,480.439C518.398,480.732 518.789,481.075 518.931,481.354C519.067,481.628 519.492,481.71 519.956,481.71C520.547,481.71 521.201,481.577 521.396,481.542C521.747,481.479 522.044,480.67 522.604,480.172C522.677,480.107 522.755,480.078 522.836,480.078C523.387,480.078 524.117,481.381 524.659,481.977C524.781,482.112 524.889,482.17 524.988,482.17C525.394,482.169 525.653,481.196 526.154,480.546C526.776,479.736 524.224,479.238 523.601,479.238C522.978,479.238 523.414,478.117 523.227,477.307C523.039,476.497 522.604,475.875 522.083,475.875C521.562,475.875 521.919,475.065 520.86,475.065C519.802,475.065 520.362,475.875 519.491,476.436C519.406,476.49 519.341,476.514 519.289,476.514C518.81,476.514 519.577,474.375 518.059,474.318C517.945,474.314 517.841,474.312 517.742,474.312C516.607,474.312 516.373,474.572 516.326,474.662C516.418,474.416 517.026,472.742 516.563,472.512C516.065,472.263 516.688,471.453 517.685,470.582C518.681,469.71 518.37,469.461 517.622,468.215C516.875,466.971 518.059,466.783 518.432,465.725C518.758,464.801 517.426,464.351 516.336,464.351C516.177,464.351 516.021,464.361 515.879,464.38C515.81,464.389 515.745,464.393 515.682,464.393C515.208,464.393 514.848,464.154 514.398,463.914C513.948,463.675 513.411,463.435 512.581,463.435C512.518,463.435 512.456,463.437 512.392,463.439C510.461,463.522 509.714,463.482 508.842,463.981C508.675,464.076 508.531,464.114 508.403,464.114C508.134,464.114 507.932,463.945 507.73,463.777C507.528,463.608 507.326,463.439 507.055,463.439L507.036,463.439C506.351,463.46 505.977,463.981 505.401,464.38C505.307,464.445 505.184,464.474 505.043,464.474C504.662,464.474 504.152,464.266 503.732,464.027L503.732,453.963C503.735,454.024 503.767,454.093 503.838,454.173C504.038,454.4 504.474,454.571 504.845,454.571C505.035,454.571 505.207,454.527 505.323,454.422C505.639,454.134 504.925,453.568 504.469,453.568C504.43,453.568 504.393,453.572 504.358,453.581C504.043,453.662 503.741,453.761 503.732,453.947L503.732,449.848C530.693,450.203 552.442,472.17 552.442,499.215C552.442,526.261 530.693,548.227 503.732,548.582ZM529.656,534.9C529.598,534.9 528.667,536.02 527.897,536.656C527.685,536.832 527.631,536.906 527.688,536.906C527.887,536.906 529.443,535.995 530.347,535.285C531.511,534.371 531.676,534.165 532.464,533.956C532.513,533.943 532.556,533.937 532.594,533.937C532.835,533.937 532.863,534.178 532.853,534.419C532.843,534.659 532.795,534.9 532.882,534.9C532.915,534.9 532.966,534.867 533.046,534.787C533.585,534.247 533.503,533.126 534.125,533.044C534.748,532.96 534.997,532.669 535.122,532.254C535.247,531.84 535.911,531.549 536.159,531.425C536.409,531.3 535.495,530.925 536.159,530.553C536.823,530.179 536.491,530.385 537.321,529.93C538.153,529.473 538.276,529.805 539.315,527.978C539.882,526.98 539.941,526.589 539.721,526.589C539.539,526.589 539.166,526.857 538.733,527.271C538.044,527.932 537.527,528.788 537.246,528.788C537.139,528.788 537.066,528.662 537.031,528.352C536.907,527.231 537.28,526.271 537.28,526.128C537.28,526.122 537.277,526.119 537.27,526.119C537.121,526.119 535.328,527.628 534.374,528.186C534.22,528.275 534.102,528.315 534.012,528.315C533.518,528.315 533.86,527.141 533.753,526.649C533.681,526.318 533.245,525.987 532.907,525.987C532.652,525.987 532.453,526.175 532.507,526.692C532.63,527.896 532.797,529.556 532.34,529.598C532.326,529.599 532.313,529.6 532.303,529.601C532.447,529.56 532.724,529.365 530.888,528.684C529.408,528.135 528.724,527.86 528.386,527.86C528.136,527.86 528.076,528.01 528.022,528.311C527.897,529.016 528.479,529.889 530.057,530.303C531.634,530.718 532.963,531.383 531.759,531.84C531.471,531.949 531.298,531.984 531.179,531.984C531.067,531.984 531.004,531.953 530.94,531.922C530.877,531.891 530.813,531.86 530.701,531.86C530.543,531.86 530.29,531.921 529.808,532.13C528.442,532.72 527.372,533.934 527.967,533.934C528.042,533.934 528.142,533.915 528.271,533.873C529.434,533.499 530.472,533.209 530.679,533.209C530.887,533.209 529.536,535.11 529.53,535.118C529.633,534.965 529.669,534.9 529.656,534.9ZM524.284,525.541C524.682,525.541 524.973,525.581 525.033,525.881C525.068,526.058 525.2,526.128 525.375,526.128C525.816,526.128 526.536,525.687 526.714,525.405C526.964,525.01 527.835,523.516 527.71,522.831C527.587,522.146 527.587,521.771 528.085,521.522C528.583,521.272 528.645,520.651 528.458,519.406C528.402,519.034 528.452,518.889 528.491,518.839C528.502,518.837 528.511,518.834 528.516,518.831C528.53,518.824 528.53,518.818 528.523,518.818C528.517,518.818 528.505,518.823 528.491,518.839C528.476,518.844 528.457,518.845 528.43,518.845C528.277,518.845 527.906,518.766 527.089,518.346C525.177,517.363 524.942,516.62 524.156,516.62C524.047,516.62 523.926,516.634 523.788,516.665C523.158,516.805 522.611,517.063 522.18,517.063C521.844,517.063 521.578,516.906 521.396,516.416C520.985,515.297 520.823,515.172 521.122,514.734C521.421,514.299 522.354,514.141 522.418,512.664C522.479,511.185 522.978,510.811 523.289,509.939C523.503,509.343 523.453,508.073 522.979,507.012C522.981,506.679 523.064,506.463 523.393,506.463C523.646,506.463 524.043,506.59 524.659,506.888C526.404,507.732 527.234,508.309 527.871,508.309C528.174,508.309 528.434,508.179 528.729,507.885C529.051,507.562 529.218,507.54 529.336,507.54L529.39,507.54C529.565,507.54 529.65,507.477 530.14,506.058C530.97,503.649 529.06,502.155 530.14,500.992C531.22,499.83 530.224,499.083 531.967,499C533.71,498.916 532.05,498.169 530.306,497.422C528.562,496.675 528.147,495.761 528.147,494.931C528.147,494.101 528.229,493.437 528.645,492.938C529.06,492.439 528.147,492.273 526.984,492.066C525.823,491.858 526.237,491.693 525.407,490.53C525.178,490.209 524.885,490.084 524.592,490.084C523.823,490.084 523.054,490.94 523.414,491.36C523.89,491.915 525.876,494.283 524.472,494.283C524.404,494.283 524.329,494.278 524.245,494.267C522.418,494.019 521.089,492.439 520.757,492.439C520.425,492.439 517.565,492.854 517.565,492.854C517.565,492.854 516.44,495.279 514.695,495.976C514.015,496.25 514.943,497.422 513.698,498.252C512.539,499.026 511.236,500.519 510.525,500.519C510.473,500.519 510.423,500.511 510.378,500.494C510.315,500.471 510.252,500.46 510.19,500.46C509.603,500.46 509.144,501.447 510.046,501.822C510.088,501.84 510.128,501.858 510.166,501.878C509.991,502.25 509.823,502.622 509.538,502.716C508.967,502.903 509.402,503.41 508.904,504.091C508.405,504.77 508.036,504.272 507.878,505.206C507.722,506.141 508.282,506.95 508.655,507.76C509.028,508.569 509.775,509.441 510.398,509.939C510.864,510.313 511.329,510.824 511.639,510.824C511.744,510.824 511.831,510.766 511.894,510.625C511.953,510.491 512.083,510.436 512.26,510.436C512.823,510.436 513.86,510.994 514.57,511.319C515.505,511.745 515.879,512.584 516.563,512.664C517.244,512.742 517.802,514.195 517.443,514.195L517.435,514.195C517.146,514.18 516.71,513.358 516.267,513.358C516.137,513.358 516.005,513.43 515.879,513.613C515.318,514.423 514.508,515.857 514.943,516.54C515.309,517.114 515.456,518.167 516.297,518.167C516.461,518.167 516.651,518.127 516.875,518.035C517.104,517.941 517.318,517.902 517.516,517.902C518.499,517.902 519.086,518.886 519.241,519.095C519.258,519.118 519.289,519.13 519.331,519.13C519.524,519.13 519.945,518.902 520.362,518.674C520.78,518.448 521.193,518.219 521.369,518.219C521.379,518.219 521.388,518.22 521.396,518.222C521.732,518.284 521.234,519.039 522.231,519.13C522.357,519.14 522.482,519.144 522.602,519.144C522.742,519.144 522.875,519.139 523,519.134C523.125,519.128 523.242,519.123 523.344,519.123C523.757,519.123 523.953,519.208 523.663,519.717C523.164,520.589 523.039,520.713 521.732,520.901C520.425,521.086 519.677,523.64 520.3,524.263C520.922,524.885 521.794,525.052 522.791,525.405C523.133,525.526 523.492,525.547 523.818,525.547C523.901,525.547 523.982,525.545 524.06,525.544C524.138,525.543 524.213,525.541 524.284,525.541ZM533.35,520.154C532.855,520.154 532.493,520.446 532.299,521.751C531.967,523.992 533.911,525.405 533.911,525.405C533.911,525.405 536.367,525.154 536.866,523.826C537.364,522.498 538.982,521.751 539.294,521.252C539.606,520.755 541.184,518.099 541.433,516.436C541.682,514.776 540.768,512.7 541.433,511.786C542.097,510.874 543.841,510.376 543.757,508.798C543.674,507.22 542.927,505.226 541.433,505.226C539.938,505.226 538.941,504.064 538.692,503.649C538.443,503.234 536.948,502.985 536.948,502.985C534.624,502.985 534.611,504.813 533.911,505.892C533.212,506.971 532.631,508.216 532.133,508.299C531.634,508.382 530.638,509.296 531.22,510.458C531.801,511.621 533.046,511.547 533.046,512.664C533.046,513.265 532.654,513.445 532.19,513.445C531.793,513.445 531.344,513.313 531.042,513.198C530.925,513.154 530.803,513.133 530.68,513.133C530.119,513.133 529.56,513.566 529.56,514.112C529.56,514.776 530.638,515.69 529.974,516.021C529.407,516.305 529.384,517.557 529.906,517.557C529.996,517.557 530.102,517.519 530.224,517.435C530.869,516.982 531.706,516.227 532.284,516.227C532.45,516.227 532.594,516.289 532.706,516.436C533.212,517.101 531.287,518.015 532.706,518.264C533.003,518.316 533.268,518.339 533.503,518.339C534.393,518.339 534.877,518.011 535.206,517.683C535.335,517.553 535.48,517.513 535.641,517.513C535.78,517.513 535.93,517.544 536.093,517.573C536.256,517.604 536.43,517.634 536.617,517.634C536.724,517.634 536.834,517.625 536.948,517.599C537.696,517.435 539.024,515.026 539.606,514.943C539.614,514.941 539.621,514.941 539.628,514.941C540.118,514.941 537.523,518.026 536.948,518.845C536.397,519.633 535.819,520.346 534.781,520.346C534.725,520.346 534.669,520.344 534.61,520.341C534.13,520.305 533.706,520.154 533.35,520.154ZM549.99,511.012C549.828,511.265 549.742,511.388 549.789,511.388C549.797,511.388 549.808,511.385 549.823,511.379C549.902,511.345 549.956,511.213 549.99,511.012C550.562,510.113 552.082,507.573 551.94,503.055C551.754,497.057 551.007,496.932 551.007,496.932C550.072,497.181 549.761,497.679 549.948,498.986C550.135,500.294 550.343,502.287 549.896,502.598C549.45,502.909 549.698,502.909 549.512,504.093C549.325,505.276 549.076,505.836 549.512,506.896C549.87,507.763 550.143,510.097 549.99,511.012ZM534.154,493.855C533.795,493.855 533.744,494.766 534.642,495.679C535.869,496.924 536.783,496.675 537.612,497.173C538.16,497.501 538.527,498.01 539.118,498.01C539.423,498.01 539.789,497.874 540.271,497.506C541.682,496.425 542.097,495.679 542.927,495.097C543.757,494.516 542.679,492.191 543.509,492.066C544.339,491.941 545.003,491.443 544.505,490.53C544.007,489.617 544.255,488.039 542.429,487.791C540.671,487.55 538.857,485.873 538.332,485.873C538.312,485.873 538.293,485.875 538.276,485.881C537.562,486.11 537.53,486.96 536.948,487.624C536.367,488.289 535.288,489.367 534.873,489.7C534.458,490.032 534.624,491.527 535.206,492.066C535.786,492.605 536.035,493.768 535.703,493.852C535.462,493.912 535.372,494.672 535.079,494.672C534.969,494.672 534.829,494.563 534.642,494.267C534.459,493.977 534.286,493.855 534.154,493.855ZM549.268,492.181C549.369,492.181 549.467,492.224 549.561,492.33C550.06,492.892 550.37,492.57 550.683,492.948C550.805,493.097 550.946,493.236 551.065,493.236C551.249,493.236 551.381,492.905 551.305,491.77C551.181,489.901 550.808,489.217 550.745,488.469C550.683,487.723 550.432,488.469 549.811,487.66C549.188,486.85 548.315,486.478 548.315,486.478C547.693,486.976 547.194,487.535 547.88,488.033C548.565,488.531 549.001,489.466 548.628,489.652C548.313,489.809 548.236,490.422 547.824,490.423C547.746,490.423 547.656,490.401 547.55,490.35C547.419,490.286 547.289,490.257 547.169,490.257C546.68,490.257 546.346,490.746 546.696,491.396C547.133,492.206 547.063,492.267 547.658,492.829C547.747,492.913 547.838,492.947 547.93,492.947C548.149,492.947 548.377,492.755 548.603,492.564C548.83,492.373 549.055,492.181 549.268,492.181ZM534.795,473.428C535.171,473.428 535.499,473.599 535.744,474.007C536.306,474.94 535.309,475.688 536.243,476.559C537.177,477.432 538.173,478.49 537.924,478.863C537.693,479.211 538.798,479.556 539.21,479.556C539.243,479.556 539.271,479.554 539.294,479.55C539.606,479.487 539.045,476.559 539.606,476.311C539.675,476.28 539.737,476.266 539.793,476.266C540.189,476.266 540.297,476.957 540.788,477.121C540.848,477.141 540.922,477.151 541.006,477.151C541.705,477.151 543.106,476.468 543.218,475.189C543.342,473.758 542.407,471.89 541.287,471.702C541.164,471.682 541.072,471.673 541.002,471.673C540.826,471.673 540.782,471.726 540.728,471.778C540.675,471.83 540.612,471.883 540.399,471.883C540.126,471.883 539.607,471.797 538.547,471.516C535.495,470.707 533.822,468.837 533.911,468.34C534.001,467.841 534.748,467.654 532.257,466.971C529.861,466.31 530.076,465.315 529.136,465.315C529.099,465.315 529.06,465.316 529.019,465.319C528.987,465.322 528.954,465.323 528.921,465.323C528.829,465.323 528.732,465.315 528.636,465.306C528.54,465.298 528.444,465.289 528.353,465.289C528.055,465.289 527.809,465.379 527.772,465.85C527.719,466.543 527.575,467.421 527.22,467.421C527.162,467.421 527.097,467.397 527.026,467.344C526.579,467.009 526.653,466.311 526.146,466.311C526.089,466.311 526.023,466.32 525.948,466.34C525.22,466.533 525.244,467.966 525.948,468.278C526.652,468.589 527.093,469.772 527.215,470.332C527.337,470.893 528.147,472.886 528.334,473.322C528.521,473.758 529.144,474.193 529.019,474.506C528.985,474.59 529.006,474.638 529.069,474.638C529.24,474.638 529.719,474.292 530.265,473.384C530.788,472.511 531.22,471.912 531.561,471.912C531.706,471.912 531.835,472.021 531.946,472.263C532.258,472.939 532.217,474.308 532.777,474.308C532.888,474.308 533.022,474.255 533.188,474.131C533.75,473.71 534.312,473.428 534.795,473.428ZM525.181,463.439C524.086,463.439 524.016,464.297 524.659,464.852C525.011,465.156 525.443,465.32 525.811,465.32C526.161,465.32 526.453,465.171 526.56,464.852C526.776,464.199 526.059,463.513 525.407,463.45C525.327,463.443 525.252,463.439 525.181,463.439ZM526.104,458.082C525.866,458.082 525.893,458.218 526.237,458.563C527.233,459.56 528.811,460.39 528.396,461.137C528.022,461.809 529.061,462.145 530.302,462.145C530.44,462.145 530.58,462.141 530.722,462.133C532.133,462.051 534.11,461.801 532.706,460.722C531.302,459.642 529.974,459.061 529.974,459.061C527.962,458.572 526.556,458.082 526.104,458.082ZM521.612,454.371C521.276,454.371 521.155,454.597 521.452,454.795C521.864,455.069 522.492,455.175 522.763,455.175C522.801,455.175 522.831,455.173 522.853,455.169C523.039,455.138 522.262,454.483 521.794,454.391C521.729,454.377 521.668,454.371 521.612,454.371ZM514.677,453.259C514.211,453.259 514.05,453.77 514.414,454.069C514.539,454.172 514.734,454.218 514.929,454.218C515.461,454.218 515.998,453.873 515.132,453.394C514.96,453.299 514.806,453.259 514.677,453.259ZM503.732,483.887L503.732,476.689C503.858,476.37 503.887,476.078 503.732,475.841L503.732,470.222C504.083,470.76 504.453,471.318 504.856,471.827C505.464,472.593 505.892,472.776 506.272,472.776C506.446,472.776 506.611,472.738 506.777,472.699C506.944,472.66 507.114,472.621 507.298,472.621C507.474,472.621 507.664,472.657 507.878,472.761C507.96,472.801 508.046,472.819 508.136,472.819C508.708,472.819 509.425,472.071 510.131,471.323C510.837,470.575 511.531,469.827 512.057,469.827C512.086,469.827 512.115,469.829 512.143,469.834C512.211,469.845 512.276,469.851 512.341,469.851C513.338,469.851 513.906,468.574 514.215,468.34C514.489,468.132 515.893,467.752 516.247,467.752C516.317,467.752 516.346,467.767 516.315,467.802C516.128,468.012 515.817,468.589 514.931,469.461C514.046,470.332 513.2,471.08 512.891,472.637C512.76,473.287 513.054,473.438 513.455,473.438C513.628,473.437 513.82,473.41 514.005,473.382C514.193,473.354 514.375,473.327 514.526,473.327C514.714,473.327 514.854,473.37 514.901,473.509C515.107,474.131 514.198,474.193 513.138,474.193C512.08,474.193 511.395,474.816 511.02,475.252C510.647,475.688 510.897,476.372 511.643,476.81C512.392,477.245 512.578,477.635 512.578,477.635C512.578,477.635 512.642,478.429 513.45,478.739C513.742,478.852 513.977,478.996 514.171,479.179C514.076,479.206 513.974,479.226 513.865,479.238C513.029,479.331 511.96,479.631 511.063,479.631C510.357,479.631 509.758,479.445 509.465,478.823C509.181,478.221 509.109,477.964 508.881,477.964C508.623,477.964 508.164,478.294 506.974,478.823C504.731,479.818 505.231,480.068 504.399,481.977C503.992,482.915 503.865,483.512 503.732,483.887Z" style="fill:rgb(108,110,111);fill-rule:nonzero;"/>
    </g>
    <g transform="matrix(4.16667,0,0,4.16667,-1890.42,-1874.35)">
        <path d="M503.732,504.135L503.732,494.469C503.95,494.669 504.199,494.885 504.483,495.117C506.164,496.487 505.79,495.74 507.16,496.363C508.53,496.986 507.597,498.231 507.16,499.291C507,499.679 506.69,499.791 506.351,499.791C506.122,499.791 505.879,499.739 505.661,499.688C505.444,499.636 505.253,499.585 505.125,499.585C505.056,499.585 505.006,499.6 504.98,499.639C504.794,499.924 505.104,500.599 505.229,501.373C505.354,502.15 504.98,503.463 504.296,503.961C504.144,504.071 503.952,504.124 503.732,504.135Z" style="fill:rgb(100,103,104);fill-rule:nonzero;"/>
    </g>
    <g transform="matrix(4.16667,0,0,4.16667,-1890.42,-1874.35)">
        <path d="M524.988,482.17C524.889,482.17 524.781,482.112 524.659,481.977C524.117,481.381 523.387,480.078 522.836,480.078C522.755,480.078 522.677,480.107 522.604,480.172C522.044,480.67 521.747,481.479 521.396,481.542C521.201,481.577 520.547,481.71 519.956,481.71C519.492,481.71 519.067,481.628 518.931,481.354C518.789,481.075 518.398,480.732 518.008,480.439C518.323,480.242 518.619,480.189 518.878,480.189C519.031,480.189 519.172,480.207 519.296,480.226C519.419,480.245 519.526,480.264 519.612,480.264C519.781,480.264 519.867,480.191 519.844,479.902C519.761,478.906 517.768,477.909 516.604,477.66C516.525,477.643 516.448,477.635 516.378,477.635C515.5,477.635 515.288,478.865 514.171,479.179C513.977,478.996 513.742,478.852 513.45,478.739C512.642,478.429 512.578,477.635 512.578,477.635C512.578,477.635 512.392,477.245 511.643,476.81C510.897,476.372 510.647,475.688 511.02,475.252C511.395,474.816 512.08,474.193 513.138,474.193C514.198,474.193 515.107,474.131 514.901,473.509C514.854,473.37 514.714,473.327 514.526,473.327C514.375,473.327 514.193,473.354 514.005,473.382C513.82,473.41 513.628,473.437 513.455,473.438C513.054,473.438 512.76,473.287 512.891,472.637C513.2,471.08 514.046,470.332 514.931,469.461C515.817,468.589 516.128,468.012 516.315,467.802C516.346,467.767 516.317,467.752 516.247,467.752C515.893,467.752 514.489,468.132 514.215,468.34C513.906,468.574 513.338,469.851 512.341,469.851C512.276,469.851 512.211,469.845 512.143,469.834C512.115,469.829 512.086,469.827 512.057,469.827C511.531,469.827 510.837,470.575 510.131,471.323C509.425,472.071 508.708,472.819 508.136,472.819C508.046,472.819 507.96,472.801 507.878,472.761C507.664,472.657 507.474,472.621 507.298,472.621C507.114,472.621 506.944,472.66 506.777,472.699C506.611,472.738 506.446,472.776 506.272,472.776C505.892,472.776 505.464,472.593 504.856,471.827C504.453,471.318 504.083,470.76 503.732,470.222L503.732,464.027C504.152,464.266 504.662,464.474 505.043,464.474C505.184,464.474 505.307,464.445 505.401,464.38C505.977,463.981 506.351,463.46 507.036,463.439L507.055,463.439C507.326,463.439 507.528,463.608 507.73,463.777C507.932,463.945 508.134,464.114 508.403,464.114C508.531,464.114 508.675,464.076 508.842,463.981C509.714,463.482 510.461,463.522 512.392,463.439C512.456,463.437 512.518,463.435 512.581,463.435C513.411,463.435 513.948,463.675 514.398,463.914C514.848,464.154 515.208,464.393 515.682,464.393C515.745,464.393 515.81,464.389 515.879,464.38C516.021,464.361 516.177,464.351 516.336,464.351C517.426,464.351 518.758,464.801 518.432,465.725C518.059,466.783 516.875,466.971 517.622,468.215C518.37,469.461 518.681,469.71 517.685,470.582C516.688,471.453 516.065,472.263 516.563,472.512C517.026,472.742 516.418,474.416 516.326,474.662C516.373,474.572 516.607,474.312 517.742,474.312C517.841,474.312 517.945,474.314 518.059,474.318C519.577,474.375 518.81,476.514 519.289,476.514C519.341,476.514 519.406,476.49 519.491,476.436C520.362,475.875 519.802,475.065 520.86,475.065C521.919,475.065 521.562,475.875 522.083,475.875C522.604,475.875 523.039,476.497 523.227,477.307C523.414,478.117 522.978,479.238 523.601,479.238C524.224,479.238 526.776,479.736 526.154,480.546C525.653,481.196 525.394,482.169 524.988,482.17Z" style="fill:rgb(100,103,104);fill-rule:nonzero;"/>
    </g>
    <g transform="matrix(4.16667,0,0,4.16667,-1890.42,-1874.35)">
        <path d="M539.21,479.556C538.798,479.556 537.693,479.211 537.924,478.863C538.173,478.49 537.177,477.432 536.243,476.559C535.309,475.688 536.306,474.94 535.744,474.007C535.499,473.599 535.171,473.428 534.795,473.428C534.312,473.428 533.75,473.71 533.188,474.131C533.022,474.255 532.888,474.308 532.777,474.308C532.217,474.308 532.258,472.939 531.946,472.263C531.835,472.021 531.706,471.912 531.561,471.912C531.22,471.912 530.788,472.511 530.265,473.384C529.719,474.292 529.24,474.638 529.069,474.638C529.006,474.638 528.985,474.59 529.019,474.506C529.144,474.193 528.521,473.758 528.334,473.322C528.147,472.886 527.337,470.893 527.215,470.332C527.093,469.772 526.652,468.589 525.948,468.278C525.244,467.966 525.22,466.533 525.948,466.34C526.023,466.32 526.089,466.311 526.146,466.311C526.653,466.311 526.579,467.009 527.026,467.344C527.097,467.397 527.162,467.421 527.22,467.421C527.575,467.421 527.719,466.543 527.772,465.85C527.809,465.379 528.055,465.289 528.353,465.289C528.444,465.289 528.54,465.298 528.636,465.306C528.732,465.315 528.829,465.323 528.921,465.323C528.954,465.323 528.987,465.322 529.019,465.319C529.06,465.316 529.099,465.315 529.136,465.315C530.076,465.315 529.861,466.31 532.257,466.971C534.748,467.654 534.001,467.841 533.911,468.34C533.822,468.837 535.495,470.707 538.547,471.516C539.607,471.797 540.126,471.883 540.399,471.883C540.612,471.883 540.675,471.83 540.728,471.778C540.782,471.726 540.826,471.673 541.002,471.673C541.072,471.673 541.164,471.682 541.287,471.702C542.407,471.89 543.342,473.758 543.218,475.189C543.106,476.468 541.705,477.151 541.006,477.151C540.922,477.151 540.848,477.141 540.788,477.121C540.297,476.957 540.189,476.266 539.793,476.266C539.737,476.266 539.675,476.28 539.606,476.311C539.045,476.559 539.606,479.487 539.294,479.55C539.271,479.554 539.243,479.556 539.21,479.556Z" style="fill:rgb(100,103,104);fill-rule:nonzero;"/>
    </g>
    <g transform="matrix(4.16667,0,0,4.16667,-1890.42,-1874.35)">
        <path d="M551.065,493.236C550.946,493.236 550.805,493.097 550.683,492.948C550.37,492.57 550.06,492.892 549.561,492.33C549.467,492.224 549.369,492.181 549.268,492.181C549.055,492.181 548.83,492.373 548.603,492.564C548.377,492.755 548.149,492.947 547.93,492.947C547.838,492.947 547.747,492.913 547.658,492.829C547.063,492.267 547.133,492.206 546.696,491.396C546.346,490.746 546.68,490.257 547.169,490.257C547.289,490.257 547.419,490.286 547.55,490.35C547.656,490.401 547.746,490.423 547.824,490.423C548.236,490.422 548.313,489.809 548.628,489.652C549.001,489.466 548.565,488.531 547.88,488.033C547.194,487.535 547.693,486.976 548.315,486.478C548.315,486.478 549.188,486.85 549.811,487.66C550.432,488.469 550.683,487.723 550.745,488.469C550.808,489.217 551.181,489.901 551.305,491.77C551.381,492.905 551.249,493.236 551.065,493.236Z" style="fill:rgb(100,103,104);fill-rule:nonzero;"/>
    </g>
    <g transform="matrix(4.16667,0,0,4.16667,-1890.42,-1874.35)">
        <path d="M549.789,511.388C549.742,511.388 549.828,511.265 549.99,511.012C549.956,511.213 549.902,511.345 549.823,511.379C549.808,511.385 549.797,511.388 549.789,511.388ZM549.99,511.012C550.143,510.097 549.87,507.763 549.512,506.896C549.076,505.836 549.325,505.276 549.512,504.093C549.698,502.909 549.45,502.909 549.896,502.598C550.343,502.287 550.135,500.294 549.948,498.986C549.761,497.679 550.072,497.181 551.007,496.932C551.007,496.932 551.754,497.057 551.94,503.055C552.082,507.573 550.562,510.113 549.99,511.012Z" style="fill:rgb(100,103,104);fill-rule:nonzero;"/>
    </g>
    <g transform="matrix(4.16667,0,0,4.16667,-1890.42,-1874.35)">
        <path d="M525.375,526.128C525.2,526.128 525.068,526.058 525.033,525.881C524.973,525.581 524.682,525.541 524.284,525.541C524.213,525.541 524.138,525.543 524.06,525.544C523.982,525.545 523.901,525.547 523.818,525.547C523.492,525.547 523.133,525.526 522.791,525.405C521.794,525.052 520.922,524.885 520.3,524.263C519.677,523.64 520.425,521.086 521.732,520.901C523.039,520.713 523.164,520.589 523.663,519.717C523.953,519.208 523.757,519.123 523.344,519.123C523.242,519.123 523.125,519.128 523,519.134C522.875,519.139 522.742,519.144 522.602,519.144C522.482,519.144 522.357,519.14 522.231,519.13C521.234,519.039 521.732,518.284 521.396,518.222C521.388,518.22 521.379,518.219 521.369,518.219C521.193,518.219 520.78,518.448 520.362,518.674C519.945,518.902 519.524,519.13 519.331,519.13C519.289,519.13 519.258,519.118 519.241,519.095C519.086,518.886 518.499,517.902 517.516,517.902C517.318,517.902 517.104,517.941 516.875,518.035C516.651,518.127 516.461,518.167 516.297,518.167C515.456,518.167 515.309,517.114 514.943,516.54C514.508,515.857 515.318,514.423 515.879,513.613C516.005,513.43 516.137,513.358 516.267,513.358C516.71,513.358 517.146,514.18 517.435,514.195L517.443,514.195C517.802,514.195 517.244,512.742 516.563,512.664C515.879,512.584 515.505,511.745 514.57,511.319C513.86,510.994 512.823,510.436 512.26,510.436C512.083,510.436 511.953,510.491 511.894,510.625C511.831,510.766 511.744,510.824 511.639,510.824C511.329,510.824 510.864,510.313 510.398,509.939C509.775,509.441 509.028,508.569 508.655,507.76C508.282,506.95 507.722,506.141 507.878,505.206C508.036,504.272 508.405,504.77 508.904,504.091C509.402,503.41 508.967,502.903 509.538,502.716C509.823,502.622 509.991,502.25 510.166,501.878C511.04,502.321 511.015,503.272 511.272,504.148C511.54,505.06 512.122,507.72 512.952,508.05C513.781,508.382 513.117,510.043 514.28,510.126C515.443,510.209 516.854,510.79 516.938,511.538C516.989,511.998 517.229,512.112 517.523,512.112C517.706,512.112 517.909,512.068 518.101,512.036C518.115,512.034 518.129,512.034 518.145,512.034C518.327,512.034 518.612,512.19 518.935,512.347C519.258,512.505 519.619,512.662 519.95,512.662C520.263,512.662 520.55,512.523 520.757,512.112C521.422,510.79 522.667,510.376 522.999,508.88C523.148,508.21 522.979,507.491 522.979,507.012C523.453,508.073 523.503,509.343 523.289,509.939C522.978,510.811 522.479,511.185 522.418,512.664C522.354,514.141 521.421,514.299 521.122,514.734C520.823,515.172 520.985,515.297 521.396,516.416C521.578,516.906 521.844,517.063 522.18,517.063C522.611,517.063 523.158,516.805 523.788,516.665C523.926,516.634 524.047,516.62 524.156,516.62C524.942,516.62 525.177,517.363 527.089,518.346C527.906,518.766 528.277,518.845 528.43,518.845C528.457,518.845 528.476,518.844 528.491,518.839C528.452,518.889 528.402,519.034 528.458,519.406C528.645,520.651 528.583,521.272 528.085,521.522C527.587,521.771 527.587,522.146 527.71,522.831C527.835,523.516 526.964,525.01 526.714,525.405C526.536,525.687 525.816,526.128 525.375,526.128ZM528.491,518.839C528.505,518.823 528.517,518.818 528.523,518.818C528.53,518.818 528.53,518.824 528.516,518.831C528.511,518.834 528.502,518.837 528.491,518.839Z" style="fill:rgb(100,103,104);fill-rule:nonzero;"/>
    </g>
    <g transform="matrix(4.16667,0,0,4.16667,-1890.42,-1874.35)">
        <path d="M503.732,476.689L503.732,475.841C503.887,476.078 503.858,476.37 503.732,476.689Z" style="fill:rgb(98,102,101);fill-rule:nonzero;"/>
    </g>
    <g transform="matrix(4.16667,0,0,4.16667,-1890.42,-1874.35)">
        <path d="M510.234,495.977C509.762,495.977 509.282,495.81 508.302,495.43C506.808,494.849 506.061,493.519 505.306,492.855C504.703,492.325 504.326,492.324 503.732,491.963L503.732,483.887C503.865,483.512 503.992,482.915 504.399,481.977C505.231,480.068 504.731,479.818 506.974,478.823C508.164,478.294 508.623,477.964 508.881,477.964C509.109,477.964 509.181,478.221 509.465,478.823C509.758,479.445 510.357,479.631 511.063,479.631C511.96,479.631 513.029,479.331 513.865,479.238C513.974,479.226 514.076,479.206 514.171,479.179C515.288,478.865 515.5,477.635 516.378,477.635C516.448,477.635 516.525,477.643 516.604,477.66C517.768,477.909 519.761,478.906 519.844,479.902C519.867,480.191 519.781,480.264 519.612,480.264C519.526,480.264 519.419,480.245 519.296,480.226C519.172,480.207 519.031,480.189 518.878,480.189C518.619,480.189 518.323,480.242 518.008,480.439C517.797,480.572 517.576,480.771 517.353,481.064C516.024,482.809 518.017,484.718 520.425,485.964C522.833,487.209 520.093,486.628 519.429,487.79C518.765,488.952 520.093,491.194 519.429,491.693C518.765,492.191 517.518,492.605 516.854,493.603C516.19,494.6 515.028,495.264 513.948,495.346C512.869,495.43 511.956,495.595 511.043,495.845C510.728,495.931 510.482,495.977 510.234,495.977Z" style="fill:rgb(98,102,101);fill-rule:nonzero;"/>
    </g>
    <g transform="matrix(4.16667,0,0,4.16667,-1890.42,-1874.35)">
        <path d="M519.95,512.662C519.619,512.662 519.258,512.505 518.935,512.347C518.612,512.19 518.327,512.034 518.145,512.034C518.129,512.034 518.115,512.034 518.101,512.036C517.909,512.068 517.706,512.112 517.523,512.112C517.229,512.112 516.989,511.998 516.938,511.538C516.854,510.79 515.443,510.209 514.28,510.126C513.117,510.043 513.781,508.382 512.952,508.05C512.122,507.72 511.54,505.06 511.272,504.148C511.015,503.272 511.04,502.321 510.166,501.878C510.128,501.858 510.088,501.84 510.046,501.822C509.144,501.447 509.603,500.46 510.19,500.46C510.252,500.46 510.315,500.471 510.378,500.494C510.423,500.511 510.473,500.519 510.525,500.519C511.236,500.519 512.539,499.026 513.698,498.252C514.943,497.422 514.015,496.25 514.695,495.976C516.44,495.279 517.565,492.854 517.565,492.854C517.565,492.854 520.425,492.439 520.757,492.439C521.089,492.439 522.418,494.019 524.245,494.267C524.329,494.278 524.404,494.283 524.472,494.283C525.876,494.283 523.89,491.915 523.414,491.36C523.054,490.94 523.823,490.084 524.592,490.084C524.885,490.084 525.178,490.209 525.407,490.53C526.237,491.693 525.823,491.858 526.984,492.066C528.147,492.273 529.06,492.439 528.645,492.938C528.229,493.437 528.147,494.101 528.147,494.931C528.147,495.761 528.562,496.675 530.306,497.422C532.05,498.169 533.71,498.916 531.967,499C530.224,499.083 531.22,499.83 530.14,500.992C529.06,502.155 530.97,503.649 530.14,506.058C529.65,507.477 529.565,507.54 529.39,507.54L529.336,507.54C529.218,507.54 529.051,507.562 528.729,507.885C528.434,508.179 528.174,508.309 527.871,508.309C527.234,508.309 526.404,507.732 524.659,506.888C524.043,506.59 523.646,506.463 523.393,506.463C523.064,506.463 522.981,506.679 522.979,507.012C522.979,507.491 523.148,508.21 522.999,508.88C522.667,510.376 521.422,510.79 520.757,512.112C520.55,512.523 520.263,512.662 519.95,512.662Z" style="fill:rgb(98,102,101);fill-rule:nonzero;"/>
    </g>
    <g transform="matrix(4.16667,0,0,4.16667,-1890.42,-1874.35)">
        <path d="M539.118,498.01C538.527,498.01 538.16,497.501 537.612,497.173C536.783,496.675 535.869,496.924 534.642,495.679C533.744,494.766 533.795,493.855 534.154,493.855C534.286,493.855 534.459,493.977 534.642,494.267C534.829,494.563 534.969,494.672 535.079,494.672C535.372,494.672 535.462,493.912 535.703,493.852C536.035,493.768 535.786,492.605 535.206,492.066C534.624,491.527 534.458,490.032 534.873,489.7C535.288,489.367 536.367,488.289 536.948,487.624C537.53,486.96 537.562,486.11 538.276,485.881C538.293,485.875 538.312,485.873 538.332,485.873C538.857,485.873 540.671,487.55 542.429,487.791C544.255,488.039 544.007,489.617 544.505,490.53C545.003,491.443 544.339,491.941 543.509,492.066C542.679,492.191 543.757,494.516 542.927,495.097C542.097,495.679 541.682,496.425 540.271,497.506C539.789,497.874 539.423,498.01 539.118,498.01Z" style="fill:rgb(98,102,101);fill-rule:nonzero;"/>
    </g>
    <g transform="matrix(4.16667,0,0,4.16667,-1890.42,-1874.35)">
        <path d="M533.911,525.405C533.911,525.405 531.967,523.992 532.299,521.751C532.493,520.446 532.855,520.154 533.35,520.154C533.706,520.154 534.13,520.305 534.61,520.341C534.669,520.344 534.725,520.346 534.781,520.346C535.819,520.346 536.397,519.633 536.948,518.845C537.523,518.026 540.118,514.941 539.628,514.941C539.621,514.941 539.614,514.941 539.606,514.943C539.024,515.026 537.696,517.435 536.948,517.599C536.834,517.625 536.724,517.634 536.617,517.634C536.43,517.634 536.256,517.604 536.093,517.573C535.93,517.544 535.78,517.513 535.641,517.513C535.48,517.513 535.335,517.553 535.206,517.683C534.877,518.011 534.393,518.339 533.503,518.339C533.268,518.339 533.003,518.316 532.706,518.264C531.287,518.015 533.212,517.101 532.706,516.436C532.594,516.289 532.45,516.227 532.284,516.227C531.706,516.227 530.869,516.982 530.224,517.435C530.102,517.519 529.996,517.557 529.906,517.557C529.384,517.557 529.407,516.305 529.974,516.021C530.638,515.69 529.56,514.776 529.56,514.112C529.56,513.566 530.119,513.133 530.68,513.133C530.803,513.133 530.925,513.154 531.042,513.198C531.344,513.313 531.793,513.445 532.19,513.445C532.654,513.445 533.046,513.265 533.046,512.664C533.046,511.547 531.801,511.621 531.22,510.458C530.638,509.296 531.634,508.382 532.133,508.299C532.631,508.216 533.212,506.971 533.911,505.892C534.611,504.813 534.624,502.985 536.948,502.985C536.948,502.985 538.443,503.234 538.692,503.649C538.941,504.064 539.938,505.226 541.433,505.226C542.927,505.226 543.674,507.22 543.757,508.798C543.841,510.376 542.097,510.874 541.433,511.786C540.768,512.7 541.682,514.776 541.433,516.436C541.184,518.099 539.606,520.755 539.294,521.252C538.982,521.751 537.364,522.498 536.866,523.826C536.367,525.154 533.911,525.405 533.911,525.405Z" style="fill:rgb(98,102,101);fill-rule:nonzero;"/>
    </g>
    <g transform="matrix(4.16667,0,0,4.16667,-1890.42,-1874.35)">
        <path d="M530.302,462.145C529.061,462.145 528.022,461.809 528.396,461.137C528.811,460.39 527.233,459.56 526.237,458.563C525.893,458.218 525.866,458.082 526.104,458.082C526.556,458.082 527.962,458.572 529.974,459.061C529.974,459.061 531.302,459.642 532.706,460.722C534.11,461.801 532.133,462.051 530.722,462.133C530.58,462.141 530.44,462.145 530.302,462.145Z" style="fill:rgb(98,102,101);fill-rule:nonzero;"/>
    </g>
    <g transform="matrix(4.16667,0,0,4.16667,-1890.42,-1874.35)">
        <path d="M504.845,454.571C504.474,454.571 504.038,454.4 503.838,454.173C503.767,454.093 503.735,454.024 503.732,453.963L503.732,453.947C503.741,453.761 504.043,453.662 504.358,453.581C504.393,453.572 504.43,453.568 504.469,453.568C504.925,453.568 505.639,454.134 505.323,454.422C505.207,454.527 505.035,454.571 504.845,454.571Z" style="fill:rgb(98,102,101);fill-rule:nonzero;"/>
    </g>
    <g transform="matrix(4.16667,0,0,4.16667,-1890.42,-1874.35)">
        <path d="M514.929,454.218C514.734,454.218 514.539,454.172 514.414,454.069C514.05,453.77 514.211,453.259 514.677,453.259C514.806,453.259 514.96,453.299 515.132,453.394C515.998,453.873 515.461,454.218 514.929,454.218Z" style="fill:rgb(98,102,101);fill-rule:nonzero;"/>
    </g>
    <g transform="matrix(4.16667,0,0,4.16667,-1890.42,-1874.35)">
        <path d="M522.763,455.175C522.492,455.175 521.864,455.069 521.452,454.795C521.155,454.597 521.276,454.371 521.612,454.371C521.668,454.371 521.729,454.377 521.794,454.391C522.262,454.483 523.039,455.138 522.853,455.169C522.831,455.173 522.801,455.175 522.763,455.175Z" style="fill:rgb(98,102,101);fill-rule:nonzero;"/>
    </g>
    <g transform="matrix(4.16667,0,0,4.16667,-1890.42,-1874.35)">
        <path d="M525.811,465.32C525.443,465.32 525.011,465.156 524.659,464.852C524.016,464.297 524.086,463.439 525.181,463.439C525.252,463.439 525.327,463.443 525.407,463.45C526.059,463.513 526.776,464.199 526.56,464.852C526.453,465.171 526.161,465.32 525.811,465.32Z" style="fill:rgb(98,102,101);fill-rule:nonzero;"/>
    </g>
    <g transform="matrix(4.16667,0,0,4.16667,-1890.42,-1874.35)">
        <path d="M503.732,547.644L503.732,538.517C503.876,538.553 504.055,538.569 504.245,538.569C504.593,538.569 504.976,538.516 505.229,538.439C505.435,538.378 505.72,538.355 506.031,538.355C506.978,538.355 508.177,538.568 508.177,538.568L506.476,539.603C506.476,539.603 516.853,537.858 518.203,536.946C519.051,536.373 519.758,536.306 520.466,536.121C518.31,537.251 514.278,539.396 512.619,539.811C510.129,540.434 507.555,540.683 507.347,540.973C507.14,541.264 507.928,542.052 508.634,542.052C509.18,542.052 510.892,542.474 511.948,542.474C512.258,542.474 512.51,542.438 512.661,542.344C513.325,541.928 519.927,540.434 522.293,539.062C524.659,537.692 526.86,536.116 527.109,535.866C527.148,535.828 527.192,535.81 527.237,535.81C527.483,535.81 527.741,536.336 527.109,536.862C526.362,537.485 524.825,539.062 523.039,539.603C521.255,540.143 518.017,541.222 516.979,541.804C515.976,542.364 513.27,544.01 514.284,544.01C514.318,544.01 514.36,544.008 514.405,544.004C515.732,543.879 520.3,542.758 520.3,542.758C520.3,542.758 517.518,544.75 515.526,545.249C513.533,545.747 512.163,546.536 510.461,546.91C508.759,547.284 508.054,547.574 507.14,547.574C506.875,547.574 505.561,547.63 503.732,547.644ZM503.732,537.786L503.732,535.528C505.224,535.091 507.052,534.484 508.967,533.666C510.01,533.22 511.001,532.716 511.912,532.201C508.812,534.35 505.338,536.743 504.274,537.402C504.043,537.546 503.865,537.673 503.732,537.786ZM520.466,536.121C521.263,535.702 521.805,535.423 521.87,535.423C521.893,535.423 521.857,535.458 521.753,535.534C521.305,535.859 520.886,536.011 520.466,536.121ZM503.732,532.38L503.732,531.357C504.412,530.978 505.032,530.503 505.438,529.889C505.685,529.514 505.812,529.358 505.845,529.358C505.958,529.358 504.914,531.252 503.732,532.38ZM511.912,532.201C514.783,530.211 517.335,528.431 517.356,528.431C517.357,528.431 517.356,528.432 517.353,528.435C517.159,528.595 514.991,530.461 511.912,532.201Z" style="fill:rgb(112,114,115);fill-rule:nonzero;"/>
    </g>
    <g transform="matrix(4.16667,0,0,4.16667,-1890.42,-1874.35)">
        <path d="M527.688,536.906C527.631,536.906 527.685,536.832 527.897,536.656C528.667,536.02 529.598,534.9 529.656,534.9C529.669,534.9 529.633,534.965 529.53,535.118C529.536,535.11 530.887,533.209 530.679,533.209C530.472,533.209 529.434,533.499 528.271,533.873C528.142,533.915 528.042,533.934 527.967,533.934C527.372,533.934 528.442,532.72 529.808,532.13C530.29,531.921 530.543,531.86 530.701,531.86C530.813,531.86 530.877,531.891 530.94,531.922C531.004,531.953 531.067,531.984 531.179,531.984C531.298,531.984 531.471,531.949 531.759,531.84C532.963,531.383 531.634,530.718 530.057,530.303C528.479,529.889 527.897,529.016 528.022,528.311C528.076,528.01 528.136,527.86 528.386,527.86C528.724,527.86 529.408,528.135 530.888,528.684C532.724,529.365 532.447,529.56 532.303,529.601C532.313,529.6 532.326,529.599 532.34,529.598C532.797,529.556 532.63,527.896 532.507,526.692C532.453,526.175 532.652,525.987 532.907,525.987C533.245,525.987 533.681,526.318 533.753,526.649C533.86,527.141 533.518,528.315 534.012,528.315C534.102,528.315 534.22,528.275 534.374,528.186C535.328,527.628 537.121,526.119 537.27,526.119C537.277,526.119 537.28,526.122 537.28,526.128C537.28,526.271 536.907,527.231 537.031,528.352C537.066,528.662 537.139,528.788 537.246,528.788C537.527,528.788 538.044,527.932 538.733,527.271C539.166,526.857 539.539,526.589 539.721,526.589C539.941,526.589 539.882,526.98 539.315,527.978C538.276,529.805 538.153,529.473 537.321,529.93C536.491,530.385 536.823,530.179 536.159,530.553C535.495,530.925 536.409,531.3 536.159,531.425C535.911,531.549 535.247,531.84 535.122,532.254C534.997,532.669 534.748,532.96 534.125,533.044C533.503,533.126 533.585,534.247 533.046,534.787C532.966,534.867 532.915,534.9 532.882,534.9C532.795,534.9 532.843,534.659 532.853,534.419C532.863,534.178 532.835,533.937 532.594,533.937C532.556,533.937 532.513,533.943 532.464,533.956C531.676,534.165 531.511,534.371 530.347,535.285C529.443,535.995 527.887,536.906 527.688,536.906Z" style="fill:rgb(112,114,115);fill-rule:nonzero;"/>
    </g>
</svg>
