<?xml version="1.0" encoding="UTF-8" standalone="no"?>
<!DOCTYPE svg PUBLIC "-//W3C//DTD SVG 1.1//EN" "http://www.w3.org/Graphics/SVG/1.1/DTD/svg11.dtd">
<svg width="100%" height="100%" viewBox="0 0 289 104" version="1.1" xmlns="http://www.w3.org/2000/svg" xmlns:xlink="http://www.w3.org/1999/xlink" xml:space="preserve" xmlns:serif="http://www.serif.com/" style="fill-rule:evenodd;clip-rule:evenodd;stroke-linejoin:round;stroke-miterlimit:2;">
    <g transform="matrix(1.54532,0,0,1.54532,-5.21443,-13.6138)">
        <circle cx="38.515" cy="25.657" r="0.603" style="fill:rgb(38,38,38);fill-opacity:0.6;"/>
    </g>
    <g transform="matrix(1.54532,0,0,1.54532,-5.21443,-13.6138)">
        <circle cx="48.506" cy="30.821" r="0.541" style="fill:rgb(38,38,38);fill-opacity:0.6;"/>
    </g>
    <g transform="matrix(1.54532,0,0,1.54532,-5.21443,-13.6138)">
        <circle cx="21.583" cy="28.351" r="0.541" style="fill:rgb(38,38,38);fill-opacity:0.6;"/>
    </g>
    <g transform="matrix(1.54532,0,0,1.54532,-5.21443,-13.6138)">
        <circle cx="45.88" cy="61.357" r="0.541" style="fill:rgb(38,38,38);fill-opacity:0.6;"/>
    </g>
    <g transform="matrix(1.54532,0,0,1.54532,-5.21443,-13.6138)">
        <path d="M51.846,66.802L52.948,67.064L53.212,68.167C53.224,68.219 53.271,68.256 53.323,68.256C53.375,68.256 53.423,68.219 53.434,68.167L53.696,67.064L54.8,66.802C54.851,66.789 54.888,66.743 54.888,66.691C54.888,66.637 54.851,66.591 54.8,66.579L53.696,66.317L53.434,65.213C53.422,65.161 53.375,65.125 53.323,65.125C53.271,65.125 53.223,65.161 53.212,65.213L52.948,66.317L51.846,66.579C51.793,66.592 51.758,66.638 51.758,66.691C51.758,66.743 51.793,66.789 51.846,66.802Z" style="fill:rgb(38,38,38);fill-opacity:0.6;fill-rule:nonzero;"/>
    </g>
    <g transform="matrix(1.54532,0,0,1.54532,-5.21443,-13.6138)">
        <path d="M69.119,23.303L69.826,23.471L69.994,24.179C70.002,24.213 70.033,24.236 70.066,24.236C70.099,24.236 70.13,24.213 70.138,24.179L70.306,23.471L71.013,23.303C71.046,23.295 71.07,23.265 71.07,23.231C71.07,23.197 71.047,23.168 71.013,23.159L70.306,22.991L70.138,22.283C70.13,22.249 70.099,22.226 70.066,22.226C70.033,22.226 70.002,22.249 69.994,22.283L69.826,22.991L69.119,23.159C69.086,23.167 69.062,23.197 69.062,23.231C69.062,23.265 69.086,23.295 69.119,23.303Z" style="fill:rgb(38,38,38);fill-opacity:0.6;fill-rule:nonzero;"/>
    </g>
    <g transform="matrix(1.54532,0,0,1.54532,-5.21443,-13.6138)">
        <path d="M27.727,41.13L27.019,40.962L26.852,40.254C26.844,40.22 26.814,40.197 26.78,40.197C26.746,40.197 26.716,40.22 26.709,40.254L26.541,40.962L25.833,41.13C25.8,41.138 25.777,41.167 25.777,41.202C25.777,41.236 25.8,41.265 25.833,41.274L26.541,41.442L26.709,42.15C26.716,42.184 26.746,42.207 26.78,42.207C26.814,42.207 26.844,42.184 26.852,42.15L27.019,41.442L27.727,41.274C27.76,41.266 27.784,41.236 27.784,41.202C27.784,41.167 27.76,41.138 27.727,41.13Z" style="fill:rgb(38,38,38);fill-opacity:0.6;fill-rule:nonzero;"/>
    </g>
    <g transform="matrix(1.54532,0,0,1.54532,-5.21443,-13.6138)">
        <path d="M54.389,65.097L54.875,65.213L54.99,65.699C54.996,65.722 55.017,65.738 55.039,65.738C55.064,65.738 55.084,65.722 55.09,65.699L55.205,65.213L55.691,65.097C55.714,65.092 55.73,65.072 55.73,65.048C55.73,65.024 55.714,65.004 55.691,64.998L55.205,64.883L55.09,64.397C55.084,64.374 55.065,64.358 55.039,64.358C55.018,64.358 54.996,64.374 54.99,64.397L54.875,64.883L54.389,64.998C54.366,65.004 54.35,65.024 54.35,65.048C54.35,65.072 54.365,65.092 54.389,65.097Z" style="fill:rgb(38,38,38);fill-opacity:0.6;fill-rule:nonzero;"/>
    </g>
    <g transform="matrix(1.54532,0,0,1.54532,-5.21443,-13.6138)">
        <path d="M66.475,63.997L66.961,64.112L67.078,64.598C67.082,64.621 67.103,64.637 67.127,64.637C67.151,64.637 67.17,64.621 67.176,64.598L67.291,64.112L67.779,63.997C67.8,63.991 67.816,63.971 67.816,63.947C67.816,63.923 67.8,63.903 67.779,63.897L67.291,63.782L67.176,63.296C67.17,63.273 67.151,63.257 67.127,63.257C67.103,63.257 67.082,63.273 67.078,63.296L66.961,63.782L66.475,63.897C66.454,63.903 66.436,63.923 66.436,63.947C66.436,63.971 66.453,63.991 66.475,63.997Z" style="fill:rgb(38,38,38);fill-opacity:0.6;fill-rule:nonzero;"/>
    </g>
    <g transform="matrix(1.54532,0,0,1.54532,-5.21443,-13.6138)">
        <path d="M6.631,31.95C6.661,31.95 6.689,31.929 6.696,31.898L6.849,31.255L7.493,31.102C7.522,31.095 7.544,31.067 7.544,31.037C7.544,31.007 7.523,30.979 7.493,30.972L6.849,30.819L6.696,30.176C6.689,30.145 6.661,30.124 6.631,30.124C6.6,30.124 6.573,30.145 6.566,30.176L6.413,30.819L5.769,30.972C5.739,30.979 5.717,31.006 5.717,31.037C5.717,31.068 5.739,31.095 5.769,31.102L6.413,31.255L6.566,31.898C6.573,31.929 6.6,31.95 6.631,31.95Z" style="fill:rgb(38,38,38);fill-opacity:0.6;fill-rule:nonzero;"/>
    </g>
    <g transform="matrix(1.54532,0,0,1.54532,-5.21443,-13.6138)">
        <path d="M5.57,34.34L4.633,34.117L4.41,33.181C4.399,33.137 4.36,33.106 4.315,33.106C4.27,33.106 4.231,33.137 4.221,33.181L3.998,34.118L3.061,34.34C3.017,34.351 2.986,34.39 2.986,34.435C2.986,34.48 3.017,34.519 3.061,34.53L3.998,34.753L4.221,35.69C4.231,35.734 4.27,35.765 4.315,35.765C4.36,35.765 4.399,35.734 4.41,35.69L4.633,34.753L5.57,34.53C5.613,34.519 5.645,34.48 5.645,34.435C5.645,34.39 5.613,34.351 5.57,34.34Z" style="fill:rgb(38,38,38);fill-opacity:0.6;fill-rule:nonzero;"/>
    </g>
    <g transform="matrix(1.54532,0,0,1.54532,-5.21443,-13.6138)">
        <path d="M40.544,50.707L41.031,50.822L41.146,51.308C41.152,51.331 41.171,51.348 41.195,51.348C41.219,51.348 41.239,51.331 41.245,51.308L41.36,50.822L41.846,50.707C41.869,50.701 41.886,50.682 41.886,50.657C41.886,50.634 41.869,50.613 41.846,50.608L41.36,50.493L41.245,50.006C41.239,49.984 41.219,49.967 41.195,49.967C41.171,49.967 41.152,49.984 41.146,50.006L41.031,50.493L40.544,50.608C40.522,50.613 40.505,50.633 40.505,50.657C40.505,50.682 40.522,50.701 40.544,50.707Z" style="fill:rgb(38,38,38);fill-opacity:0.6;fill-rule:nonzero;"/>
    </g>
    <g transform="matrix(1.54532,0,0,1.54532,-5.21443,-13.6138)">
        <path d="M56.002,68.012L56.488,68.128L56.603,68.614C56.609,68.636 56.63,68.653 56.654,68.653C56.678,68.653 56.697,68.636 56.703,68.614L56.818,68.128L57.304,68.012C57.327,68.007 57.343,67.987 57.343,67.962C57.343,67.939 57.327,67.919 57.304,67.913L56.818,67.798L56.703,67.311C56.697,67.289 56.678,67.273 56.654,67.273C56.63,67.273 56.609,67.289 56.603,67.311L56.488,67.798L56.002,67.913C55.979,67.919 55.963,67.938 55.963,67.962C55.963,67.986 55.979,68.007 56.002,68.012Z" style="fill:rgb(38,38,38);fill-opacity:0.6;fill-rule:nonzero;"/>
    </g>
    <g transform="matrix(1.54532,0,0,1.54532,-5.21443,-13.6138)">
        <path d="M13.775,50.377L13.289,50.262L13.173,49.775C13.168,49.753 13.147,49.736 13.124,49.736C13.101,49.736 13.08,49.753 13.075,49.775L12.959,50.262L12.473,50.377C12.45,50.383 12.434,50.402 12.434,50.426C12.434,50.45 12.45,50.47 12.473,50.476L12.959,50.591L13.075,51.077C13.08,51.1 13.101,51.117 13.124,51.117C13.147,51.117 13.168,51.1 13.173,51.077L13.289,50.591L13.775,50.476C13.798,50.47 13.815,50.45 13.815,50.426C13.815,50.402 13.798,50.383 13.775,50.377Z" style="fill:rgb(38,38,38);fill-opacity:0.6;fill-rule:nonzero;"/>
    </g>
    <g transform="matrix(1.18865,0,0,1.18865,-2.87718,-10.2315)">
        <path d="M87.004,51.893C86.99,51.561 87.004,51.065 86.947,50.422C86.869,49.137 86.67,47.241 86.033,44.914C86.013,44.843 85.992,44.771 85.972,44.699C86.197,44.612 86.359,44.394 86.359,44.138C86.359,43.805 86.089,43.535 85.755,43.535C85.71,43.535 85.667,43.541 85.624,43.551C85.431,42.956 85.208,42.34 84.95,41.708C85.268,41.543 85.487,41.216 85.487,40.834C85.487,40.288 85.044,39.845 84.499,39.845C84.374,39.845 84.257,39.871 84.147,39.912C83.68,38.959 83.135,37.984 82.493,37.003C80.665,34.189 78.069,31.314 74.63,28.984C72.911,27.826 70.989,26.808 68.901,26.005C67.872,25.607 66.801,25.273 65.696,25C65.368,24.523 65.02,24.046 64.653,23.571C64.735,23.476 64.788,23.354 64.788,23.218C64.788,22.92 64.546,22.677 64.247,22.677C64.155,22.677 64.069,22.702 63.993,22.742C62.143,20.497 59.852,18.321 57.087,16.45C55.103,15.117 52.888,13.945 50.48,13.02C48.074,12.09 45.46,11.458 42.736,11.126C42.397,11.074 42.051,11.054 41.706,11.025C41.361,10.998 41.015,10.971 40.667,10.944C40.321,10.934 39.976,10.923 39.628,10.913L39.107,10.897C38.919,10.896 38.753,10.904 38.574,10.907C38.221,10.916 37.869,10.926 37.514,10.934C37.16,10.947 36.806,10.984 36.451,11.008C35.808,11.043 35.168,11.134 34.523,11.216C34.404,10.989 34.169,10.833 33.895,10.833C33.541,10.833 33.249,11.093 33.195,11.432C32.142,11.623 31.088,11.856 30.047,12.168C29.835,12.223 29.625,12.286 29.416,12.352C29.377,12.261 29.339,12.17 29.295,12.081C28.496,10.479 26.886,9.483 25.094,9.483C24.78,9.483 24.465,9.515 24.158,9.578C23.759,9.66 23.37,9.794 23.004,9.976C21.883,10.535 21.046,11.497 20.649,12.685C20.251,13.873 20.34,15.145 20.899,16.266C20.92,16.308 20.943,16.348 20.965,16.389C19.797,17.172 18.677,18.043 17.608,18.982L17.279,17.598C17.26,17.519 17.19,17.464 17.109,17.464C17.028,17.464 16.958,17.52 16.939,17.598L16.54,19.276L14.862,19.675C14.783,19.694 14.727,19.764 14.727,19.845C14.727,19.926 14.783,19.996 14.862,20.015L16.16,20.324C14.597,21.872 13.176,23.586 11.948,25.45C11.073,26.758 10.315,28.146 9.63,29.572C8.949,31.002 8.401,32.495 7.93,34.013C7.465,35.534 7.142,37.098 6.896,38.672C6.666,40.248 6.57,41.858 6.553,43.436C6.575,45.04 6.676,46.628 6.911,48.207C7.161,49.78 7.489,51.342 7.958,52.86C8.434,54.375 8.986,55.865 9.671,57.29C10.359,58.712 11.121,60.096 11.998,61.397C12.008,61.412 12.019,61.426 12.029,61.441C11.954,61.535 11.908,61.65 11.908,61.779C11.908,62.078 12.15,62.32 12.449,62.32C12.508,62.32 12.563,62.308 12.616,62.291C12.853,62.623 13.096,62.951 13.346,63.273C13.209,63.431 13.123,63.634 13.123,63.861C13.123,64.357 13.526,64.76 14.023,64.76C14.187,64.76 14.338,64.713 14.47,64.637C16.309,66.759 18.405,68.622 20.671,70.179L19.614,70.431C19.545,70.448 19.496,70.509 19.496,70.579C19.496,70.65 19.544,70.712 19.614,70.727L21.083,71.077L21.433,72.546C21.449,72.616 21.511,72.665 21.582,72.665C21.652,72.665 21.714,72.616 21.73,72.546L22.075,71.094C22.716,71.488 23.368,71.857 24.03,72.201C24.019,72.244 24.012,72.288 24.012,72.334C24.012,72.633 24.254,72.875 24.553,72.875C24.723,72.875 24.872,72.795 24.971,72.673C25.28,72.821 25.59,72.965 25.902,73.102L26.412,73.332L26.932,73.536C27.278,73.67 27.622,73.811 27.969,73.939C28.672,74.169 29.364,74.427 30.074,74.611C31.48,75.031 32.91,75.306 34.328,75.527C35.042,75.613 35.748,75.72 36.46,75.758C36.814,75.781 37.169,75.818 37.521,75.829C37.873,75.838 38.223,75.847 38.573,75.854C38.75,75.857 38.92,75.865 39.1,75.865L39.623,75.85C39.972,75.839 40.319,75.829 40.665,75.82C41.011,75.795 41.355,75.768 41.698,75.742C42.041,75.714 42.384,75.694 42.722,75.643C42.834,75.629 42.946,75.612 43.057,75.597C44.497,76.585 46.014,77.434 47.582,78.121L48.023,78.319L48.474,78.497C48.775,78.613 49.072,78.735 49.372,78.847C49.981,79.047 50.581,79.271 51.198,79.43C52.417,79.793 53.657,80.032 54.887,80.223C57.358,80.562 59.809,80.611 62.168,80.322C64.522,80.039 66.781,79.495 68.861,78.694C70.945,77.897 72.861,76.885 74.578,75.735C77.139,74.006 79.234,71.975 80.896,69.892C80.992,69.956 81.109,69.995 81.232,69.995C81.566,69.995 81.836,69.725 81.836,69.392C81.836,69.209 81.752,69.048 81.625,68.937C81.912,68.544 82.186,68.151 82.443,67.758C84.291,64.95 85.363,62.187 86.002,59.871C86.647,57.548 86.854,55.654 86.936,54.369C86.997,53.725 86.985,53.231 86.999,52.898C87.007,52.565 87.011,52.393 87.011,52.393C87.011,52.393 87.01,52.227 87.004,51.893ZM20.951,12.789C21.322,11.682 22.101,10.785 23.146,10.264C23.311,10.182 23.48,10.11 23.653,10.05C23.632,10.074 23.614,10.099 23.593,10.124C23.559,10.165 23.526,10.206 23.493,10.248C23.45,10.304 23.407,10.361 23.366,10.419C23.336,10.461 23.306,10.504 23.278,10.547C23.238,10.607 23.2,10.669 23.164,10.731C23.139,10.774 23.112,10.816 23.088,10.86C23.051,10.926 23.018,10.993 22.984,11.061C22.964,11.102 22.942,11.143 22.923,11.185C22.887,11.262 22.856,11.342 22.825,11.421C22.812,11.454 22.797,11.486 22.785,11.52C22.744,11.633 22.707,11.747 22.674,11.863C22.668,11.885 22.664,11.908 22.658,11.93C22.633,12.024 22.61,12.118 22.591,12.214C22.583,12.256 22.577,12.299 22.57,12.342C22.557,12.418 22.544,12.494 22.535,12.571C22.529,12.619 22.526,12.668 22.521,12.716C22.515,12.787 22.509,12.859 22.506,12.931C22.504,12.982 22.503,13.034 22.503,13.084C22.502,13.154 22.503,13.224 22.504,13.294C22.506,13.346 22.509,13.398 22.512,13.45C22.517,13.52 22.523,13.589 22.531,13.659C22.536,13.711 22.543,13.762 22.55,13.813C22.56,13.883 22.573,13.954 22.587,14.024C22.597,14.074 22.606,14.124 22.617,14.174C22.634,14.246 22.653,14.319 22.673,14.391C22.686,14.437 22.698,14.485 22.713,14.531C22.737,14.61 22.766,14.688 22.795,14.766C22.81,14.805 22.822,14.844 22.837,14.882C22.875,14.975 22.917,15.067 22.96,15.158C22.971,15.18 22.98,15.204 22.991,15.226C23.052,15.347 23.117,15.463 23.187,15.577C24.036,16.972 25.536,17.824 27.192,17.824C27.302,17.824 27.413,17.821 27.523,17.813C27.37,17.915 27.211,18.007 27.047,18.089C26.434,18.395 25.779,18.549 25.1,18.549C23.625,18.549 22.285,17.825 21.477,16.628C21.389,16.498 21.309,16.36 21.234,16.219C21.217,16.188 21.2,16.159 21.184,16.128C20.664,15.081 20.581,13.896 20.951,12.789ZM42.7,75.429C42.363,75.479 42.022,75.495 41.682,75.522C41.34,75.546 40.998,75.571 40.656,75.594C40.312,75.602 39.967,75.61 39.621,75.617L39.1,75.63L38.58,75.617C38.23,75.608 37.88,75.598 37.527,75.59C37.176,75.576 36.829,75.539 36.477,75.515C35.775,75.477 35.073,75.368 34.366,75.281C32.959,75.057 31.541,74.781 30.148,74.36C29.444,74.176 28.759,73.919 28.063,73.688C27.719,73.559 27.379,73.418 27.036,73.285L26.521,73.081L26.016,72.852C25.704,72.714 25.395,72.57 25.087,72.421C25.091,72.394 25.095,72.366 25.095,72.338C25.095,72.039 24.853,71.797 24.554,71.797C24.404,71.797 24.268,71.859 24.17,71.958C23.592,71.655 23.023,71.331 22.461,70.991L23.55,70.731C23.619,70.715 23.668,70.654 23.668,70.583C23.668,70.513 23.619,70.451 23.55,70.435L22.08,70.085L21.731,68.616C21.714,68.547 21.653,68.498 21.583,68.498C21.512,68.498 21.45,68.547 21.434,68.616L21.084,70.085L21.055,70.092C18.731,68.514 16.587,66.61 14.714,64.436C14.843,64.28 14.924,64.082 14.924,63.865C14.924,63.367 14.521,62.964 14.024,62.964C13.869,62.964 13.726,63.007 13.599,63.075C13.354,62.757 13.115,62.432 12.882,62.104C12.949,62.014 12.99,61.904 12.99,61.783C12.99,61.484 12.748,61.242 12.449,61.242C12.398,61.242 12.35,61.251 12.304,61.264C12.294,61.248 12.283,61.234 12.273,61.218C11.409,59.927 10.659,58.556 9.982,57.147C9.309,55.735 8.767,54.26 8.3,52.76C7.84,51.257 7.521,49.712 7.277,48.156C7.049,46.598 6.955,45.015 6.937,43.448C6.96,41.856 7.06,40.294 7.292,38.733C7.541,37.179 7.865,35.636 8.329,34.136C8.8,32.64 9.346,31.168 10.023,29.76C10.704,28.356 11.457,26.989 12.323,25.703C13.566,23.837 15.001,22.124 16.578,20.579L16.938,22.095C16.957,22.174 17.027,22.23 17.108,22.23C17.189,22.23 17.259,22.174 17.278,22.095L17.677,20.417L19.356,20.018C19.435,19.999 19.49,19.929 19.49,19.848C19.49,19.767 19.434,19.697 19.356,19.678L17.923,19.337C18.971,18.42 20.067,17.567 21.209,16.8C22.075,18.088 23.515,18.867 25.1,18.867C25.829,18.867 26.533,18.7 27.19,18.373C27.555,18.191 27.895,17.961 28.202,17.691C29.597,16.462 30.113,14.538 29.581,12.802C29.779,12.74 29.978,12.681 30.179,12.629C31.206,12.32 32.246,12.091 33.284,11.903C33.408,12.114 33.634,12.257 33.895,12.257C34.238,12.257 34.524,12.014 34.591,11.692C35.225,11.611 35.856,11.522 36.488,11.488C36.839,11.464 37.187,11.428 37.536,11.415C37.885,11.406 38.233,11.397 38.58,11.389L39.094,11.378L39.616,11.389C39.964,11.396 40.309,11.403 40.655,11.41C40.996,11.433 41.336,11.457 41.674,11.48C42.013,11.505 42.351,11.522 42.687,11.571C45.375,11.875 47.961,12.476 50.348,13.374C52.737,14.267 54.938,15.408 56.914,16.711C59.67,18.539 61.963,20.678 63.818,22.893C63.75,22.984 63.707,23.096 63.707,23.219C63.707,23.518 63.949,23.76 64.248,23.76C64.33,23.76 64.406,23.74 64.477,23.707C64.795,24.113 65.1,24.521 65.391,24.929C64.348,24.684 63.276,24.492 62.184,24.358C61.594,24.279 60.991,24.25 60.387,24.199C60.088,24.19 59.787,24.18 59.487,24.172L59.036,24.158C58.872,24.157 58.727,24.164 58.573,24.167C58.266,24.175 57.96,24.183 57.653,24.191C57.346,24.202 57.038,24.234 56.729,24.255C56.112,24.288 55.497,24.382 54.875,24.459C53.641,24.653 52.395,24.895 51.172,25.262C50.553,25.423 49.953,25.648 49.34,25.85C49.039,25.962 48.74,26.085 48.438,26.202L47.987,26.381L47.544,26.582C42.79,28.678 38.473,32.227 35.469,36.79C35.187,37.212 34.923,37.646 34.667,38.085C34.57,38.054 34.47,38.033 34.363,38.033C33.817,38.033 33.374,38.476 33.374,39.022C33.374,39.334 33.52,39.607 33.746,39.789C33.649,39.981 33.552,40.173 33.458,40.367C33.198,40.913 32.964,41.471 32.744,42.036C32.536,41.983 32.318,41.951 32.093,41.951C30.642,41.951 29.467,43.127 29.467,44.576C29.467,45.747 30.235,46.74 31.294,47.077C31.22,47.471 31.15,47.866 31.088,48.262C31.03,48.659 30.984,49.06 30.945,49.46C30.379,49.51 29.934,49.98 29.934,50.559C29.934,51.091 30.309,51.535 30.809,51.642C30.801,51.895 30.793,52.148 30.791,52.4C30.811,53.783 30.898,55.167 31.103,56.535C31.32,57.899 31.605,59.254 32.013,60.571C32.426,61.885 32.906,63.177 33.499,64.414C34.097,65.647 34.758,66.847 35.519,67.977C37.478,70.924 39.982,73.443 42.793,75.419C42.762,75.421 42.731,75.426 42.7,75.429ZM35.793,67.792C35.045,66.674 34.396,65.485 33.81,64.266C33.227,63.042 32.758,61.765 32.354,60.466C31.956,59.164 31.68,57.827 31.469,56.48C31.272,55.129 31.19,53.764 31.175,52.399C31.179,52.149 31.188,51.9 31.196,51.652C31.736,51.577 32.152,51.119 32.152,50.558C32.152,50.049 31.807,49.624 31.339,49.495C31.38,49.102 31.426,48.711 31.484,48.32C31.546,47.934 31.615,47.55 31.689,47.167C31.821,47.188 31.955,47.202 32.093,47.202C33.543,47.202 34.718,46.026 34.718,44.576C34.718,43.502 34.072,42.58 33.149,42.174C33.365,41.625 33.596,41.083 33.851,40.551C33.944,40.36 34.041,40.172 34.137,39.982C34.21,39.999 34.284,40.01 34.363,40.01C34.909,40.01 35.352,39.567 35.352,39.021C35.352,38.742 35.235,38.491 35.049,38.311C35.303,37.879 35.565,37.453 35.844,37.039C38.824,32.568 43.06,29.076 47.736,27.017L48.172,26.82L48.617,26.645C48.912,26.53 49.207,26.409 49.504,26.299C50.106,26.101 50.695,25.879 51.303,25.721C52.506,25.36 53.731,25.123 54.944,24.932C55.555,24.857 56.161,24.765 56.768,24.732C57.071,24.712 57.373,24.68 57.674,24.669C57.977,24.661 58.278,24.654 58.578,24.647L59.023,24.637L59.474,24.646C59.775,24.652 60.076,24.658 60.374,24.664C60.966,24.708 61.552,24.731 62.132,24.802C63.366,24.941 64.571,25.153 65.743,25.436C65.825,25.558 65.909,25.68 65.991,25.802C67.054,27.408 67.915,29.001 68.581,30.531C68.763,30.907 68.901,31.291 69.054,31.662C69.2,32.034 69.353,32.395 69.47,32.76C69.593,33.122 69.714,33.475 69.833,33.82C69.935,34.17 70.032,34.512 70.13,34.844C70.886,37.512 71.134,39.691 71.237,41.17C71.309,41.91 71.298,42.48 71.317,42.863C71.329,43.247 71.335,43.445 71.335,43.445C71.335,43.445 71.329,43.643 71.319,44.027C71.301,44.394 71.311,44.938 71.251,45.632L71.243,45.632C70.944,45.632 70.702,45.874 70.702,46.173C70.702,46.444 70.901,46.665 71.161,46.705C71.024,48.104 70.753,49.919 70.155,52.053C70.098,52.248 70.04,52.453 69.983,52.654C69.579,51.471 69.008,50.161 68.143,48.841C66.998,47.069 65.383,45.245 63.223,43.765C61.061,42.293 58.373,41.205 55.369,40.83C55.181,40.792 54.996,40.79 54.808,40.778C54.622,40.767 54.435,40.757 54.247,40.747C54.059,40.736 53.872,40.726 53.683,40.715L53.4,40.699C53.281,40.698 53.201,40.707 53.099,40.71C52.329,40.758 51.546,40.753 50.769,40.907C49.199,41.096 47.648,41.599 46.142,42.235C45.772,42.414 45.401,42.592 45.029,42.772C44.659,42.956 44.316,43.193 43.957,43.403L43.423,43.728C43.252,43.848 43.087,43.977 42.918,44.101C42.587,44.357 42.237,44.594 41.917,44.868C40.624,45.957 39.497,47.257 38.525,48.676C37.58,50.117 36.859,51.707 36.333,53.365L36.017,54.614C35.74,54.655 35.527,54.892 35.527,55.181C35.527,55.398 35.647,55.584 35.824,55.683L35.788,55.922L35.691,56.572C35.653,56.79 35.663,57.004 35.647,57.219L35.585,58.522C35.63,60.266 35.86,62.005 36.363,63.672C36.897,65.323 37.626,66.905 38.576,68.336C39.553,69.745 40.684,71.029 41.972,72.111C42.292,72.382 42.64,72.617 42.971,72.871C43.139,72.994 43.304,73.122 43.474,73.241L44.007,73.563C44.364,73.77 44.706,74.005 45.075,74.187C45.445,74.365 45.814,74.541 46.183,74.717C46.251,74.746 46.322,74.774 46.39,74.801C45.357,75.036 44.301,75.223 43.225,75.363C40.344,73.369 37.781,70.804 35.793,67.792ZM63.205,71.685L64.547,72.004C64.092,72.38 63.609,72.742 63.096,73.083C62.516,73.464 61.897,73.814 61.246,74.135C61.103,73.906 60.85,73.754 60.56,73.754C60.113,73.754 59.749,74.116 59.749,74.565C59.749,74.638 59.761,74.708 59.78,74.776C58.401,75.309 56.911,75.696 55.342,75.876C55.16,75.91 54.975,75.91 54.789,75.92C54.603,75.929 54.418,75.938 54.23,75.945C54.044,75.954 53.857,75.962 53.669,75.97L53.388,75.983C53.306,75.984 53.202,75.975 53.109,75.971C52.351,75.921 51.574,75.925 50.82,75.772C49.59,75.622 48.367,75.269 47.17,74.812C48.295,74.522 49.389,74.177 50.443,73.773C52.845,72.855 55.056,71.69 57.037,70.363C58.428,69.425 59.697,68.409 60.853,67.345C60.896,67.374 60.945,67.396 60.999,67.396C61.147,67.396 61.267,67.277 61.267,67.129C61.267,67.08 61.249,67.037 61.228,66.997C63.195,65.134 64.816,63.138 66.109,61.165C67.17,59.546 68.027,57.942 68.685,56.403C68.867,56.024 69.005,55.638 69.154,55.265C69.3,54.892 69.451,54.529 69.566,54.161C69.687,53.798 69.808,53.442 69.925,53.096C69.941,53.042 69.954,52.992 69.97,52.938C70.013,53.053 70.058,53.171 70.099,53.284C70.15,53.476 70.201,53.663 70.249,53.845C70.345,54.209 70.435,54.554 70.519,54.878C70.593,55.205 70.626,55.519 70.677,55.807C70.724,56.096 70.765,56.364 70.804,56.609C70.841,56.854 70.837,57.081 70.853,57.282C70.898,58.089 70.923,58.518 70.923,58.518C70.923,58.518 70.902,58.949 70.86,59.756C70.844,59.958 70.85,60.186 70.813,60.431C70.776,60.676 70.735,60.944 70.69,61.233C70.641,61.522 70.61,61.836 70.538,62.163C70.454,62.489 70.366,62.835 70.272,63.2C69.864,64.643 69.221,66.389 68.036,68.131C67.431,69.04 66.694,69.96 65.825,70.835L65.485,69.402C65.467,69.328 65.401,69.276 65.323,69.276C65.247,69.276 65.18,69.328 65.163,69.402L64.786,70.987L63.202,71.364C63.126,71.382 63.075,71.448 63.075,71.525C63.078,71.601 63.129,71.667 63.205,71.685ZM36.419,54.694C36.509,54.287 36.614,53.882 36.735,53.48C37.259,51.866 37.972,50.319 38.903,48.92C39.859,47.542 40.968,46.289 42.223,45.227C42.536,44.96 42.875,44.73 43.199,44.481C43.363,44.36 43.524,44.235 43.69,44.117L44.211,43.802C44.562,43.598 44.895,43.366 45.255,43.188C45.617,43.014 45.978,42.84 46.338,42.667C47.805,42.049 49.313,41.56 50.84,41.376C51.596,41.226 52.36,41.233 53.11,41.186C53.198,41.182 53.309,41.174 53.38,41.174L53.663,41.186C53.852,41.195 54.04,41.203 54.227,41.211C54.414,41.219 54.602,41.228 54.788,41.236C54.976,41.245 55.163,41.245 55.341,41.28C58.234,41.608 60.896,42.645 63.042,44.034C65.192,45.442 66.825,47.206 67.993,48.937C68.266,49.383 68.542,49.809 68.79,50.231C69.007,50.669 69.216,51.092 69.415,51.5C69.524,51.699 69.589,51.913 69.667,52.115C69.743,52.319 69.817,52.518 69.89,52.714C69.906,52.753 69.919,52.791 69.935,52.831C69.91,52.914 69.888,52.992 69.863,53.077C69.746,53.422 69.627,53.776 69.504,54.139C69.389,54.505 69.238,54.867 69.09,55.24C68.942,55.611 68.801,55.997 68.621,56.374C67.959,57.908 67.101,59.506 66.041,61.118C64.75,63.084 63.127,65.07 61.16,66.919C61.115,66.887 61.064,66.863 61.004,66.863C60.858,66.863 60.738,66.982 60.738,67.13C60.738,67.182 60.758,67.227 60.783,67.268C59.625,68.321 58.355,69.327 56.965,70.251C54.986,71.562 52.779,72.709 50.385,73.608C49.252,74.037 48.072,74.396 46.858,74.692C46.67,74.618 46.485,74.541 46.299,74.462C45.939,74.287 45.576,74.111 45.213,73.935C44.851,73.755 44.517,73.521 44.165,73.315L43.643,72.997C43.477,72.879 43.315,72.752 43.151,72.63C42.827,72.378 42.485,72.147 42.172,71.878C40.912,70.808 39.807,69.54 38.856,68.152C37.931,66.743 37.225,65.187 36.71,63.567C36.226,61.932 36.01,60.227 35.974,58.52C36,57.582 36.081,56.657 36.227,55.743C36.489,55.688 36.685,55.457 36.685,55.179C36.681,54.975 36.577,54.798 36.419,54.694ZM86.953,52.902C86.937,53.234 86.949,53.73 86.887,54.371C86.803,55.652 86.592,57.542 85.944,59.858C85.301,62.167 84.223,64.921 82.376,67.714C82.118,68.105 81.845,68.496 81.558,68.887C81.466,68.828 81.357,68.793 81.238,68.793C80.906,68.793 80.636,69.064 80.636,69.396C80.636,69.571 80.712,69.727 80.831,69.837C79.169,71.909 77.069,73.923 74.507,75.625C72.792,76.76 70.88,77.753 68.806,78.532C66.732,79.315 64.486,79.841 62.148,80.107C61.564,80.18 60.97,80.204 60.377,80.25C60.08,80.257 59.781,80.263 59.481,80.27C59.178,80.28 58.885,80.284 58.581,80.27C58.278,80.262 57.974,80.253 57.669,80.246C57.364,80.234 57.064,80.202 56.759,80.182C56.152,80.148 55.544,80.054 54.931,79.978C53.712,79.785 52.484,79.544 51.277,79.179C50.668,79.02 50.076,78.796 49.472,78.596C49.173,78.486 48.878,78.364 48.581,78.247L48.136,78.07L47.698,77.872C46.247,77.228 44.837,76.448 43.494,75.544C44.59,75.388 45.667,75.185 46.717,74.93C48.051,75.455 49.41,75.86 50.795,76.023C51.572,76.174 52.342,76.166 53.102,76.211C53.2,76.215 53.286,76.223 53.393,76.223L53.678,76.207C53.869,76.196 54.057,76.186 54.246,76.175C54.435,76.164 54.623,76.154 54.81,76.144C54.998,76.132 55.185,76.13 55.369,76.093C56.957,75.896 58.459,75.489 59.846,74.937C59.981,75.197 60.25,75.375 60.563,75.375C61.01,75.375 61.374,75.013 61.374,74.564C61.374,74.461 61.354,74.365 61.319,74.275C61.971,73.945 62.592,73.585 63.173,73.195C63.714,72.829 64.22,72.441 64.694,72.038L64.792,72.061L65.169,73.646C65.187,73.72 65.253,73.773 65.329,73.773C65.407,73.773 65.474,73.72 65.491,73.646L65.866,72.061L67.452,71.684C67.526,71.666 67.579,71.6 67.579,71.524C67.579,71.447 67.526,71.38 67.452,71.363L65.866,70.986L65.858,70.948C66.743,70.047 67.491,69.102 68.1,68.169C69.272,66.408 69.911,64.658 70.325,63.212C70.419,62.845 70.507,62.499 70.591,62.173C70.663,61.844 70.696,61.528 70.745,61.239C70.788,60.948 70.831,60.679 70.868,60.433C70.903,60.187 70.897,59.959 70.913,59.758C70.954,58.949 70.976,58.518 70.976,58.518C70.976,58.518 70.956,58.086 70.921,57.277C70.905,57.075 70.913,56.847 70.878,56.601C70.841,56.354 70.802,56.085 70.759,55.794C70.712,55.504 70.681,55.189 70.611,54.859C70.529,54.532 70.441,54.184 70.349,53.817C70.255,53.482 70.146,53.129 70.025,52.764C70.091,52.53 70.16,52.293 70.224,52.067C70.818,49.927 71.087,48.11 71.22,46.708C71.23,46.708 71.238,46.711 71.247,46.711C71.546,46.711 71.788,46.468 71.788,46.17C71.788,45.892 71.577,45.665 71.306,45.635C71.367,44.937 71.357,44.393 71.372,44.025C71.382,43.641 71.386,43.442 71.386,43.442C71.386,43.442 71.382,43.244 71.374,42.859C71.358,42.476 71.374,41.903 71.308,41.162C71.216,39.679 70.986,37.493 70.249,34.809C70.155,34.475 70.058,34.131 69.958,33.779C69.843,33.432 69.724,33.076 69.603,32.711C69.49,32.344 69.339,31.98 69.195,31.606C69.047,31.232 68.908,30.845 68.73,30.466C68.074,28.923 67.22,27.314 66.164,25.689C66.125,25.629 66.084,25.569 66.043,25.508C66.981,25.745 67.893,26.026 68.773,26.357C70.841,27.129 72.75,28.115 74.461,29.243C77.887,31.512 80.488,34.336 82.33,37.113C82.976,38.082 83.523,39.045 83.998,39.988C83.709,40.161 83.514,40.473 83.514,40.834C83.514,41.38 83.957,41.823 84.504,41.823C84.611,41.823 84.715,41.801 84.813,41.769C85.073,42.396 85.301,43.007 85.501,43.598C85.3,43.696 85.159,43.9 85.159,44.139C85.159,44.472 85.429,44.742 85.761,44.742C85.794,44.742 85.825,44.737 85.859,44.732C85.879,44.803 85.904,44.877 85.923,44.947C86.579,47.259 86.796,49.146 86.886,50.428C86.949,51.069 86.939,51.563 86.956,51.896C86.966,52.228 86.972,52.399 86.972,52.399C86.972,52.399 86.961,52.569 86.953,52.902Z" style="fill:rgb(38,38,38);fill-opacity:0.6;fill-rule:nonzero;"/>
    </g>
    <g transform="matrix(1.54532,0,0,1.54532,-5.21443,-13.6138)">
        <path d="M59.926,53.39L61.725,53.818L61.319,54.476C61.284,54.535 61.292,54.61 61.34,54.658C61.369,54.687 61.406,54.702 61.445,54.702C61.47,54.702 61.498,54.695 61.521,54.68L62.179,54.276L62.607,56.075C62.625,56.141 62.683,56.188 62.752,56.188C62.821,56.188 62.879,56.141 62.897,56.075L63.325,54.276L63.983,54.68C64.006,54.696 64.034,54.702 64.059,54.702C64.098,54.702 64.135,54.687 64.164,54.658C64.213,54.61 64.223,54.535 64.185,54.476L63.779,53.818L65.58,53.39C65.646,53.374 65.693,53.315 65.693,53.246C65.693,53.177 65.646,53.118 65.58,53.101L63.779,52.674L64.185,52.015C64.222,51.957 64.212,51.881 64.164,51.833C64.115,51.784 64.039,51.776 63.982,51.812L63.324,52.217L62.896,50.418C62.863,50.284 62.64,50.284 62.607,50.418L62.179,52.217L61.521,51.812C61.464,51.777 61.388,51.785 61.341,51.833C61.29,51.881 61.282,51.957 61.318,52.015L61.724,52.673L59.925,53.101C59.859,53.118 59.812,53.176 59.812,53.246C59.813,53.314 59.859,53.374 59.926,53.39Z" style="fill:rgb(38,38,38);fill-opacity:0.6;fill-rule:nonzero;"/>
    </g>
    <g transform="matrix(1.54532,0,0,1.54532,-5.21443,-13.6138)">
        <path d="M55.488,30.206L56.726,30.5L56.447,30.953C56.422,30.993 56.427,31.045 56.461,31.078C56.482,31.098 56.508,31.108 56.533,31.108C56.551,31.108 56.57,31.103 56.586,31.093L57.039,30.814L57.334,32.052C57.346,32.098 57.387,32.131 57.434,32.131C57.481,32.131 57.522,32.099 57.532,32.052L57.827,30.814L58.28,31.093C58.296,31.103 58.315,31.108 58.333,31.108C58.36,31.108 58.386,31.098 58.405,31.078C58.438,31.045 58.444,30.994 58.421,30.953L58.141,30.5L59.379,30.206C59.424,30.195 59.457,30.154 59.457,30.107C59.457,30.06 59.424,30.019 59.379,30.008L58.141,29.714L58.42,29.261C58.443,29.221 58.438,29.169 58.404,29.136C58.371,29.102 58.318,29.097 58.279,29.121L57.826,29.4L57.531,28.162C57.51,28.07 57.355,28.07 57.334,28.162L57.039,29.399L56.586,29.121C56.547,29.097 56.494,29.102 56.461,29.136C56.428,29.169 56.422,29.221 56.447,29.261L56.726,29.714L55.488,30.008C55.441,30.019 55.41,30.06 55.41,30.107C55.41,30.154 55.441,30.195 55.488,30.206Z" style="fill:rgb(38,38,38);fill-opacity:0.6;fill-rule:nonzero;"/>
    </g>
    <g transform="matrix(1.54532,0,0,1.54532,-5.21443,-13.6138)">
        <path d="M83.445,54.561L82.685,54.38L82.855,54.102C82.871,54.078 82.867,54.046 82.847,54.026C82.826,54.005 82.794,54.002 82.769,54.016L82.492,54.188L82.31,53.427C82.296,53.371 82.203,53.371 82.189,53.427L82.009,54.188L81.73,54.016C81.707,54.001 81.673,54.004 81.654,54.026C81.634,54.047 81.629,54.078 81.644,54.102L81.816,54.38L81.056,54.561C81.027,54.568 81.007,54.593 81.007,54.622C81.007,54.651 81.027,54.676 81.056,54.684L81.816,54.864L81.644,55.142C81.628,55.167 81.632,55.199 81.654,55.219C81.666,55.232 81.681,55.238 81.697,55.238C81.709,55.238 81.72,55.235 81.73,55.228L82.009,55.057L82.189,55.817C82.197,55.845 82.22,55.865 82.25,55.865C82.28,55.865 82.305,55.845 82.311,55.817L82.493,55.057L82.77,55.228C82.78,55.235 82.791,55.238 82.803,55.238C82.819,55.238 82.834,55.232 82.848,55.219C82.868,55.198 82.871,55.167 82.856,55.142L82.686,54.864L83.446,54.684C83.473,54.676 83.493,54.652 83.493,54.622C83.492,54.593 83.473,54.567 83.445,54.561Z" style="fill:rgb(38,38,38);fill-opacity:0.6;fill-rule:nonzero;"/>
    </g>
    <g transform="matrix(1.54532,0,0,1.54532,-5.21443,-13.6138)">
        <circle cx="29.414" cy="64.47" r="0.267" style="fill:rgb(38,38,38);fill-opacity:0.6;"/>
    </g>
    <g transform="matrix(1.54532,0,0,1.54532,-5.21443,-13.6138)">
        <circle cx="72.451" cy="44.998" r="0.267" style="fill:rgb(38,38,38);fill-opacity:0.6;"/>
    </g>
    <g transform="matrix(1.54532,0,0,1.54532,-5.21443,-13.6138)">
        <circle cx="15.038" cy="51.904" r="0.267" style="fill:rgb(38,38,38);fill-opacity:0.6;"/>
    </g>
    <g transform="matrix(1.54532,0,0,1.54532,-5.21443,-13.6138)">
        <circle cx="47.066" cy="59.974" r="0.267" style="fill:rgb(38,38,38);fill-opacity:0.6;"/>
    </g>
    <g transform="matrix(1.54532,0,0,1.54532,-5.21443,-13.6138)">
        <circle cx="67.473" cy="21.878" r="0.267" style="fill:rgb(38,38,38);fill-opacity:0.6;"/>
    </g>
    <g transform="matrix(1.54532,0,0,1.54532,-5.21443,-13.6138)">
        <circle cx="46.803" cy="65.18" r="0.267" style="fill:rgb(38,38,38);fill-opacity:0.6;"/>
    </g>
    <g transform="matrix(1.54532,0,0,1.54532,-5.21443,-13.6138)">
        <circle cx="42.638" cy="49.096" r="0.266" style="fill:rgb(38,38,38);fill-opacity:0.6;"/>
    </g>
    <g transform="matrix(1.54532,0,0,1.54532,-5.21443,-13.6138)">
        <circle cx="24.223" cy="67.638" r="0.267" style="fill:rgb(38,38,38);fill-opacity:0.6;"/>
    </g>
    <g transform="matrix(1.54532,0,0,1.54532,-5.21443,-13.6138)">
        <circle cx="60.295" cy="47.432" r="0.267" style="fill:rgb(38,38,38);fill-opacity:0.6;"/>
    </g>
    <g transform="matrix(1.54532,0,0,1.54532,-5.21443,-13.6138)">
        <circle cx="8.549" cy="30.125" r="0.267" style="fill:rgb(38,38,38);fill-opacity:0.6;"/>
    </g>
    <g transform="matrix(1.54532,0,0,1.54532,-5.21443,-13.6138)">
        <circle cx="83.883" cy="56.43" r="0.267" style="fill:rgb(38,38,38);fill-opacity:0.6;"/>
    </g>
    <g transform="matrix(0.950135,0,0,0.950135,-67.4139,-62.0787)">
        <text x="99.617px" y="149.631px" style="font-family:'OpenSans-Light', 'Open Sans', sans-serif;font-weight:300;font-size:37.5px;fill:rgb(38,38,38);">N<tspan x="126.287px 134.389px 154.595px 171.432px 191.638px 208.732px 218.098px 246.379px 268.324px 285.418px 305.624px 319.842px 336.679px 356.885px " y="149.631px 149.631px 149.631px 149.631px 149.631px 149.631px 149.631px 149.631px 149.631px 149.631px 149.631px 149.631px 149.631px 149.631px ">ieves Observer</tspan></text>
    </g>
    <g transform="matrix(1.05307,0,0,1.05307,-72.8176,-57.1375)">
        <text x="99.617px" y="149.631px" style="font-family:'OpenSans-Regular', 'Open Sans', sans-serif;font-size:12.38px;fill:rgb(38,38,38);">A<tspan x="108.937px 117.271px 121.973px 130.253px 141.381px 150.465px 159.785px 164.486px 174.985px 185.804px 190.741px 199.596px 207.967px 217.105px 225.386px 230.323px 238.658px 247.077px 251.778px 262.906px 270.781px 275.482px 284.802px 297.465px 305.836px 314.975px 319.912px 329.208px " y="149.631px 149.631px 149.631px 149.631px 149.631px 149.631px 149.631px 149.631px 149.631px 149.631px 149.631px 149.631px 149.631px 149.631px 149.631px 149.631px 149.631px 149.631px 149.631px 149.631px 149.631px 149.631px 149.631px 149.631px 149.631px 149.631px 149.631px 149.631px ">T SOKA UNIVERSITY OF AMERICA</tspan></text>
    </g>
</svg>
